<?xml version="1.0" encoding="UTF-8"?>
<!DOCTYPE svg PUBLIC "-//W3C//DTD SVG 1.1//EN" "http://www.w3.org/Graphics/SVG/1.1/DTD/svg11.dtd">
<svg xmlns="http://www.w3.org/2000/svg" version="1.1" width="938px" height="938px" style="shape-rendering:geometricPrecision; text-rendering:geometricPrecision; image-rendering:optimizeQuality; fill-rule:evenodd; clip-rule:evenodd" xmlns:xlink="http://www.w3.org/1999/xlink">
<g><path style="opacity:1" fill="#050504" d="M -0.5,-0.5 C 311.5,-0.5 623.5,-0.5 935.5,-0.5C 935.5,312.167 935.5,624.833 935.5,937.5C 623.5,937.5 311.5,937.5 -0.5,937.5C -0.5,624.833 -0.5,312.167 -0.5,-0.5 Z"/></g>
<g><path style="opacity:1" fill="#f2ebca" d="M 79.5,23.5 C 77.6028,24.8048 75.2695,25.4714 72.5,25.5C 70.1667,25.1667 67.8333,24.8333 65.5,24.5C 65.8627,23.8165 66.1961,23.1499 66.5,22.5C 70.3112,21.3547 74.3112,21.1881 78.5,22C 79.056,22.3826 79.3893,22.8826 79.5,23.5 Z"/></g>
<g><path style="opacity:1" fill="#7c7766" d="M 904.5,34.5 C 902.78,35.3077 901.113,36.3077 899.5,37.5C 899.709,36.0783 900.209,34.745 901,33.5C 902.011,34.3366 903.178,34.67 904.5,34.5 Z"/></g>
<g><path style="opacity:1" fill="#e2dcc3" d="M 34.5,27.5 C 35.6652,31.1742 37.4985,34.5075 40,37.5C 44.3144,40.6474 48.1477,44.314 51.5,48.5C 52.4077,47.21 52.241,45.8767 51,44.5C 47.4084,41.579 44.5751,38.079 42.5,34C 43.5,33.3333 44.5,33.3333 45.5,34C 47.3501,36.0176 49.3501,37.8509 51.5,39.5C 53.1209,33.2299 56.4543,28.2299 61.5,24.5C 63.0495,23.5592 64.7162,22.8925 66.5,22.5C 66.1961,23.1499 65.8627,23.8165 65.5,24.5C 67.8333,24.8333 70.1667,25.1667 72.5,25.5C 75.2695,25.4714 77.6028,24.8048 79.5,23.5C 81.1765,24.1834 81.8432,25.5168 81.5,27.5C 72.1821,24.3004 64.6821,26.6338 59,34.5C 57.9914,36.0249 57.4914,37.6916 57.5,39.5C 56.3567,42.9758 56.1901,46.6425 57,50.5C 57.3826,51.056 57.8826,51.3893 58.5,51.5C 61.9482,56.1212 65.6149,60.6212 69.5,65C 69.2373,66.9457 68.2373,67.6123 66.5,67C 61.4566,62.2879 56.1233,57.9546 50.5,54C 39.9928,51.6694 32.8261,55.5027 29,65.5C 28.2378,69.3316 28.7378,72.9982 30.5,76.5C 29.3803,78.5962 27.8803,78.9295 26,77.5C 20.6959,63.9633 24.8625,54.63 38.5,49.5C 41.2469,49.8134 43.9135,49.48 46.5,48.5C 46.3764,47.8933 46.0431,47.56 45.5,47.5C 39.1322,39.9652 31.9655,33.2985 24,27.5C 23.5507,24.9063 24.5507,22.9063 27,21.5C 29.1057,24.1177 31.6057,26.1177 34.5,27.5 Z"/></g>
<g><path style="opacity:1" fill="#13120e" d="M 61.5,24.5 C 56.4543,28.2299 53.1209,33.2299 51.5,39.5C 49.3501,37.8509 47.3501,36.0176 45.5,34C 44.5,33.3333 43.5,33.3333 42.5,34C 44.5751,38.079 47.4084,41.579 51,44.5C 52.241,45.8767 52.4077,47.21 51.5,48.5C 48.1477,44.314 44.3144,40.6474 40,37.5C 37.4985,34.5075 35.6652,31.1742 34.5,27.5C 37.054,27.7975 39.554,27.7975 42,27.5C 42.804,28.8045 43.9707,29.4712 45.5,29.5C 47.4199,28.3306 49.4199,27.3306 51.5,26.5C 52.086,26.7093 52.586,27.0426 53,27.5C 55.4194,25.4152 58.2528,24.4152 61.5,24.5 Z"/></g>
<g><path style="opacity:1" fill="#e5ddc4" d="M 892.5,35.5 C 889.531,38.6419 886.698,41.9753 884,45.5C 883.018,46.7589 882.685,48.0922 883,49.5C 887.037,45.631 890.87,41.631 894.5,37.5C 897.624,35.2756 899.791,32.2756 901,28.5C 903.538,25.9166 906.205,23.5833 909,21.5C 910.702,22.3687 911.869,23.7021 912.5,25.5C 909.811,28.5198 907.144,31.5198 904.5,34.5C 903.178,34.67 902.011,34.3366 901,33.5C 900.209,34.745 899.709,36.0783 899.5,37.5C 896.529,40.8076 893.529,44.141 890.5,47.5C 889.957,47.56 889.624,47.8933 889.5,48.5C 892.086,49.48 894.753,49.8134 897.5,49.5C 903.697,51.5272 908.197,55.5272 911,61.5C 913.705,67.9156 912.705,73.5822 908,78.5C 905.005,77.4824 904.672,75.8157 907,73.5C 907.402,58.2486 899.902,51.7486 884.5,54C 878.909,57.5863 873.909,61.9196 869.5,67C 868.552,67.4828 867.552,67.6495 866.5,67.5C 866.491,65.6916 866.991,64.0249 868,62.5C 871.37,59.465 874.37,56.1317 877,52.5C 881.637,40.9 878.471,32.4 867.5,27C 863.442,26.2334 859.442,26.4001 855.5,27.5C 854.386,26.277 854.219,24.9437 855,23.5C 870.212,19.2826 879.878,24.9492 884,40.5C 885.695,37.3055 888.195,34.9722 891.5,33.5C 892.298,33.9569 892.631,34.6236 892.5,35.5 Z"/></g>
<g><path style="opacity:1" fill="#2b2923" d="M 892.5,35.5 C 892.5,36.8333 893.167,37.5 894.5,37.5C 890.87,41.631 887.037,45.631 883,49.5C 882.685,48.0922 883.018,46.7589 884,45.5C 886.698,41.9753 889.531,38.6419 892.5,35.5 Z"/></g>
<g><path style="opacity:1" fill="#877f69" d="M 45.5,47.5 C 46.0431,47.56 46.3764,47.8933 46.5,48.5C 43.9135,49.48 41.2469,49.8134 38.5,49.5C 40.8333,48.8333 43.1667,48.1667 45.5,47.5 Z"/></g>
<g><path style="opacity:1" fill="#868171" d="M 890.5,47.5 C 892.833,48.1667 895.167,48.8333 897.5,49.5C 894.753,49.8134 892.086,49.48 889.5,48.5C 889.624,47.8933 889.957,47.56 890.5,47.5 Z"/></g>
<g><path style="opacity:1" fill="#979280" d="M 57.5,39.5 C 57.307,43.5662 57.6403,47.5662 58.5,51.5C 57.8826,51.3893 57.3826,51.056 57,50.5C 56.1901,46.6425 56.3567,42.9758 57.5,39.5 Z"/></g>
<g><path style="opacity:1" fill="#eee6cc" d="M 452.5,151.5 C 466.861,151.259 481.194,151.759 495.5,153C 495.833,153.333 496.167,153.667 496.5,154C 492.848,154.499 489.182,154.665 485.5,154.5C 467.128,154.279 448.795,154.946 430.5,156.5C 426.154,156.666 421.821,156.499 417.5,156C 418.416,155.722 419.082,155.222 419.5,154.5C 430.345,152.063 441.345,151.063 452.5,151.5 Z"/></g>
<g><path style="opacity:1" fill="#cfc7b1" d="M 452.5,151.5 C 471.234,149.933 489.9,150.6 508.5,153.5C 506.473,153.338 504.473,153.505 502.5,154C 505.122,155.475 507.788,156.641 510.5,157.5C 501.951,157.144 493.618,156.144 485.5,154.5C 489.182,154.665 492.848,154.499 496.5,154C 496.167,153.667 495.833,153.333 495.5,153C 481.194,151.759 466.861,151.259 452.5,151.5 Z"/></g>
<g><path style="opacity:1" fill="#dfd8c1" d="M 419.5,154.5 C 419.082,155.222 418.416,155.722 417.5,156C 421.821,156.499 426.154,156.666 430.5,156.5C 319.214,174.54 239.048,234.207 190,335.5C 184.304,349.763 179.137,364.096 174.5,378.5C 174.313,376.436 173.813,374.436 173,372.5C 172.1,375.718 170.933,378.718 169.5,381.5C 195.41,290.754 250.41,223.92 334.5,181C 361.513,167.996 389.847,159.162 419.5,154.5 Z"/></g>
<g><path style="opacity:1" fill="#0a0908" d="M 485.5,154.5 C 493.618,156.144 501.951,157.144 510.5,157.5C 605.497,173.735 678.33,222.735 729,304.5C 744.624,332.672 756.457,362.339 764.5,393.5C 772.5,438.173 772.5,482.839 764.5,527.5C 763.076,529.515 762.41,531.848 762.5,534.5C 761.608,538.853 760.608,543.186 759.5,547.5C 758.076,549.515 757.41,551.848 757.5,554.5C 756.076,556.515 755.41,558.848 755.5,561.5C 753.791,564.955 752.458,568.621 751.5,572.5C 710.07,679.087 633.404,744.587 521.5,769C 508.993,770.397 496.66,771.897 484.5,773.5C 481.833,773.5 479.167,773.5 476.5,773.5C 384.857,774.577 307.69,741.91 245,675.5C 213.614,639.738 190.781,599.071 176.5,553.5C 176.59,550.848 175.924,548.515 174.5,546.5C 174.5,546.167 174.5,545.833 174.5,545.5C 174.59,542.848 173.924,540.515 172.5,538.5C 172.5,538.167 172.5,537.833 172.5,537.5C 172.59,534.848 171.924,532.515 170.5,530.5C 170.101,526.989 169.434,523.656 168.5,520.5C 168.235,513.264 167.235,506.264 165.5,499.5C 162.936,474.816 162.936,450.149 165.5,425.5C 166.525,422.026 167.192,418.36 167.5,414.5C 167.5,413.833 167.5,413.167 167.5,412.5C 168.525,409.026 169.192,405.36 169.5,401.5C 171.366,393.895 173.033,386.228 174.5,378.5C 179.137,364.096 184.304,349.763 190,335.5C 239.048,234.207 319.214,174.54 430.5,156.5C 448.795,154.946 467.128,154.279 485.5,154.5 Z"/></g>
<g><path style="opacity:1" fill="#b3af9f" d="M 496.5,180.5 C 502.01,181.211 507.343,181.211 512.5,180.5C 515.385,180.194 518.052,180.527 520.5,181.5C 518.219,181.077 516.552,181.744 515.5,183.5C 508.973,182.897 502.639,181.897 496.5,180.5 Z"/></g>
<g><path style="opacity:1" fill="#060505" d="M 449.5,179.5 C 451.5,179.5 453.5,179.5 455.5,179.5C 469.184,179.329 482.851,179.662 496.5,180.5C 502.639,181.897 508.973,182.897 515.5,183.5C 614.86,203.037 685.027,259.037 726,351.5C 727.884,357.657 730.051,363.657 732.5,369.5C 737.239,382.791 740.573,396.458 742.5,410.5C 742.676,413.727 743.343,416.727 744.5,419.5C 748.582,457.827 746.582,495.827 738.5,533.5C 736.723,536.505 735.723,539.838 735.5,543.5C 733.462,547.94 731.796,552.607 730.5,557.5C 729.168,561.162 727.835,564.828 726.5,568.5C 702.528,629.778 662.195,677.112 605.5,710.5C 576.595,726.136 545.928,736.802 513.5,742.5C 509.64,742.808 505.974,743.475 502.5,744.5C 393.943,754.619 306.776,716.619 241,630.5C 226.269,609.371 214.435,586.705 205.5,562.5C 203.871,556.608 201.871,550.941 199.5,545.5C 199.768,543.901 199.434,542.568 198.5,541.5C 198.59,538.848 197.924,536.515 196.5,534.5C 194.611,523.501 192.611,512.501 190.5,501.5C 190.556,496.269 189.889,491.269 188.5,486.5C 183.722,425.971 196.388,369.638 226.5,317.5C 268.299,249.068 328.299,205.235 406.5,186C 420.866,183.083 435.2,180.916 449.5,179.5 Z"/></g>
<g><path style="opacity:1" fill="#ded8c6" d="M 451.5,177.5 C 462.659,176.341 473.992,176.174 485.5,177C 494.748,177.387 503.748,178.554 512.5,180.5C 507.343,181.211 502.01,181.211 496.5,180.5C 482.851,179.662 469.184,179.329 455.5,179.5C 464.658,178.67 473.991,178.17 483.5,178C 472.839,177.5 462.172,177.333 451.5,177.5 Z"/></g>
<g><path style="opacity:1" fill="#fbf7e1" d="M 444.5,177.5 C 446.833,177.5 449.167,177.5 451.5,177.5C 462.172,177.333 472.839,177.5 483.5,178C 473.991,178.17 464.658,178.67 455.5,179.5C 453.5,179.5 451.5,179.5 449.5,179.5C 446.813,179.664 444.146,179.497 441.5,179C 442.737,178.768 443.737,178.268 444.5,177.5 Z"/></g>
<g><path style="opacity:1" fill="#d9d4c2" d="M 444.5,177.5 C 443.737,178.268 442.737,178.768 441.5,179C 444.146,179.497 446.813,179.664 449.5,179.5C 435.2,180.916 420.866,183.083 406.5,186C 328.299,205.235 268.299,249.068 226.5,317.5C 226.614,315.652 226.281,313.652 225.5,311.5C 260.751,255.776 309.417,216.276 371.5,193C 395.144,184.505 419.477,179.338 444.5,177.5 Z"/></g>
<g><path style="opacity:1" fill="#dcd7c0" d="M 520.5,181.5 C 609.124,199.654 675.624,247.988 720,326.5C 726.271,338.375 731.438,350.708 735.5,363.5C 734.022,363.238 732.689,363.571 731.5,364.5C 732.025,365.192 732.692,365.692 733.5,366C 732.663,367.011 732.33,368.178 732.5,369.5C 730.051,363.657 727.884,357.657 726,351.5C 685.027,259.037 614.86,203.037 515.5,183.5C 516.552,181.744 518.219,181.077 520.5,181.5 Z"/></g>
<g><path style="opacity:1" fill="#dfd9c0" d="M 508.5,153.5 C 607.041,169.325 682.207,219.659 734,304.5C 749.712,331.308 760.879,359.974 767.5,390.5C 766.732,389.737 766.232,388.737 766,387.5C 764.681,389.25 764.181,391.25 764.5,393.5C 756.457,362.339 744.624,332.672 729,304.5C 678.33,222.735 605.497,173.735 510.5,157.5C 507.788,156.641 505.122,155.475 502.5,154C 504.473,153.505 506.473,153.338 508.5,153.5 Z"/></g>
<g><path style="opacity:1" fill="#95907c" d="M 458.5,263.5 C 458.59,266.152 457.924,268.485 456.5,270.5C 456.41,267.848 457.076,265.515 458.5,263.5 Z"/></g>
<g><path style="opacity:1" fill="#dfd9c2" d="M 509.5,365.5 C 508.5,365.5 507.5,365.5 506.5,365.5C 494.492,325.81 482.492,286.144 470.5,246.5C 469.743,245.227 469.077,245.227 468.5,246.5C 467.511,249.726 466.511,253.06 465.5,256.5C 454.721,293.005 443.221,329.338 431,365.5C 430.517,364.552 430.351,363.552 430.5,362.5C 438.24,331.534 446.907,300.867 456.5,270.5C 457.924,268.485 458.59,266.152 458.5,263.5C 461.809,252.605 464.976,241.605 468,230.5C 469,229.167 470,229.167 471,230.5C 484.546,275.303 497.379,320.303 509.5,365.5 Z"/></g>
<g><path style="opacity:1" fill="#35322a" d="M 468.5,246.5 C 468.316,250.079 468.983,253.413 470.5,256.5C 469.833,256.5 469.167,256.5 468.5,256.5C 468.649,255.448 468.483,254.448 468,253.5C 467.623,254.942 466.79,255.942 465.5,256.5C 466.511,253.06 467.511,249.726 468.5,246.5 Z"/></g>
<g><path style="opacity:1" fill="#e1dac1" d="M 624.5,479.5 C 618.608,481.129 612.941,483.129 607.5,485.5C 589.092,491.08 570.759,497.08 552.5,503.5C 572.468,536.632 592.635,569.632 613,602.5C 614.009,604.025 614.509,605.692 614.5,607.5C 612.801,607.66 611.134,607.494 609.5,607C 579.636,589.569 549.636,572.402 519.5,555.5C 510.539,550.229 501.539,544.896 492.5,539.5C 491.167,537.833 491.167,536.167 492.5,534.5C 528.996,554.914 565.329,575.58 601.5,596.5C 601.833,596.167 602.167,595.833 602.5,595.5C 582.347,561.866 562.18,528.199 542,494.5C 540.259,491.691 539.092,488.691 538.5,485.5C 539.822,485.33 540.989,485.663 542,486.5C 544.512,491.536 547.512,496.202 551,500.5C 589.113,486.796 627.28,473.296 665.5,460C 628.172,445.725 590.839,431.559 553.5,417.5C 549.147,422.527 545.147,427.86 541.5,433.5C 540.675,434.386 539.675,434.719 538.5,434.5C 539.28,430.873 540.78,427.54 543,424.5C 563.291,393.418 583.458,362.252 603.5,331C 602.5,330.333 601.5,330.333 600.5,331C 566.26,348.62 531.927,365.953 497.5,383C 496.565,385.381 496.232,387.881 496.5,390.5C 495.167,390.5 493.833,390.5 492.5,390.5C 492.59,387.848 491.924,385.515 490.5,383.5C 486.542,369.666 483.208,355.666 480.5,341.5C 480.395,337.712 480.729,333.712 481.5,329.5C 484.525,340.936 487.858,352.269 491.5,363.5C 492.201,369.01 493.535,374.344 495.5,379.5C 534.354,359.907 573.021,340.073 611.5,320C 612.793,319.51 614.127,319.343 615.5,319.5C 614.648,322.223 613.481,324.89 612,327.5C 592.631,356.261 573.798,385.261 555.5,414.5C 597.415,429.751 639.415,444.918 681.5,460C 662.713,466.952 643.713,473.452 624.5,479.5 Z"/></g>
<g><path style="opacity:1" fill="#0d0c0a" d="M 509.5,365.5 C 507.692,367.105 505.692,367.439 503.5,366.5C 504.911,364.983 504.744,363.649 503,362.5C 502.667,363.167 502.333,363.833 502,364.5C 502.218,362.413 502.051,360.413 501.5,358.5C 499.063,359.809 497.563,359.142 497,356.5C 496.282,357.451 495.449,357.617 494.5,357C 493.736,354.931 493.236,352.764 493,350.5C 490.355,349.292 489.188,350.292 489.5,353.5C 491.019,356.601 491.685,359.934 491.5,363.5C 487.858,352.269 484.525,340.936 481.5,329.5C 479.804,319.052 477.637,308.719 475,298.5C 473.46,292.715 471.627,287.048 469.5,281.5C 460.046,313.651 451.379,345.984 443.5,378.5C 443.167,378.833 442.833,379.167 442.5,379.5C 435.281,376.059 428.281,372.392 421.5,368.5C 423.861,368.674 426.194,369.007 428.5,369.5C 428.41,366.848 429.076,364.515 430.5,362.5C 430.351,363.552 430.517,364.552 431,365.5C 443.221,329.338 454.721,293.005 465.5,256.5C 466.79,255.942 467.623,254.942 468,253.5C 468.483,254.448 468.649,255.448 468.5,256.5C 469.759,271.023 470.426,271.023 470.5,256.5C 468.983,253.413 468.316,250.079 468.5,246.5C 469.077,245.227 469.743,245.227 470.5,246.5C 482.492,286.144 494.492,325.81 506.5,365.5C 507.5,365.5 508.5,365.5 509.5,365.5 Z"/></g>
<g><path style="opacity:1" fill="#abab9f" d="M 468.5,256.5 C 469.167,256.5 469.833,256.5 470.5,256.5C 470.426,271.023 469.759,271.023 468.5,256.5 Z"/></g>
<g><path style="opacity:1" fill="#e5ddc2" d="M 481.5,329.5 C 480.729,333.712 480.395,337.712 480.5,341.5C 476.682,328.563 473.015,315.563 469.5,302.5C 469.167,302.833 468.833,303.167 468.5,303.5C 461.151,332.609 453.484,361.609 445.5,390.5C 444.167,390.5 442.833,390.5 441.5,390.5C 441.808,388.076 441.474,385.743 440.5,383.5C 405.407,366.12 370.407,348.453 335.5,330.5C 335.167,330.833 334.833,331.167 334.5,331.5C 336.11,333.725 337.443,336.059 338.5,338.5C 337.655,339.671 336.989,341.005 336.5,342.5C 330.563,335.63 325.897,327.964 322.5,319.5C 323.873,319.343 325.207,319.51 326.5,320C 357.876,336.688 389.543,352.855 421.5,368.5C 428.281,372.392 435.281,376.059 442.5,379.5C 442.833,379.167 443.167,378.833 443.5,378.5C 451.379,345.984 460.046,313.651 469.5,281.5C 471.627,287.048 473.46,292.715 475,298.5C 477.637,308.719 479.804,319.052 481.5,329.5 Z"/></g>
<g><path style="opacity:1" fill="#928d7a" d="M 199.5,363.5 C 199.323,367.708 197.99,371.374 195.5,374.5C 196.462,370.605 197.796,366.939 199.5,363.5 Z"/></g>
<g><path style="opacity:1" fill="#8e8976" d="M 736.5,365.5 C 738.61,369.502 739.943,373.835 740.5,378.5C 738.39,374.498 737.057,370.165 736.5,365.5 Z"/></g>
<g><path style="opacity:1" fill="#7c7869" d="M 741.5,381.5 C 743.258,384.854 744.258,388.521 744.5,392.5C 742.742,389.146 741.742,385.479 741.5,381.5 Z"/></g>
<g><path style="opacity:1" fill="#948d7d" d="M 193.5,382.5 C 193.59,385.152 192.924,387.485 191.5,389.5C 191.41,386.848 192.076,384.515 193.5,382.5 Z"/></g>
<g><path style="opacity:1" fill="#837e72" d="M 169.5,401.5 C 169.192,405.36 168.525,409.026 167.5,412.5C 167.116,408.511 167.783,404.845 169.5,401.5 Z"/></g>
<g><path style="opacity:1" fill="#94907e" d="M 187.5,406.5 C 187.884,410.489 187.217,414.155 185.5,417.5C 185.646,413.613 186.313,409.946 187.5,406.5 Z"/></g>
<g><path style="opacity:1" fill="#878473" d="M 163.5,409.5 C 161.982,422.291 160.648,434.957 159.5,447.5C 159.208,434.525 160.541,421.858 163.5,409.5 Z"/></g>
<g><path style="opacity:1" fill="#94907d" d="M 742.5,410.5 C 744.118,413.171 744.785,416.171 744.5,419.5C 743.343,416.727 742.676,413.727 742.5,410.5 Z"/></g>
<g><path style="opacity:1" fill="#837e70" d="M 167.5,414.5 C 167.192,418.36 166.525,422.026 165.5,425.5C 165.116,421.511 165.783,417.845 167.5,414.5 Z"/></g>
<g><path style="opacity:1" fill="#e4dbc1" d="M 735.5,363.5 C 735.833,364.167 736.167,364.833 736.5,365.5C 737.057,370.165 738.39,374.498 740.5,378.5C 741.11,379.391 741.443,380.391 741.5,381.5C 741.742,385.479 742.742,389.146 744.5,392.5C 751.641,421.256 754.307,450.589 752.5,480.5C 751.111,485.269 750.444,490.269 750.5,495.5C 749.676,498.764 749.342,502.098 749.5,505.5C 747.96,507.838 747.294,510.505 747.5,513.5C 745.626,529.44 741.626,544.774 735.5,559.5C 734.259,557.069 733.092,557.069 732,559.5C 731.536,558.906 731.369,558.239 731.5,557.5C 733.438,553.018 734.771,548.351 735.5,543.5C 737.277,540.495 738.277,537.162 738.5,533.5C 746.582,495.827 748.582,457.827 744.5,419.5C 744.785,416.171 744.118,413.171 742.5,410.5C 740.573,396.458 737.239,382.791 732.5,369.5C 732.33,368.178 732.663,367.011 733.5,366C 732.692,365.692 732.025,365.192 731.5,364.5C 732.689,363.571 734.022,363.238 735.5,363.5 Z"/></g>
<g><path style="opacity:1" fill="#413e39" d="M 281.5,455.5 C 284.308,457.526 287.308,459.193 290.5,460.5C 285.039,461.957 279.706,461.623 274.5,459.5C 272.279,459.439 271.946,460.105 273.5,461.5C 271.255,461.459 270.588,460.625 271.5,459C 274.758,457.533 278.092,456.367 281.5,455.5 Z"/></g>
<g><path style="opacity:1" fill="#eae2ca" d="M 174.5,378.5 C 173.033,386.228 171.366,393.895 169.5,401.5C 167.783,404.845 167.116,408.511 167.5,412.5C 167.5,413.167 167.5,413.833 167.5,414.5C 165.783,417.845 165.116,421.511 165.5,425.5C 162.936,450.149 162.936,474.816 165.5,499.5C 165.678,506.749 166.678,513.749 168.5,520.5C 168.5,522.5 168.5,524.5 168.5,526.5C 167.5,526.5 166.5,526.5 165.5,526.5C 164.833,522.5 164.167,518.5 163.5,514.5C 163.247,510.96 162.581,507.627 161.5,504.5C 159.761,485.554 159.095,466.554 159.5,447.5C 160.648,434.957 161.982,422.291 163.5,409.5C 165.373,400.136 167.373,390.802 169.5,381.5C 170.933,378.718 172.1,375.718 173,372.5C 173.813,374.436 174.313,376.436 174.5,378.5 Z"/></g>
<g><path style="opacity:1" fill="#e2dbc4" d="M 338.5,338.5 C 359.167,369.858 379.501,401.525 399.5,433.5C 398.635,434.583 397.635,434.749 396.5,434C 392.94,429.437 389.773,424.604 387,419.5C 386.107,418.919 385.107,418.585 384,418.5C 349.628,430.346 315.461,442.679 281.5,455.5C 278.092,456.367 274.758,457.533 271.5,459C 270.588,460.625 271.255,461.459 273.5,461.5C 311.038,474.263 348.538,487.263 386,500.5C 389.73,496.72 392.73,492.386 395,487.5C 396.11,485.963 397.61,485.297 399.5,485.5C 379.029,521.496 357.862,557.163 336,592.5C 335.517,593.448 335.351,594.448 335.5,595.5C 371.897,575.463 408.231,555.13 444.5,534.5C 446.596,535.62 446.93,537.12 445.5,539C 439.434,542.024 433.768,545.524 428.5,549.5C 401.4,563.884 374.734,579.05 348.5,595C 340.228,599.969 331.561,604.136 322.5,607.5C 323.28,603.873 324.78,600.54 327,597.5C 346.154,566.533 365.32,535.533 384.5,504.5C 344.224,490.908 303.891,477.408 263.5,464C 260.399,463.145 257.732,461.645 255.5,459.5C 297.861,444.158 340.194,428.825 382.5,413.5C 366.897,389.947 351.563,366.28 336.5,342.5C 336.989,341.005 337.655,339.671 338.5,338.5 Z"/></g>
<g><path style="opacity:1" fill="#3b362e" d="M 624.5,479.5 C 619.367,482.658 613.7,484.658 607.5,485.5C 612.941,483.129 618.608,481.129 624.5,479.5 Z"/></g>
<g><path style="opacity:1" fill="#454138" d="M 752.5,480.5 C 752.556,485.731 751.889,490.731 750.5,495.5C 750.444,490.269 751.111,485.269 752.5,480.5 Z"/></g>
<g><path style="opacity:1" fill="#e1d9c2" d="M 767.5,390.5 C 776.143,428.835 777.81,467.502 772.5,506.5C 771.475,509.974 770.808,513.64 770.5,517.5C 768.526,530.751 765.526,543.751 761.5,556.5C 760.076,558.515 759.41,560.848 759.5,563.5C 757.325,568.681 755.325,574.014 753.5,579.5C 752.603,578.402 751.77,578.402 751,579.5C 750.982,577.203 751.149,574.869 751.5,572.5C 752.458,568.621 753.791,564.955 755.5,561.5C 756.924,559.485 757.59,557.152 757.5,554.5C 758.924,552.485 759.59,550.152 759.5,547.5C 760.608,543.186 761.608,538.853 762.5,534.5C 763.924,532.485 764.59,530.152 764.5,527.5C 772.5,482.839 772.5,438.173 764.5,393.5C 764.181,391.25 764.681,389.25 766,387.5C 766.232,388.737 766.732,389.737 767.5,390.5 Z"/></g>
<g><path style="opacity:1" fill="#959181" d="M 188.5,486.5 C 189.889,491.269 190.556,496.269 190.5,501.5C 189.111,496.731 188.444,491.731 188.5,486.5 Z"/></g>
<g><path style="opacity:1" fill="#9b9585" d="M 165.5,499.5 C 167.235,506.264 168.235,513.264 168.5,520.5C 166.678,513.749 165.678,506.749 165.5,499.5 Z"/></g>
<g><path style="opacity:1" fill="#0b0a08" d="M 480.5,341.5 C 483.208,355.666 486.542,369.666 490.5,383.5C 490.41,386.152 491.076,388.485 492.5,390.5C 493.833,390.5 495.167,390.5 496.5,390.5C 496.232,387.881 496.565,385.381 497.5,383C 531.927,365.953 566.26,348.62 600.5,331C 601.5,330.333 602.5,330.333 603.5,331C 583.458,362.252 563.291,393.418 543,424.5C 540.78,427.54 539.28,430.873 538.5,434.5C 539.675,434.719 540.675,434.386 541.5,433.5C 545.147,427.86 549.147,422.527 553.5,417.5C 590.839,431.559 628.172,445.725 665.5,460C 627.28,473.296 589.113,486.796 551,500.5C 547.512,496.202 544.512,491.536 542,486.5C 540.989,485.663 539.822,485.33 538.5,485.5C 539.092,488.691 540.259,491.691 542,494.5C 562.18,528.199 582.347,561.866 602.5,595.5C 602.167,595.833 601.833,596.167 601.5,596.5C 565.329,575.58 528.996,554.914 492.5,534.5C 491.167,536.167 491.167,537.833 492.5,539.5C 501.539,544.896 510.539,550.229 519.5,555.5C 516.894,554.864 514.394,554.864 512,555.5C 511.626,556.416 511.126,557.25 510.5,558C 512.053,559.097 513.386,560.43 514.5,562C 509.853,564.129 508.02,567.629 509,572.5C 508.667,571.833 508.333,571.167 508,570.5C 504.413,574.357 501.913,578.691 500.5,583.5C 503.165,573.846 505.832,564.18 508.5,554.5C 507.675,553.614 506.675,553.281 505.5,553.5C 495.356,586.075 485.523,618.742 476,651.5C 473.595,658.215 471.095,664.882 468.5,671.5C 456.664,632.159 444.33,592.992 431.5,554C 431.164,552.97 430.497,552.47 429.5,552.5C 430.007,551.141 431.007,550.141 432.5,549.5C 431.3,548.708 429.967,548.708 428.5,549.5C 433.768,545.524 439.434,542.024 445.5,539C 446.93,537.12 446.596,535.62 444.5,534.5C 408.231,555.13 371.897,575.463 335.5,595.5C 335.351,594.448 335.517,593.448 336,592.5C 357.862,557.163 379.029,521.496 399.5,485.5C 397.61,485.297 396.11,485.963 395,487.5C 392.73,492.386 389.73,496.72 386,500.5C 348.538,487.263 311.038,474.263 273.5,461.5C 271.946,460.105 272.279,459.439 274.5,459.5C 279.706,461.623 285.039,461.957 290.5,460.5C 287.308,459.193 284.308,457.526 281.5,455.5C 315.461,442.679 349.628,430.346 384,418.5C 385.107,418.585 386.107,418.919 387,419.5C 389.773,424.604 392.94,429.437 396.5,434C 397.635,434.749 398.635,434.583 399.5,433.5C 379.501,401.525 359.167,369.858 338.5,338.5C 337.443,336.059 336.11,333.725 334.5,331.5C 334.833,331.167 335.167,330.833 335.5,330.5C 370.407,348.453 405.407,366.12 440.5,383.5C 441.474,385.743 441.808,388.076 441.5,390.5C 442.833,390.5 444.167,390.5 445.5,390.5C 453.484,361.609 461.151,332.609 468.5,303.5C 468.833,303.167 469.167,302.833 469.5,302.5C 473.015,315.563 476.682,328.563 480.5,341.5 Z"/></g>
<g><path style="opacity:1" fill="#eae1c4" d="M 455.5,501.5 C 458.362,500.319 461.362,500.319 464.5,501.5C 465.519,503.101 467.019,504.101 469,504.5C 470.823,503.349 472.656,502.182 474.5,501C 476.902,500.186 479.235,500.353 481.5,501.5C 479.5,503.833 477.5,506.167 475.5,508.5C 478.543,512.544 482.209,515.877 486.5,518.5C 488.026,515.691 489.026,512.691 489.5,509.5C 490.827,508.2 492.16,506.867 493.5,505.5C 494.192,508.77 494.192,512.103 493.5,515.5C 485.87,554.946 477.703,594.279 469,633.5C 466.182,622.909 463.682,612.243 461.5,601.5C 460.657,594.943 459.323,588.61 457.5,582.5C 452.221,556.662 446.888,530.829 441.5,505C 442.687,502.41 444.52,501.91 447,503.5C 448.333,508.833 449.667,514.167 451,519.5C 455.314,516.353 459.148,512.686 462.5,508.5C 460.479,505.812 458.146,503.479 455.5,501.5 Z"/></g>
<g><path style="opacity:1" fill="#e8e0c4" d="M 508.5,451.5 C 507.597,449.364 506.431,447.364 505,445.5C 504.978,448.451 505.811,451.117 507.5,453.5C 507.665,456.85 507.498,460.183 507,463.5C 505.194,467.72 504.194,472.053 504,476.5C 506.171,472.156 508.837,468.156 512,464.5C 512.667,463.167 513.333,463.167 514,464.5C 530.523,492.888 547.023,521.222 563.5,549.5C 563.715,551.179 563.048,552.179 561.5,552.5C 551.36,538.241 541.693,523.575 532.5,508.5C 510.299,503.527 487.966,499.193 465.5,495.5C 460.48,495.959 455.813,494.959 451.5,492.5C 447.922,490.925 444.589,488.925 441.5,486.5C 440.591,487.318 440.091,488.984 440,491.5C 439.148,490.429 438.315,489.429 437.5,488.5C 436.351,483.842 433.518,480.509 429,478.5C 428.71,476.956 428.044,475.623 427,474.5C 421.667,481.829 416.833,489.496 412.5,497.5C 413.325,498.386 414.325,498.719 415.5,498.5C 420.731,498.556 425.731,497.889 430.5,496.5C 433.5,496.5 436.5,496.5 439.5,496.5C 444.511,496.334 449.511,496.501 454.5,497C 453.058,497.377 452.058,498.21 451.5,499.5C 450.209,499.263 449.209,499.596 448.5,500.5C 434.059,502.099 419.725,504.599 405.5,508C 397.934,519.651 390.267,531.151 382.5,542.5C 381.733,541.828 381.066,540.995 380.5,540C 382.107,538.951 382.773,537.451 382.5,535.5C 395.348,512.476 408.848,489.809 423,467.5C 423.483,466.552 423.649,465.552 423.5,464.5C 425.91,464.921 427.743,466.254 429,468.5C 431,471.833 433,475.167 435,478.5C 435.667,477.167 435.667,475.833 435,474.5C 432.702,468.97 430.868,463.303 429.5,457.5C 431.004,453.171 432.17,448.837 433,444.5C 431.021,447.974 428.855,451.307 426.5,454.5C 426.167,453.667 425.833,452.833 425.5,452C 431.269,440.632 436.603,429.132 441.5,417.5C 443.735,417.205 445.735,417.539 447.5,418.5C 446.123,422.92 443.956,426.92 441,430.5C 440.333,431.5 440.333,432.5 441,433.5C 444.729,429.602 448.562,425.935 452.5,422.5C 455.578,421.798 458.578,420.798 461.5,419.5C 466.341,420.804 471.174,420.804 476,419.5C 482.545,422.188 488.712,425.522 494.5,429.5C 495.164,431.487 496.331,433.154 498,434.5C 498.249,432.332 497.416,430.665 495.5,429.5C 492.987,425.477 491.321,421.144 490.5,416.5C 492.792,416.244 494.959,416.577 497,417.5C 502.131,429.062 506.964,440.729 511.5,452.5C 510.655,454.523 509.655,454.19 508.5,451.5 Z"/></g>
<g><path style="opacity:1" fill="#c6c0ac" d="M 493.5,515.5 C 494.192,512.103 494.192,508.77 493.5,505.5C 492.16,506.867 490.827,508.2 489.5,509.5C 489.674,507.139 490.007,504.806 490.5,502.5C 492.696,502.565 494.696,503.232 496.5,504.5C 495.811,508.366 494.811,512.032 493.5,515.5 Z"/></g>
<g><path style="opacity:1" fill="#28241d" d="M 463.5,497.5 C 463.433,498.959 463.766,500.292 464.5,501.5C 461.362,500.319 458.362,500.319 455.5,501.5C 453.283,500.631 450.95,500.298 448.5,500.5C 449.209,499.596 450.209,499.263 451.5,499.5C 455.384,498.207 459.384,497.541 463.5,497.5 Z"/></g>
<g><path style="opacity:1" fill="#9a9482" d="M 430.5,496.5 C 425.731,497.889 420.731,498.556 415.5,498.5C 420.269,497.111 425.269,496.444 430.5,496.5 Z"/></g>
<g><path style="opacity:1" fill="#ccc7b4" d="M 441.5,486.5 C 442.159,489.455 442.492,492.455 442.5,495.5C 445.85,495.665 449.183,495.498 452.5,495C 451.748,494.329 451.414,493.496 451.5,492.5C 455.813,494.959 460.48,495.959 465.5,495.5C 464.833,496.167 464.167,496.833 463.5,497.5C 459.384,497.541 455.384,498.207 451.5,499.5C 452.058,498.21 453.058,497.377 454.5,497C 449.511,496.501 444.511,496.334 439.5,496.5C 438.629,493.888 437.963,491.221 437.5,488.5C 438.315,489.429 439.148,490.429 440,491.5C 440.091,488.984 440.591,487.318 441.5,486.5 Z"/></g>
<g><path style="opacity:1" fill="#0c0b09" d="M 437.5,488.5 C 437.963,491.221 438.629,493.888 439.5,496.5C 436.5,496.5 433.5,496.5 430.5,496.5C 425.269,496.444 420.269,497.111 415.5,498.5C 414.325,498.719 413.325,498.386 412.5,497.5C 416.833,489.496 421.667,481.829 427,474.5C 428.044,475.623 428.71,476.956 429,478.5C 433.518,480.509 436.351,483.842 437.5,488.5 Z"/></g>
<g><path style="opacity:1" fill="#1a1811" d="M 494.5,486.5 C 495.376,486.369 496.043,486.702 496.5,487.5C 495.215,490.021 494.548,492.687 494.5,495.5C 491.753,495.813 489.086,495.48 486.5,494.5C 489.2,491.827 491.867,489.16 494.5,486.5 Z"/></g>
<g><path style="opacity:1" fill="#1a1915" d="M 441.5,486.5 C 444.589,488.925 447.922,490.925 451.5,492.5C 451.414,493.496 451.748,494.329 452.5,495C 449.183,495.498 445.85,495.665 442.5,495.5C 442.492,492.455 442.159,489.455 441.5,486.5 Z"/></g>
<g><path style="opacity:1" fill="#110f0d" d="M 510.5,474.5 C 516.223,481.589 521.223,489.256 525.5,497.5C 524.833,497.833 524.167,498.167 523.5,498.5C 515.218,497.232 506.885,496.565 498.5,496.5C 499.662,492.234 500.829,487.9 502,483.5C 505.736,481.266 508.57,478.266 510.5,474.5 Z"/></g>
<g><path style="opacity:1" fill="#b7ae9d" d="M 343.5,465.5 C 349.537,465.126 355.203,466.126 360.5,468.5C 354.626,467.951 348.959,466.951 343.5,465.5 Z"/></g>
<g><path style="opacity:1" fill="#b3ab97" d="M 630.5,458.5 C 633.073,458.148 635.406,458.648 637.5,460C 634.321,461.461 630.988,462.295 627.5,462.5C 628.209,461.596 629.209,461.263 630.5,461.5C 630.5,460.5 630.5,459.5 630.5,458.5 Z"/></g>
<g><path style="opacity:1" fill="#847f79" d="M 647.5,458.5 C 651.605,458.234 655.605,458.734 659.5,460C 657.5,460.167 655.5,460.333 653.5,460.5C 651.048,460.461 649.048,459.794 647.5,458.5 Z"/></g>
<g><path style="opacity:1" fill="#aaa08b" d="M 331.5,455.5 C 327.081,456.972 322.414,457.638 317.5,457.5C 321.919,456.028 326.586,455.362 331.5,455.5 Z"/></g>
<g><path style="opacity:1" fill="#f2e7c6" d="M 571.5,451.5 C 575.198,451.552 578.865,451.886 582.5,452.5C 598.503,454.834 614.503,456.834 630.5,458.5C 630.5,459.5 630.5,460.5 630.5,461.5C 629.209,461.263 628.209,461.596 627.5,462.5C 594.811,465.751 562.311,470.084 530,475.5C 528.053,473.937 526.886,471.937 526.5,469.5C 526.5,468.167 526.5,466.833 526.5,465.5C 539.769,466.03 552.769,465.03 565.5,462.5C 566.833,462.5 568.167,462.5 569.5,462.5C 574.874,462.477 580.207,461.977 585.5,461C 584.643,460.311 583.977,459.478 583.5,458.5C 579.492,457.543 575.659,456.21 572,454.5C 571,454.833 570,455.167 569,455.5C 557.185,454.863 545.352,454.196 533.5,453.5C 534.981,452.52 536.315,451.353 537.5,450C 537.167,449.667 536.833,449.333 536.5,449C 539.379,448.126 542.045,448.46 544.5,450C 553.505,450.5 562.505,451 571.5,451.5 Z"/></g>
<g><path style="opacity:1" fill="#eee4c6" d="M 410.5,445.5 C 413.407,449.64 416.074,453.974 418.5,458.5C 415.582,464.675 411.915,470.342 407.5,475.5C 391.857,473.075 376.19,470.741 360.5,468.5C 355.203,466.126 349.537,465.126 343.5,465.5C 329.403,464.857 315.403,463.357 301.5,461C 300.167,460.333 300.167,459.667 301.5,459C 306.822,458.316 312.156,457.816 317.5,457.5C 322.414,457.638 327.081,456.972 331.5,455.5C 332.167,455.5 332.833,455.5 333.5,455.5C 338.75,455.698 343.75,455.031 348.5,453.5C 353.675,451.915 359.009,451.248 364.5,451.5C 372.163,451.022 379.83,450.522 387.5,450C 391.274,449.432 394.607,448.265 397.5,446.5C 401.857,446.414 406.19,446.08 410.5,445.5 Z"/></g>
<g><path style="opacity:1" fill="#1a1916" d="M 386.5,456.5 C 394.86,456.169 403.193,456.502 411.5,457.5C 413.261,459.564 413.595,461.731 412.5,464C 396.444,464.767 380.444,464.1 364.5,462C 362.285,461.83 360.285,461.163 358.5,460C 367.957,458.718 377.29,457.551 386.5,456.5 Z"/></g>
<g><path style="opacity:1" fill="#bcb4a2" d="M 348.5,453.5 C 343.75,455.031 338.75,455.698 333.5,455.5C 338.269,454.111 343.269,453.444 348.5,453.5 Z"/></g>
<g><path style="opacity:1" fill="#ddd4bb" d="M 397.5,446.5 C 394.607,448.265 391.274,449.432 387.5,450C 379.83,450.522 372.163,451.022 364.5,451.5C 375.193,448.701 386.193,447.034 397.5,446.5 Z"/></g>
<g><path style="opacity:1" fill="#4b4639" d="M 558.5,448.5 C 566.813,448.774 574.813,450.108 582.5,452.5C 578.865,451.886 575.198,451.552 571.5,451.5C 567.149,450.592 562.816,449.592 558.5,448.5 Z"/></g>
<g><path style="opacity:1" fill="#60573b" d="M 508.5,451.5 C 507.662,451.842 507.328,452.508 507.5,453.5C 505.811,451.117 504.978,448.451 505,445.5C 506.431,447.364 507.597,449.364 508.5,451.5 Z"/></g>
<g><path style="opacity:1" fill="#e8dfc4" d="M 558.5,448.5 C 562.816,449.592 567.149,450.592 571.5,451.5C 562.505,451 553.505,450.5 544.5,450C 542.045,448.46 539.379,448.126 536.5,449C 536.833,449.333 537.167,449.667 537.5,450C 536.315,451.353 534.981,452.52 533.5,453.5C 545.352,454.196 557.185,454.863 569,455.5C 570,455.167 571,454.833 572,454.5C 575.659,456.21 579.492,457.543 583.5,458.5C 583.977,459.478 584.643,460.311 585.5,461C 580.207,461.977 574.874,462.477 569.5,462.5C 572.421,461.806 575.421,460.973 578.5,460C 561.242,457.658 543.909,456.492 526.5,456.5C 525.908,459.127 525.575,461.794 525.5,464.5C 538.859,464.308 552.193,463.641 565.5,462.5C 552.769,465.03 539.769,466.03 526.5,465.5C 526.5,466.833 526.5,468.167 526.5,469.5C 523.809,465.964 521.476,462.131 519.5,458C 522.001,453.335 525.001,449.002 528.5,445C 538.386,446.482 548.386,447.648 558.5,448.5 Z"/></g>
<g><path style="opacity:1" fill="#12100e" d="M 569.5,462.5 C 568.167,462.5 566.833,462.5 565.5,462.5C 552.193,463.641 538.859,464.308 525.5,464.5C 525.575,461.794 525.908,459.127 526.5,456.5C 543.909,456.492 561.242,457.658 578.5,460C 575.421,460.973 572.421,461.806 569.5,462.5 Z"/></g>
<g><path style="opacity:1" fill="#b2ab9b" d="M 410.5,445.5 C 406.19,446.08 401.857,446.414 397.5,446.5C 401.754,444.591 406.088,444.258 410.5,445.5 Z"/></g>
<g><path style="opacity:1" fill="#e8e0c2" d="M 527.5,406.5 C 532.206,406.085 536.706,406.752 541,408.5C 540.233,410.652 538.899,412.652 537,414.5C 536.506,416.134 536.34,417.801 536.5,419.5C 530.184,430.119 523.351,440.453 516,450.5C 513.486,446.135 510.986,441.801 508.5,437.5C 508.833,437.167 509.167,436.833 509.5,436.5C 510.981,437.48 512.315,438.647 513.5,440C 514.167,440.667 514.833,440.667 515.5,440C 521.227,432.033 526.561,423.866 531.5,415.5C 532.043,415.44 532.376,415.107 532.5,414.5C 523.525,413.502 514.525,413.168 505.5,413.5C 501.316,412.834 496.982,412.167 492.5,411.5C 496.943,410.4 501.276,409.4 505.5,408.5C 512.678,407.689 520.012,407.022 527.5,406.5 Z"/></g>
<g><path style="opacity:1" fill="#e6dec3" d="M 408.5,420.5 C 413.47,426.985 418.303,433.652 423,440.5C 424.263,438.203 426.097,437.37 428.5,438C 426.877,442.21 424.877,446.21 422.5,450C 420.887,450.089 419.72,449.255 419,447.5C 413.893,439.611 409.059,431.611 404.5,423.5C 406.124,423.36 407.29,424.027 408,425.5C 409.628,424.038 409.795,422.372 408.5,420.5 Z"/></g>
<g><path style="opacity:1" fill="#080807" d="M 460.5,425.5 C 480.564,423.105 494.398,431.105 502,449.5C 504.167,478.665 490.667,492.832 461.5,492C 439.38,483.26 431.547,467.427 438,444.5C 443.25,435.41 450.75,429.077 460.5,425.5 Z"/></g>
<g><path style="opacity:1" fill="#6c674f" d="M 494.5,429.5 C 494.833,429.5 495.167,429.5 495.5,429.5C 497.416,430.665 498.249,432.332 498,434.5C 496.331,433.154 495.164,431.487 494.5,429.5 Z"/></g>
<g><path style="opacity:1" fill="#201e1a" d="M 448.5,416.5 C 449.807,418.223 449.807,420.057 448.5,422C 449.793,422.49 451.127,422.657 452.5,422.5C 448.562,425.935 444.729,429.602 441,433.5C 440.333,432.5 440.333,431.5 441,430.5C 443.956,426.92 446.123,422.92 447.5,418.5C 448.338,418.158 448.672,417.492 448.5,416.5 Z"/></g>
<g><path style="opacity:1" fill="#847e6e" d="M 441.5,417.5 C 443.607,416.532 445.941,416.198 448.5,416.5C 448.672,417.492 448.338,418.158 447.5,418.5C 445.735,417.539 443.735,417.205 441.5,417.5 Z"/></g>
<g><path style="opacity:1" fill="#464237" d="M 413.5,413.5 C 444.167,413.5 474.833,413.5 505.5,413.5C 514.525,413.168 523.525,413.502 532.5,414.5C 532.376,415.107 532.043,415.44 531.5,415.5C 492.167,414.833 452.833,414.167 413.5,413.5 Z"/></g>
<g><path style="opacity:1" fill="#d7cdb5" d="M 491.5,405.5 C 492.379,407.23 493.712,408.563 495.5,409.5C 498.783,408.673 502.116,408.34 505.5,408.5C 501.276,409.4 496.943,410.4 492.5,411.5C 496.982,412.167 501.316,412.834 505.5,413.5C 474.833,413.5 444.167,413.5 413.5,413.5C 410.615,413.194 407.948,413.527 405.5,414.5C 404.957,414.44 404.624,414.107 404.5,413.5C 433.5,412.833 462.5,412.167 491.5,411.5C 491.08,409.674 491.08,407.674 491.5,405.5 Z"/></g>
<g><path style="opacity:1" fill="#f5eacc" d="M 491.5,405.5 C 491.08,407.674 491.08,409.674 491.5,411.5C 462.5,412.167 433.5,412.833 404.5,413.5C 404.624,414.107 404.957,414.44 405.5,414.5C 406.529,416.517 407.529,418.517 408.5,420.5C 409.795,422.372 409.628,424.038 408,425.5C 407.29,424.027 406.124,423.36 404.5,423.5C 401.421,420.743 399.088,417.41 397.5,413.5C 396.62,411.611 396.62,409.611 397.5,407.5C 396.448,407.649 395.448,407.483 394.5,407C 398.362,406.087 402.028,406.42 405.5,408C 412.492,408.5 419.492,408.666 426.5,408.5C 432.484,409.074 438.484,409.407 444.5,409.5C 445.496,409.586 446.329,409.252 447,408.5C 447.787,409.711 448.454,410.711 449,411.5C 450.722,411.389 450.888,410.889 449.5,410C 454.489,409.501 459.489,409.334 464.5,409.5C 466.167,409.5 467.833,409.5 469.5,409.5C 474.985,410.652 480.651,410.818 486.5,410C 487.218,408.013 488.218,406.179 489.5,404.5C 490.183,404.863 490.85,405.196 491.5,405.5 Z"/></g>
<g><path style="opacity:1" fill="#e1d9c0" d="M 536.5,419.5 C 536.34,417.801 536.506,416.134 537,414.5C 538.899,412.652 540.233,410.652 541,408.5C 536.706,406.752 532.206,406.085 527.5,406.5C 531.684,405.834 536.018,405.167 540.5,404.5C 551.511,388.478 563.011,372.811 575,357.5C 575.667,358.5 575.667,359.5 575,360.5C 563.138,380.915 550.305,400.581 536.5,419.5 Z"/></g>
<g><path style="opacity:1" fill="#e2dcc3" d="M 426.5,408.5 C 419.492,408.666 412.492,408.5 405.5,408C 402.028,406.42 398.362,406.087 394.5,407C 395.448,407.483 396.448,407.649 397.5,407.5C 396.62,409.611 396.62,411.611 397.5,413.5C 385.526,396.24 374.026,378.573 363,360.5C 362.251,359.365 362.417,358.365 363.5,357.5C 375.533,373.067 387.199,388.9 398.5,405C 408.011,405.925 417.345,407.092 426.5,408.5 Z"/></g>
<g><path style="opacity:1" fill="#444236" d="M 490.5,383.5 C 491.924,385.515 492.59,387.848 492.5,390.5C 491.076,388.485 490.41,386.152 490.5,383.5 Z"/></g>
<g><path style="opacity:1" fill="#eae2c4" d="M 491.5,405.5 C 490.85,405.196 490.183,404.863 489.5,404.5C 488.218,406.179 487.218,408.013 486.5,410C 480.651,410.818 474.985,410.652 469.5,409.5C 473.234,409.677 476.901,409.344 480.5,408.5C 482.604,408.799 484.604,408.466 486.5,407.5C 486.376,406.893 486.043,406.56 485.5,406.5C 480.421,395.342 475.087,384.342 469.5,373.5C 463.084,383.995 457.418,394.995 452.5,406.5C 452.709,407.086 453.043,407.586 453.5,408C 457.356,408.177 461.023,408.677 464.5,409.5C 459.489,409.334 454.489,409.501 449.5,410C 450.888,410.889 450.722,411.389 449,411.5C 448.454,410.711 447.787,409.711 447,408.5C 446.329,409.252 445.496,409.586 444.5,409.5C 451.606,391.292 459.772,373.625 469,356.5C 472.121,360.722 474.788,365.389 477,370.5C 482.398,381.959 487.232,393.626 491.5,405.5 Z"/></g>
<g><path style="opacity:1" fill="#5f605c" d="M 485.5,406.5 C 486.043,406.56 486.376,406.893 486.5,407.5C 484.604,408.466 482.604,408.799 480.5,408.5C 482.167,407.833 483.833,407.167 485.5,406.5 Z"/></g>
<g><path style="opacity:1" fill="#0e0d0c" d="M 485.5,406.5 C 483.833,407.167 482.167,407.833 480.5,408.5C 476.901,409.344 473.234,409.677 469.5,409.5C 467.833,409.5 466.167,409.5 464.5,409.5C 461.023,408.677 457.356,408.177 453.5,408C 453.043,407.586 452.709,407.086 452.5,406.5C 457.418,394.995 463.084,383.995 469.5,373.5C 475.087,384.342 480.421,395.342 485.5,406.5 Z"/></g>
<g><path style="opacity:1" fill="#434038" d="M 161.5,504.5 C 162.581,507.627 163.247,510.96 163.5,514.5C 162.778,514.082 162.278,513.416 162,512.5C 161.503,509.854 161.336,507.187 161.5,504.5 Z"/></g>
<g><path style="opacity:1" fill="#888470" d="M 749.5,505.5 C 749.435,508.428 748.768,511.095 747.5,513.5C 747.294,510.505 747.96,507.838 749.5,505.5 Z"/></g>
<g><path style="opacity:1" fill="#4f4c40" d="M 772.5,506.5 C 772.884,510.489 772.217,514.155 770.5,517.5C 770.808,513.64 771.475,509.974 772.5,506.5 Z"/></g>
<g><path style="opacity:1" fill="#0a0907" d="M 467.5,515.5 C 470.14,515.954 472.473,517.121 474.5,519C 478.641,522.797 482.308,526.797 485.5,531C 480.205,556.55 474.705,582.05 469,607.5C 463.134,582.163 457.634,556.663 452.5,531C 452.667,530.167 452.833,529.333 453,528.5C 458.028,524.301 462.861,519.968 467.5,515.5 Z"/></g>
<g><path style="opacity:1" fill="#81806d" d="M 764.5,527.5 C 764.59,530.152 763.924,532.485 762.5,534.5C 762.41,531.848 763.076,529.515 764.5,527.5 Z"/></g>
<g><path style="opacity:1" fill="#8c8d79" d="M 170.5,530.5 C 171.924,532.515 172.59,534.848 172.5,537.5C 171.076,535.485 170.41,533.152 170.5,530.5 Z"/></g>
<g><path style="opacity:1" fill="#a19f8f" d="M 738.5,533.5 C 738.277,537.162 737.277,540.495 735.5,543.5C 735.723,539.838 736.723,536.505 738.5,533.5 Z"/></g>
<g><path style="opacity:1" fill="#4c493c" d="M 191.5,537.5 C 193.277,540.505 194.277,543.838 194.5,547.5C 192.723,544.495 191.723,541.162 191.5,537.5 Z"/></g>
<g><path style="opacity:1" fill="#888274" d="M 196.5,534.5 C 197.924,536.515 198.59,538.848 198.5,541.5C 197.076,539.485 196.41,537.152 196.5,534.5 Z"/></g>
<g><path style="opacity:1" fill="#7f8072" d="M 172.5,538.5 C 173.924,540.515 174.59,542.848 174.5,545.5C 173.076,543.485 172.41,541.152 172.5,538.5 Z"/></g>
<g><path style="opacity:1" fill="#8f8c80" d="M 735.5,543.5 C 734.771,548.351 733.438,553.018 731.5,557.5C 731.167,557.5 730.833,557.5 730.5,557.5C 731.796,552.607 733.462,547.94 735.5,543.5 Z"/></g>
<g><path style="opacity:1" fill="#918c7d" d="M 199.5,545.5 C 201.871,550.941 203.871,556.608 205.5,562.5C 202.342,557.367 200.342,551.7 199.5,545.5 Z"/></g>
<g><path style="opacity:1" fill="#95957d" d="M 174.5,546.5 C 175.924,548.515 176.59,550.848 176.5,553.5C 175.076,551.485 174.41,549.152 174.5,546.5 Z"/></g>
<g><path style="opacity:1" fill="#5e5649" d="M 194.5,547.5 C 196.277,550.505 197.277,553.838 197.5,557.5C 195.723,554.495 194.723,551.162 194.5,547.5 Z"/></g>
<g><path style="opacity:1" fill="#908d76" d="M 759.5,547.5 C 759.59,550.152 758.924,552.485 757.5,554.5C 757.41,551.848 758.076,549.515 759.5,547.5 Z"/></g>
<g><path style="opacity:1" fill="#585247" d="M 171.5,552.5 C 173.277,555.505 174.277,558.838 174.5,562.5C 172.723,559.495 171.723,556.162 171.5,552.5 Z"/></g>
<g><path style="opacity:1" fill="#d5cfb9" d="M 382.5,535.5 C 382.773,537.451 382.107,538.951 380.5,540C 381.066,540.995 381.733,541.828 382.5,542.5C 377.301,551.212 371.468,559.545 365,567.5C 364.833,567 364.667,566.5 364.5,566C 369.89,555.374 375.89,545.208 382.5,535.5 Z"/></g>
<g><path style="opacity:1" fill="#cdc8ba" d="M 563.5,549.5 C 567.748,555.329 570.915,561.663 573,568.5C 568.412,563.637 564.579,558.304 561.5,552.5C 563.048,552.179 563.715,551.179 563.5,549.5 Z"/></g>
<g><path style="opacity:1" fill="#8f8a72" d="M 757.5,554.5 C 757.59,557.152 756.924,559.485 755.5,561.5C 755.41,558.848 756.076,556.515 757.5,554.5 Z"/></g>
<g><path style="opacity:1" fill="#646057" d="M 761.5,556.5 C 761.59,559.152 760.924,561.485 759.5,563.5C 759.41,560.848 760.076,558.515 761.5,556.5 Z"/></g>
<g><path style="opacity:1" fill="#d9cfb8" d="M 730.5,557.5 C 730.833,557.5 731.167,557.5 731.5,557.5C 731.369,558.239 731.536,558.906 732,559.5C 733.092,557.069 734.259,557.069 735.5,559.5C 734.738,563.785 733.405,567.785 731.5,571.5C 731.5,569.5 731.5,567.5 731.5,565.5C 730.5,565.5 729.5,565.5 728.5,565.5C 728.715,567.179 728.048,568.179 726.5,568.5C 727.835,564.828 729.168,561.162 730.5,557.5 Z"/></g>
<g><path style="opacity:1" fill="#4c473d" d="M 174.5,562.5 C 176.074,564.102 176.741,566.102 176.5,568.5C 174.926,566.898 174.259,564.898 174.5,562.5 Z"/></g>
<g><path style="opacity:1" fill="#464338" d="M 935.5,-0.5 C 936.167,-0.5 936.833,-0.5 937.5,-0.5C 937.5,312.167 937.5,624.833 937.5,937.5C 936.833,937.5 936.167,937.5 935.5,937.5C 935.5,624.833 935.5,312.167 935.5,-0.5 Z"/></g>
<g><path style="opacity:1" fill="#292823" d="M 731.5,573.5 C 731.26,579.313 728.927,583.98 724.5,587.5C 726.341,582.484 728.674,577.818 731.5,573.5 Z"/></g>
<g><path style="opacity:1" fill="#e5dcc2" d="M 731.5,571.5 C 731.5,572.167 731.5,572.833 731.5,573.5C 728.674,577.818 726.341,582.484 724.5,587.5C 699.34,641.654 661.007,683.654 609.5,713.5C 608.965,711.554 607.632,710.554 605.5,710.5C 662.195,677.112 702.528,629.778 726.5,568.5C 728.048,568.179 728.715,567.179 728.5,565.5C 729.5,565.5 730.5,565.5 731.5,565.5C 731.5,567.5 731.5,569.5 731.5,571.5 Z"/></g>
<g><path style="opacity:1" fill="#ded7bf" d="M 429.5,552.5 C 430.497,552.47 431.164,552.97 431.5,554C 444.33,592.992 456.664,632.159 468.5,671.5C 471.095,664.882 473.595,658.215 476,651.5C 485.523,618.742 495.356,586.075 505.5,553.5C 506.675,553.281 507.675,553.614 508.5,554.5C 505.832,564.18 503.165,573.846 500.5,583.5C 490.965,616.936 481.132,650.269 471,683.5C 470.167,684.5 469.333,685.5 468.5,686.5C 466.218,682.394 464.385,678.061 463,673.5C 457.613,653.003 451.613,632.669 445,612.5C 439.825,592.467 434.659,572.467 429.5,552.5 Z"/></g>
<g><path style="opacity:1" fill="#2a2820" d="M 457.5,582.5 C 459.323,588.61 460.657,594.943 461.5,601.5C 459.564,599.885 458.564,597.718 458.5,595C 457.877,590.853 457.544,586.686 457.5,582.5 Z"/></g>
<g><path style="opacity:1" fill="#e4dcc1" d="M 225.5,311.5 C 226.281,313.652 226.614,315.652 226.5,317.5C 196.388,369.638 183.722,425.971 188.5,486.5C 188.444,491.731 189.111,496.731 190.5,501.5C 192.611,512.501 194.611,523.501 196.5,534.5C 196.41,537.152 197.076,539.485 198.5,541.5C 199.434,542.568 199.768,543.901 199.5,545.5C 200.342,551.7 202.342,557.367 205.5,562.5C 214.435,586.705 226.269,609.371 241,630.5C 306.776,716.619 393.943,754.619 502.5,744.5C 506.489,744.884 510.155,744.217 513.5,742.5C 545.928,736.802 576.595,726.136 605.5,710.5C 607.632,710.554 608.965,711.554 609.5,713.5C 551.481,746.935 489.147,758.769 422.5,749C 323.42,729.903 251.92,675.069 208,584.5C 204.573,575.372 201.073,566.372 197.5,557.5C 197.277,553.838 196.277,550.505 194.5,547.5C 194.277,543.838 193.277,540.505 191.5,537.5C 182.145,497.858 180.145,457.858 185.5,417.5C 187.217,414.155 187.884,410.489 187.5,406.5C 188.365,400.706 189.699,395.039 191.5,389.5C 192.924,387.485 193.59,385.152 193.5,382.5C 193.56,379.659 194.226,376.993 195.5,374.5C 197.99,371.374 199.323,367.708 199.5,363.5C 206.07,345.027 214.736,327.694 225.5,311.5 Z"/></g>
<g><path style="opacity:1" fill="#757369" d="M 467.5,648.5 C 468.5,648.5 469.5,648.5 470.5,648.5C 470.867,652.967 470.367,657.3 469,661.5C 467.805,657.249 467.305,652.915 467.5,648.5 Z"/></g>
<g><path style="opacity:1" fill="#e1dac3" d="M 751.5,572.5 C 751.149,574.869 750.982,577.203 751,579.5C 751.77,578.402 752.603,578.402 753.5,579.5C 705.616,694.858 619.616,760.692 495.5,777C 490.845,777.499 486.179,777.666 481.5,777.5C 486.689,776.714 491.689,775.714 496.5,774.5C 492.555,773.509 488.555,773.176 484.5,773.5C 496.66,771.897 508.993,770.397 521.5,769C 633.404,744.587 710.07,679.087 751.5,572.5 Z"/></g>
<g><path style="opacity:1" fill="#e1dbc2" d="M 168.5,520.5 C 169.434,523.656 170.101,526.989 170.5,530.5C 170.41,533.152 171.076,535.485 172.5,537.5C 172.5,537.833 172.5,538.167 172.5,538.5C 172.41,541.152 173.076,543.485 174.5,545.5C 174.5,545.833 174.5,546.167 174.5,546.5C 174.41,549.152 175.076,551.485 176.5,553.5C 190.781,599.071 213.614,639.738 245,675.5C 307.69,741.91 384.857,774.577 476.5,773.5C 467.325,774.167 457.991,774.833 448.5,775.5C 449.602,776.176 450.602,776.842 451.5,777.5C 390.473,774.55 335.473,755.05 286.5,719C 234.895,679.589 198.229,629.423 176.5,568.5C 176.741,566.102 176.074,564.102 174.5,562.5C 174.277,558.838 173.277,555.505 171.5,552.5C 169.376,543.881 167.376,535.214 165.5,526.5C 166.5,526.5 167.5,526.5 168.5,526.5C 168.5,524.5 168.5,522.5 168.5,520.5 Z"/></g>
<g><path style="opacity:1" fill="#979287" d="M 513.5,742.5 C 510.155,744.217 506.489,744.884 502.5,744.5C 505.974,743.475 509.64,742.808 513.5,742.5 Z"/></g>
<g><path style="opacity:1" fill="#e8e0c5" d="M 476.5,773.5 C 479.167,773.5 481.833,773.5 484.5,773.5C 488.555,773.176 492.555,773.509 496.5,774.5C 491.689,775.714 486.689,776.714 481.5,777.5C 471.5,778.833 461.5,778.833 451.5,777.5C 450.602,776.842 449.602,776.176 448.5,775.5C 457.991,774.833 467.325,774.167 476.5,773.5 Z"/></g>
<g><path style="opacity:1" fill="#e5e0c7" d="M 69.5,910.5 C 72.7001,911.788 76.0334,911.788 79.5,910.5C 80.2975,910.957 80.6309,911.624 80.5,912.5C 71.1509,917.601 62.9843,915.934 56,907.5C 53.8159,904.134 52.4825,900.467 52,896.5C 49.6278,898.703 47.4611,901.037 45.5,903.5C 44.448,903.649 43.448,903.483 42.5,903C 45.0805,898.666 48.2471,894.833 52,891.5C 52.6877,890.668 52.521,890.002 51.5,889.5C 46.8001,894.173 42.1335,898.84 37.5,903.5C 37.1667,903.5 36.8333,903.5 36.5,903.5C 35.1667,903.5 34.5,902.833 34.5,901.5C 37.8333,897.833 41.1667,894.167 44.5,890.5C 45.2891,890.217 45.9558,889.717 46.5,889C 44.1902,888.503 41.8568,888.337 39.5,888.5C 27.4218,884.017 22.2552,875.351 24,862.5C 24.8747,859.785 26.7081,858.452 29.5,858.5C 26.1392,875.955 33.1392,884.122 50.5,883C 56.5666,879.625 61.9,875.292 66.5,870C 67.448,869.517 68.448,869.351 69.5,869.5C 69.3921,871.783 68.5588,873.783 67,875.5C 53.5812,886.163 53.0812,897.329 65.5,909C 66.745,909.791 68.0783,910.291 69.5,910.5 Z"/></g>
<g><path style="opacity:1" fill="#e4ddc5" d="M 895.5,888.5 C 893.473,888.338 891.473,888.505 889.5,889C 890.066,889.995 890.733,890.828 891.5,891.5C 895.303,895.508 899.303,899.175 903.5,902.5C 903.095,903.55 902.429,903.55 901.5,902.5C 900.417,903.365 900.251,904.365 901,905.5C 902.302,904.915 903.469,904.249 904.5,903.5C 906.757,906.424 909.424,909.09 912.5,911.5C 911.5,913.167 910.167,914.5 908.5,915.5C 904.1,911.27 900.266,906.603 897,901.5C 895.008,900.335 893.175,899.002 891.5,897.5C 888.842,894.197 886.175,890.864 883.5,887.5C 883.556,892.296 885.889,895.963 890.5,898.5C 891.942,899.82 892.608,901.486 892.5,903.5C 889.03,902.712 886.363,900.712 884.5,897.5C 881.789,905.712 876.455,911.545 868.5,915C 863.771,915.996 859.271,915.496 855,913.5C 854.219,912.056 854.386,910.723 855.5,909.5C 872.814,911.685 880.314,904.019 878,886.5C 874.398,881.062 870.232,876.062 865.5,871.5C 866.348,869.717 867.681,869.217 869.5,870C 873.909,875.08 878.909,879.414 884.5,883C 897.874,885.322 905.541,879.822 907.5,866.5C 907.247,864.142 906.914,861.808 906.5,859.5C 909.48,859.241 911.313,860.574 912,863.5C 913.51,876.479 908.01,884.812 895.5,888.5 Z"/></g>
<g><path style="opacity:1" fill="#545041" d="M 39.5,888.5 C 41.8568,888.337 44.1902,888.503 46.5,889C 45.9558,889.717 45.2891,890.217 44.5,890.5C 42.8333,889.833 41.1667,889.167 39.5,888.5 Z"/></g>
<g><path style="opacity:1" fill="#5d5946" d="M 895.5,888.5 C 893.781,889.022 892.448,890.022 891.5,891.5C 890.733,890.828 890.066,889.995 889.5,889C 891.473,888.505 893.473,888.338 895.5,888.5 Z"/></g>
<g><path style="opacity:1" fill="#3a3328" d="M 891.5,897.5 C 890.833,897.5 890.5,897.833 890.5,898.5C 885.889,895.963 883.556,892.296 883.5,887.5C 886.175,890.864 888.842,894.197 891.5,897.5 Z"/></g>
<g><path style="opacity:1" fill="#1d1b15" d="M 45.5,903.5 C 42.8073,907.702 40.974,907.369 40,902.5C 39.3292,903.252 38.4959,903.586 37.5,903.5C 42.1335,898.84 46.8001,894.173 51.5,889.5C 52.521,890.002 52.6877,890.668 52,891.5C 48.2471,894.833 45.0805,898.666 42.5,903C 43.448,903.483 44.448,903.649 45.5,903.5 Z"/></g>
<g><path style="opacity:1" fill="#827d70" d="M 31.5,902.5 C 32.209,901.596 33.209,901.263 34.5,901.5C 34.5,902.833 35.1667,903.5 36.5,903.5C 36.7373,904.791 36.404,905.791 35.5,906.5C 35.1193,905.069 34.1193,904.236 32.5,904C 33.7119,902.893 33.3786,902.393 31.5,902.5 Z"/></g>
<g><path style="opacity:1" fill="#807864" d="M 903.5,902.5 C 904.167,902.5 904.5,902.833 904.5,903.5C 903.469,904.249 902.302,904.915 901,905.5C 900.251,904.365 900.417,903.365 901.5,902.5C 902.429,903.55 903.095,903.55 903.5,902.5 Z"/></g>
<g><path style="opacity:1" fill="#e2dbc8" d="M 31.5,902.5 C 33.3786,902.393 33.7119,902.893 32.5,904C 34.1193,904.236 35.1193,905.069 35.5,906.5C 32.8712,909.631 30.0379,912.631 27,915.5C 25.437,914.275 24.2703,912.775 23.5,911C 26.4048,908.266 29.0715,905.432 31.5,902.5 Z"/></g>
<g><path style="opacity:1" fill="#b7b1a5" d="M 80.5,912.5 C 80.6309,911.624 80.2975,910.957 79.5,910.5C 76.0334,911.788 72.7001,911.788 69.5,910.5C 73.5191,910.354 77.5191,910.021 81.5,909.5C 81.7373,910.791 81.404,911.791 80.5,912.5 Z"/></g>
</svg>
