<?xml version="1.0" encoding="UTF-8"?>
<!DOCTYPE svg PUBLIC "-//W3C//DTD SVG 1.1//EN" "http://www.w3.org/Graphics/SVG/1.1/DTD/svg11.dtd">
<svg xmlns="http://www.w3.org/2000/svg" version="1.1" width="736px" height="736px" style="shape-rendering:geometricPrecision; text-rendering:geometricPrecision; image-rendering:optimizeQuality; fill-rule:evenodd; clip-rule:evenodd" xmlns:xlink="http://www.w3.org/1999/xlink">
<g><path style="opacity:1" fill="#fdfefe" d="M -0.5,-0.5 C 244.833,-0.5 490.167,-0.5 735.5,-0.5C 735.5,244.833 735.5,490.167 735.5,735.5C 490.167,735.5 244.833,735.5 -0.5,735.5C -0.5,490.167 -0.5,244.833 -0.5,-0.5 Z"/></g>
<g><path style="opacity:1" fill="#bbbcbb" d="M 461.5,151.5 C 461.635,145.37 460.801,139.37 459,133.5C 458.333,126.167 458.333,118.833 459,111.5C 458.661,123.262 460.161,134.762 463.5,146C 463.607,148.221 462.94,150.054 461.5,151.5 Z"/></g>
<g><path style="opacity:1" fill="#fcfcfc" d="M 316.5,159.5 C 318.93,163.106 320.596,167.106 321.5,171.5C 320.795,176.294 319.128,180.628 316.5,184.5C 314.393,185.3 312.226,185.967 310,186.5C 304.268,185.034 298.434,184.368 292.5,184.5C 286.065,184.578 279.732,185.078 273.5,186C 264.17,180.718 262.004,173.218 267,163.5C 268.5,162 270,160.5 271.5,159C 278.167,159.156 284.834,159.656 291.5,160.5C 297.732,160.774 303.732,159.774 309.5,157.5C 311.932,157.886 314.266,158.553 316.5,159.5 Z"/></g>
<g><path style="opacity:1" fill="#6d8793" d="M 371.5,121.5 C 374.5,121.5 377.5,121.5 380.5,121.5C 380.335,124.518 380.502,127.518 381,130.5C 382.913,132.187 385.08,132.687 387.5,132C 389.221,129.381 391.054,126.881 393,124.5C 395.155,125.579 397.155,126.913 399,128.5C 398.169,131.177 397.002,133.843 395.5,136.5C 395.876,138.383 396.876,139.883 398.5,141C 401.87,139.338 405.537,138.171 409.5,137.5C 409.586,139.677 410.253,141.677 411.5,143.5C 409.063,144.803 406.896,146.47 405,148.5C 404.333,149.833 404.333,151.167 405,152.5C 408.727,152.959 412.561,152.959 416.5,152.5C 416.5,154.833 416.5,157.167 416.5,159.5C 411.832,159.14 409.165,161.14 408.5,165.5C 411.167,165.833 413.833,166.167 416.5,166.5C 416.5,168.833 416.5,171.167 416.5,173.5C 412.253,172.751 408.087,172.751 404,173.5C 403.333,175.167 403.333,176.833 404,178.5C 407.981,181.313 411.481,184.647 414.5,188.5C 412.877,190.791 411.043,192.791 409,194.5C 402.198,189.698 396.032,184.198 390.5,178C 401.796,165.172 401.129,153.172 388.5,142C 374.188,135.437 363.022,138.937 355,152.5C 354.333,157.833 354.333,163.167 355,168.5C 356.97,171.968 359.136,175.301 361.5,178.5C 356.375,183.124 351.375,187.957 346.5,193C 345.241,193.982 343.908,194.315 342.5,194C 340.457,192.292 338.79,190.292 337.5,188C 341.981,184.686 345.981,180.852 349.5,176.5C 348.833,175.5 348.167,174.5 347.5,173.5C 343.795,172.901 340.128,172.568 336.5,172.5C 335.652,170.591 335.318,168.591 335.5,166.5C 340.175,167.661 342.841,165.994 343.5,161.5C 336.845,161.896 334.512,159.063 336.5,153C 338.991,152.741 341.491,152.907 344,153.5C 347.708,153.392 348.875,151.725 347.5,148.5C 345.424,146.712 343.257,145.046 341,143.5C 341.052,140.728 342.219,138.394 344.5,136.5C 347.592,138.886 350.925,140.386 354.5,141C 357.247,136.536 356.58,132.536 352.5,129C 354.699,127.303 357.032,125.803 359.5,124.5C 361.369,127.052 363.369,129.552 365.5,132C 367.567,132.536 369.401,132.036 371,130.5C 371.498,127.518 371.665,124.518 371.5,121.5 Z"/></g>
<g><path style="opacity:1" fill="#88a2ae" d="M 369.5,141.5 C 390.942,140.391 398.442,150.057 392,170.5C 378.327,183.833 366.994,182.166 358,165.5C 356.224,154.72 360.058,146.72 369.5,141.5 Z"/></g>
<g><path style="opacity:1" fill="#54778a" d="M 372.5,149.5 C 382.557,149.052 386.723,153.718 385,163.5C 378.427,170.506 372.427,170.172 367,162.5C 365.831,156.853 367.665,152.519 372.5,149.5 Z"/></g>
<g><path style="opacity:1" fill="#bbbbbd" d="M 316.5,159.5 C 320.485,162.304 322.485,166.137 322.5,171C 322.895,176.674 320.895,181.174 316.5,184.5C 319.128,180.628 320.795,176.294 321.5,171.5C 320.596,167.106 318.93,163.106 316.5,159.5 Z"/></g>
<g><path style="opacity:1" fill="#547586" d="M 546.5,134.5 C 558.038,133.339 561.038,137.672 555.5,147.5C 559.41,151.76 559.41,156.093 555.5,160.5C 559.393,164.423 559.393,168.423 555.5,172.5C 557.439,176.052 559.439,179.552 561.5,183C 563.305,183.972 564.972,185.139 566.5,186.5C 567.719,185.737 568.719,184.737 569.5,183.5C 570.484,186.428 570.817,189.428 570.5,192.5C 569.127,192.657 567.793,192.49 566.5,192C 563.916,188.549 560.582,186.383 556.5,185.5C 556.83,188.157 557.163,190.824 557.5,193.5C 557.635,195.808 556.969,197.808 555.5,199.5C 559.702,204.328 559.368,208.828 554.5,213C 544.122,213.927 541.122,209.594 545.5,200C 542.877,195.485 542.877,190.985 545.5,186.5C 544.277,185.386 542.944,185.219 541.5,186C 538.576,188.952 535.242,191.119 531.5,192.5C 531.335,189.482 531.502,186.482 532,183.5C 532.739,184.574 533.739,185.241 535,185.5C 537.39,184.722 539.557,183.555 541.5,182C 542.939,178.754 544.272,175.421 545.5,172C 542.872,168.132 542.872,164.299 545.5,160.5C 542.51,155.961 542.844,151.794 546.5,148C 542.624,143.574 542.624,139.074 546.5,134.5 Z"/></g>
<g><path style="opacity:1" fill="#bababb" d="M 461.5,151.5 C 461.586,152.496 461.252,153.329 460.5,154C 466.434,154.657 472.267,154.157 478,152.5C 486.488,153.825 490.988,158.825 491.5,167.5C 491.72,174.563 488.72,179.73 482.5,183C 475.829,182.84 469.162,182.34 462.5,181.5C 462.425,186.952 461.591,192.286 460,197.5C 459.501,203.157 459.334,208.824 459.5,214.5C 458.515,210.366 458.182,206.032 458.5,201.5C 459.297,194.848 459.964,188.181 460.5,181.5C 454.115,181.917 447.782,182.417 441.5,183C 430.907,176.745 428.741,168.245 435,157.5C 436.5,156 438,154.5 439.5,153C 444.776,152.327 449.942,152.827 455,154.5C 457.712,154.609 459.878,153.609 461.5,151.5 Z"/></g>
<g><path style="opacity:1" fill="#fcfdfd" d="M 441.5,153.5 C 448.055,155.137 454.722,156.137 461.5,156.5C 468.758,155.027 476.092,154.527 483.5,155C 489.759,160.997 491.259,168.164 488,176.5C 485.711,179.968 482.544,181.968 478.5,182.5C 474.596,181.191 470.596,180.191 466.5,179.5C 462.833,180.833 459.167,180.833 455.5,179.5C 451.224,180.991 446.891,181.825 442.5,182C 436.667,179.165 433.667,174.498 433.5,168C 433.451,161.593 436.117,156.76 441.5,153.5 Z"/></g>
<g><path style="opacity:1" fill="#4e7185" d="M 581.5,173.5 C 598.736,174.638 603.569,182.972 596,198.5C 586.446,206.13 578.446,204.797 572,194.5C 569.51,184.761 572.677,177.761 581.5,173.5 Z"/></g>
<g><path style="opacity:1" fill="#4d7184" d="M 511.5,173.5 C 527.59,173.436 533.09,181.102 528,196.5C 522.403,203.801 515.569,205.301 507.5,201C 500.568,194.178 499.734,186.678 505,178.5C 507.326,176.934 509.492,175.268 511.5,173.5 Z"/></g>
<g><path style="opacity:1" fill="#babcbe" d="M 316.5,159.5 C 314.266,158.553 311.932,157.886 309.5,157.5C 303.732,159.774 297.732,160.774 291.5,160.5C 284.834,159.656 278.167,159.156 271.5,159C 270,160.5 268.5,162 267,163.5C 262.004,173.218 264.17,180.718 273.5,186C 279.732,185.078 286.065,184.578 292.5,184.5C 298.434,184.368 304.268,185.034 310,186.5C 312.226,185.967 314.393,185.3 316.5,184.5C 316.047,185.458 315.381,186.292 314.5,187C 309.05,187.755 303.717,187.255 298.5,185.5C 296.626,185.39 295.126,186.056 294,187.5C 293.411,196.251 293.911,204.918 295.5,213.5C 305.847,213.399 316.18,213.732 326.5,214.5C 337.838,213.332 349.171,212.499 360.5,212C 363.565,212.787 364.898,214.787 364.5,218C 363.729,221.48 363.062,224.98 362.5,228.5C 364.317,235.794 369.15,239.794 377,240.5C 391.728,238.325 395.895,230.492 389.5,217C 389.643,214.849 390.643,213.182 392.5,212C 397.823,211.501 403.156,211.334 408.5,211.5C 412.647,212.325 416.981,212.825 421.5,213C 417.179,213.499 412.846,213.666 408.5,213.5C 403.156,213.334 397.823,213.501 392.5,214C 391.892,215.231 391.559,216.564 391.5,218C 397.015,232.128 392.182,239.961 377,241.5C 362.013,239.694 357.513,231.86 363.5,218C 363.561,216.289 362.894,214.956 361.5,214C 358.167,213.333 354.833,213.333 351.5,214C 350.748,214.671 350.414,215.504 350.5,216.5C 348.742,216.123 347.075,215.456 345.5,214.5C 343.199,215.325 340.865,215.992 338.5,216.5C 331.151,215.824 320.485,215.824 306.5,216.5C 302.702,215.517 298.702,215.183 294.5,215.5C 294.748,225.612 292.915,235.278 289,244.5C 286.598,246.693 283.764,248.026 280.5,248.5C 266.979,241.758 259.312,245.758 257.5,260.5C 257.76,268.432 261.76,273.432 269.5,275.5C 284.029,268.742 291.362,273.075 291.5,288.5C 291.288,282.238 288.622,277.405 283.5,274C 277.263,275.294 270.93,275.961 264.5,276C 253.379,266.602 252.712,256.602 262.5,246C 267.468,242.768 272.468,242.768 277.5,246C 282.625,247.569 286.459,246.069 289,241.5C 290.156,237.877 291.156,234.211 292,230.5C 292.583,215.824 292.416,201.157 291.5,186.5C 284.448,187.115 277.448,187.115 270.5,186.5C 259.576,176.408 259.91,166.575 271.5,157C 277.202,156.341 282.702,157.175 288,159.5C 288.833,159.167 289.667,158.833 290.5,158.5C 292.022,154.318 292.855,149.985 293,145.5C 293.167,133.819 293.667,122.152 294.5,110.5C 295.434,126.493 295.434,142.493 294.5,158.5C 299.605,158.57 304.605,157.904 309.5,156.5C 312.501,156.172 314.834,157.172 316.5,159.5 Z"/></g>
<g><path style="opacity:1" fill="#4d7083" d="M 152.5,129.5 C 184.587,129.015 216.587,129.515 248.5,131C 250.049,132.214 251.215,133.714 252,135.5C 252.981,160.921 252.647,186.254 251,211.5C 249.457,213.378 247.624,214.878 245.5,216C 214.081,216.985 182.748,216.651 151.5,215C 149.622,213.457 148.122,211.624 147,209.5C 146.333,184.833 146.333,160.167 147,135.5C 149.04,133.63 150.873,131.63 152.5,129.5 Z"/></g>
<g><path style="opacity:1" fill="#eff6f8" d="M 220.5,152.5 C 222.471,151.177 224.471,149.844 226.5,148.5C 226.833,149 227.167,149.5 227.5,150C 226.711,151.626 225.711,153.126 224.5,154.5C 233.228,168.993 232.061,182.66 221,195.5C 211.076,203.538 199.91,205.705 187.5,202C 167.163,189.99 162.996,173.823 175,153.5C 187.218,141.409 201.051,139.242 216.5,147C 218.464,148.451 219.797,150.284 220.5,152.5 Z"/></g>
<g><path style="opacity:1" fill="#4c6f82" d="M 220.5,152.5 C 213.092,159.385 205.426,166.052 197.5,172.5C 194.5,170.667 191.5,168.833 188.5,167C 187.365,166.251 186.365,166.417 185.5,167.5C 188.528,171.361 191.361,175.361 194,179.5C 195.062,180.899 196.395,181.899 198,182.5C 206.296,174.535 214.296,166.202 222,157.5C 227.432,169.473 226.432,180.806 219,191.5C 208.022,200.705 196.189,201.871 183.5,195C 171.152,183.652 169.319,170.818 178,156.5C 185.739,147.143 195.573,143.977 207.5,147C 211.578,149.614 215.911,151.447 220.5,152.5 Z"/></g>
<g><path style="opacity:1" fill="#f9fbfb" d="M 408.5,213.5 C 408.935,215.297 408.935,217.297 408.5,219.5C 403.137,228.892 398.304,238.559 394,248.5C 393.169,256.888 393.503,265.221 395,273.5C 400.003,284.178 405.503,294.511 411.5,304.5C 410.306,305.777 408.64,306.444 406.5,306.5C 402.804,306.217 399.137,305.717 395.5,305C 393.714,304.215 392.214,303.049 391,301.5C 392.493,295.65 393.16,289.65 393,283.5C 391.195,279.857 388.362,277.524 384.5,276.5C 376.571,272.974 369.404,274.307 363,280.5C 361.128,282.438 360.295,284.771 360.5,287.5C 361.482,291.477 362.482,295.477 363.5,299.5C 363.069,301.766 361.736,303.266 359.5,304C 337.535,307.035 315.535,307.202 293.5,304.5C 293.666,299.489 293.499,294.489 293,289.5C 292.5,301.829 292.333,314.162 292.5,326.5C 291.505,314.011 291.171,301.344 291.5,288.5C 291.362,273.075 284.029,268.742 269.5,275.5C 261.76,273.432 257.76,268.432 257.5,260.5C 259.312,245.758 266.979,241.758 280.5,248.5C 283.764,248.026 286.598,246.693 289,244.5C 292.915,235.278 294.748,225.612 294.5,215.5C 298.702,215.183 302.702,215.517 306.5,216.5C 305.833,216.5 305.5,216.833 305.5,217.5C 305.5,218.167 305.5,218.833 305.5,219.5C 305.5,220.5 305.5,221.5 305.5,222.5C 307.972,222.058 310.472,221.725 313,221.5C 318.218,222.263 323.385,223.263 328.5,224.5C 331.698,224.378 334.698,223.545 337.5,222C 341.89,221.228 346.223,221.394 350.5,222.5C 351.386,221.675 351.719,220.675 351.5,219.5C 351.443,218.391 351.11,217.391 350.5,216.5C 350.414,215.504 350.748,214.671 351.5,214C 354.833,213.333 358.167,213.333 361.5,214C 362.894,214.956 363.561,216.289 363.5,218C 357.513,231.86 362.013,239.694 377,241.5C 392.182,239.961 397.015,232.128 391.5,218C 391.559,216.564 391.892,215.231 392.5,214C 397.823,213.501 403.156,213.334 408.5,213.5 Z"/></g>
<g><path style="opacity:1" fill="#8aa2ad" d="M 85.5,170.5 C 93.109,176.936 100.609,183.603 108,190.5C 108.595,191.899 108.428,193.232 107.5,194.5C 109.289,195.623 109.622,196.956 108.5,198.5C 107.5,197.833 106.5,197.167 105.5,196.5C 104.628,198.466 104.795,200.466 106,202.5C 106.667,210.167 106.667,217.833 106,225.5C 96.9162,233.581 88.0829,242.081 79.5,251C 69.8161,251.832 60.1495,251.665 50.5,250.5C 56.3185,244.181 62.3185,238.014 68.5,232C 69.448,231.517 70.448,231.351 71.5,231.5C 71.1667,233.5 70.8333,235.5 70.5,237.5C 71.552,237.649 72.552,237.483 73.5,237C 79.3644,230.801 85.5311,224.968 92,219.5C 92.8313,212.144 92.6646,204.811 91.5,197.5C 89.6508,198.593 87.9842,199.926 86.5,201.5C 85.5014,191.188 85.1681,180.855 85.5,170.5 Z"/></g>
<g><path style="opacity:1" fill="#a2b8c4" d="M 350.5,216.5 C 351.11,217.391 351.443,218.391 351.5,219.5C 348.781,219.603 346.115,219.269 343.5,218.5C 338.537,219.991 333.537,221.324 328.5,222.5C 325.08,221.626 321.747,220.459 318.5,219C 314.08,218.232 309.747,218.398 305.5,219.5C 305.5,218.833 305.5,218.167 305.5,217.5C 308.508,217.299 311.508,216.966 314.5,216.5C 319.319,217.665 324.152,218.665 329,219.5C 332.713,219.895 335.88,218.895 338.5,216.5C 340.865,215.992 343.199,215.325 345.5,214.5C 347.075,215.456 348.742,216.123 350.5,216.5 Z"/></g>
<g><path style="opacity:1" fill="#8296a4" d="M 338.5,216.5 C 335.88,218.895 332.713,219.895 329,219.5C 324.152,218.665 319.319,217.665 314.5,216.5C 311.508,216.966 308.508,217.299 305.5,217.5C 305.5,216.833 305.833,216.5 306.5,216.5C 320.485,215.824 331.151,215.824 338.5,216.5 Z"/></g>
<g><path style="opacity:1" fill="#4a6e82" d="M 427.5,262.5 C 427.688,265.206 428.688,267.539 430.5,269.5C 436.252,276.477 443.085,277.477 451,272.5C 452.982,272.99 454.649,273.99 456,275.5C 457.448,285.061 457.948,294.727 457.5,304.5C 442.167,304.5 426.833,304.5 411.5,304.5C 405.503,294.511 400.003,284.178 395,273.5C 393.503,265.221 393.169,256.888 394,248.5C 398.304,238.559 403.137,228.892 408.5,219.5C 409.837,218.685 410.837,217.518 411.5,216C 426.741,215.176 441.908,215.343 457,216.5C 457.792,225.369 457.625,234.202 456.5,243C 455.663,244.587 454.33,245.42 452.5,245.5C 448.35,244.394 444.184,243.394 440,242.5C 433.652,243.178 429.319,246.511 427,252.5C 426.192,256.027 426.359,259.36 427.5,262.5 Z"/></g>
<g><path style="opacity:1" fill="#7b9098" d="M 351.5,219.5 C 351.719,220.675 351.386,221.675 350.5,222.5C 346.223,221.394 341.89,221.228 337.5,222C 334.698,223.545 331.698,224.378 328.5,224.5C 323.385,223.263 318.218,222.263 313,221.5C 310.472,221.725 307.972,222.058 305.5,222.5C 305.5,221.5 305.5,220.5 305.5,219.5C 309.747,218.398 314.08,218.232 318.5,219C 321.747,220.459 325.08,221.626 328.5,222.5C 333.537,221.324 338.537,219.991 343.5,218.5C 346.115,219.269 348.781,219.603 351.5,219.5 Z"/></g>
<g><path style="opacity:1" fill="#527385" d="M 509.5,272.5 C 494.5,272.5 479.5,272.5 464.5,272.5C 464.5,269.167 464.5,265.833 464.5,262.5C 476.167,262.5 487.833,262.5 499.5,262.5C 499.5,250.833 499.5,239.167 499.5,227.5C 487.011,226.505 474.344,226.171 461.5,226.5C 461.5,231.5 461.5,236.5 461.5,241.5C 460.833,242.833 459.833,243.833 458.5,244.5C 459.387,235.199 459.721,225.866 459.5,216.5C 476.167,216.5 492.833,216.5 509.5,216.5C 509.5,235.167 509.5,253.833 509.5,272.5 Z"/></g>
<g><path style="opacity:1" fill="#c6d3dd" d="M 305.5,227.5 C 305.5,228.5 305.5,229.5 305.5,230.5C 307.972,230.058 310.472,229.725 313,229.5C 317.732,230.947 322.565,231.947 327.5,232.5C 332.785,232.014 337.952,231.014 343,229.5C 345.848,229.798 348.681,230.131 351.5,230.5C 350.5,231.167 349.5,231.833 348.5,232.5C 344.486,232.334 340.486,232.501 336.5,233C 334.072,234.443 331.405,235.276 328.5,235.5C 323.47,233.657 318.303,232.324 313,231.5C 308.722,230.868 306.222,232.534 305.5,236.5C 304.167,233.5 304.167,230.5 305.5,227.5 Z"/></g>
<g><path style="opacity:1" fill="#8599a1" d="M 351.5,230.5 C 348.681,230.131 345.848,229.798 343,229.5C 337.952,231.014 332.785,232.014 327.5,232.5C 322.565,231.947 317.732,230.947 313,229.5C 310.472,229.725 307.972,230.058 305.5,230.5C 305.5,229.5 305.5,228.5 305.5,227.5C 307.949,226.958 310.449,226.625 313,226.5C 318.1,227.091 323.1,228.091 328,229.5C 332.759,228.27 337.592,227.27 342.5,226.5C 345.817,227.053 349.15,227.386 352.5,227.5C 352.737,228.791 352.404,229.791 351.5,230.5 Z"/></g>
<g><path style="opacity:1" fill="#c4cdd3" d="M 458.5,201.5 C 458.182,206.032 458.515,210.366 459.5,214.5C 476.325,215.497 493.325,215.83 510.5,215.5C 510.83,234.674 510.497,253.674 509.5,272.5C 509.5,253.833 509.5,235.167 509.5,216.5C 492.833,216.5 476.167,216.5 459.5,216.5C 459.721,225.866 459.387,235.199 458.5,244.5C 457.217,246.815 455.217,248.148 452.5,248.5C 437.036,241.057 428.703,245.723 427.5,262.5C 426.359,259.36 426.192,256.027 427,252.5C 429.319,246.511 433.652,243.178 440,242.5C 444.184,243.394 448.35,244.394 452.5,245.5C 454.33,245.42 455.663,244.587 456.5,243C 457.625,234.202 457.792,225.369 457,216.5C 441.908,215.343 426.741,215.176 411.5,216C 410.837,217.518 409.837,218.685 408.5,219.5C 408.935,217.297 408.935,215.297 408.5,213.5C 412.846,213.666 417.179,213.499 421.5,213C 416.981,212.825 412.647,212.325 408.5,211.5C 424.884,211.158 441.218,211.825 457.5,213.5C 457.183,209.298 457.517,205.298 458.5,201.5 Z"/></g>
<g><path style="opacity:1" fill="#bbcad1" d="M 499.5,227.5 C 487.167,227.5 474.833,227.5 462.5,227.5C 462.819,232.363 462.486,237.03 461.5,241.5C 461.5,236.5 461.5,231.5 461.5,226.5C 474.344,226.171 487.011,226.505 499.5,227.5 Z"/></g>
<g><path style="opacity:1" fill="#8498a1" d="M 348.5,232.5 C 350.042,233.141 351.376,234.141 352.5,235.5C 351.667,235.833 350.833,236.167 350,236.5C 344.638,234.932 339.471,235.432 334.5,238C 330.833,238.667 327.167,238.667 323.5,238C 317.672,234.299 311.672,233.799 305.5,236.5C 306.222,232.534 308.722,230.868 313,231.5C 318.303,232.324 323.47,233.657 328.5,235.5C 331.405,235.276 334.072,234.443 336.5,233C 340.486,232.501 344.486,232.334 348.5,232.5 Z"/></g>
<g><path style="opacity:1" fill="#88a0ac" d="M 468.5,232.5 C 476.833,232.5 485.167,232.5 493.5,232.5C 493.5,240.833 493.5,249.167 493.5,257.5C 485.167,257.5 476.833,257.5 468.5,257.5C 468.5,249.167 468.5,240.833 468.5,232.5 Z"/></g>
<g><path style="opacity:1" fill="#8aa2ac" d="M 612.5,273.5 C 609.5,273.5 606.5,273.5 603.5,273.5C 603.5,269.833 603.5,266.167 603.5,262.5C 598.833,262.5 594.167,262.5 589.5,262.5C 589.5,258.167 589.5,253.833 589.5,249.5C 594.167,249.5 598.833,249.5 603.5,249.5C 603.5,246.833 603.5,244.167 603.5,241.5C 606.391,240.597 609.391,240.264 612.5,240.5C 612.5,243.833 612.5,247.167 612.5,250.5C 616.833,250.5 621.167,250.5 625.5,250.5C 625.5,254.5 625.5,258.5 625.5,262.5C 621.167,262.5 616.833,262.5 612.5,262.5C 612.5,266.167 612.5,269.833 612.5,273.5 Z"/></g>
<g><path style="opacity:1" fill="#81989d" d="M 351.5,243.5 C 347.524,242.669 343.524,242.503 339.5,243C 332.106,247.514 324.773,247.514 317.5,243C 313.955,242.283 310.455,242.45 307,243.5C 305.97,243.164 305.47,242.497 305.5,241.5C 307.679,240.074 310.179,239.408 313,239.5C 318.019,240.516 323.019,241.516 328,242.5C 332.981,241.516 337.981,240.516 343,239.5C 346.544,239.404 349.711,240.404 352.5,242.5C 352.376,243.107 352.043,243.44 351.5,243.5 Z"/></g>
<g><path style="opacity:1" fill="#88a1ad" d="M 195.5,241.5 C 215,241.53 222.167,250.864 217,269.5C 215,272.833 212.333,275.5 209,277.5C 207.599,283.863 210.099,287.697 216.5,289C 222.841,290.839 229.174,292.672 235.5,294.5C 235.5,297.833 235.5,301.167 235.5,304.5C 212.167,304.5 188.833,304.5 165.5,304.5C 165.335,301.482 165.502,298.482 166,295.5C 173.216,292.092 180.716,289.259 188.5,287C 192.124,284.839 193.291,281.672 192,277.5C 181.355,270.219 179.022,260.886 185,249.5C 187.975,245.952 191.475,243.286 195.5,241.5 Z"/></g>
<g><path style="opacity:1" fill="#c7d4dd" d="M 305.5,241.5 C 305.47,242.497 305.97,243.164 307,243.5C 310.455,242.45 313.955,242.283 317.5,243C 324.773,247.514 332.106,247.514 339.5,243C 343.524,242.503 347.524,242.669 351.5,243.5C 351.082,244.222 350.416,244.722 349.5,245C 350.056,245.383 350.389,245.883 350.5,246.5C 348.275,245.076 345.775,244.409 343,244.5C 338,245.833 333,247.167 328,248.5C 323.12,246.989 318.12,245.656 313,244.5C 310.747,244.631 308.581,245.131 306.5,246C 305.748,246.671 305.414,247.504 305.5,248.5C 304.167,246.167 304.167,243.833 305.5,241.5 Z"/></g>
<g><path style="opacity:1" fill="#b5c3c8" d="M 468.5,232.5 C 476.984,231.507 485.651,231.174 494.5,231.5C 494.5,240.5 494.5,249.5 494.5,258.5C 485.651,258.826 476.984,258.493 468.5,257.5C 476.833,257.5 485.167,257.5 493.5,257.5C 493.5,249.167 493.5,240.833 493.5,232.5C 485.167,232.5 476.833,232.5 468.5,232.5 Z"/></g>
<g><path style="opacity:1" fill="#879ca5" d="M 350.5,246.5 C 352.048,246.821 352.715,247.821 352.5,249.5C 349.175,249.169 345.841,248.836 342.5,248.5C 337.605,249.187 332.772,250.187 328,251.5C 323.127,250.314 318.294,248.98 313.5,247.5C 311.05,247.761 308.717,248.428 306.5,249.5C 305.893,249.376 305.56,249.043 305.5,248.5C 305.414,247.504 305.748,246.671 306.5,246C 308.581,245.131 310.747,244.631 313,244.5C 318.12,245.656 323.12,246.989 328,248.5C 333,247.167 338,245.833 343,244.5C 345.775,244.409 348.275,245.076 350.5,246.5 Z"/></g>
<g><path style="opacity:1" fill="#b0c1c8" d="M 351.5,256.5 C 350.833,257.167 350.167,257.833 349.5,258.5C 347.304,258.41 345.137,258.077 343,257.5C 337.924,259.027 332.757,260.027 327.5,260.5C 324.546,260.709 321.879,260.042 319.5,258.5C 324.075,258.378 328.742,258.212 333.5,258C 339.259,255.325 345.259,254.825 351.5,256.5 Z"/></g>
<g><path style="opacity:1" fill="#8499a2" d="M 351.5,256.5 C 345.259,254.825 339.259,255.325 333.5,258C 328.742,258.212 324.075,258.378 319.5,258.5C 321.879,260.042 324.546,260.709 327.5,260.5C 332.757,260.027 337.924,259.027 343,257.5C 345.137,258.077 347.304,258.41 349.5,258.5C 350.091,259.151 350.757,259.818 351.5,260.5C 350.833,260.833 350.167,261.167 349.5,261.5C 347.364,260.985 345.197,260.651 343,260.5C 338.248,261.804 333.415,262.804 328.5,263.5C 323.46,262.709 318.46,261.709 313.5,260.5C 310.824,260.837 308.157,261.17 305.5,261.5C 305.5,258.833 305.5,256.167 305.5,253.5C 307.972,253.058 310.472,252.725 313,252.5C 318.24,253.27 323.407,254.27 328.5,255.5C 333.677,254.609 338.843,253.609 344,252.5C 346.637,252.657 349.137,253.323 351.5,254.5C 352.773,255.257 352.773,255.923 351.5,256.5 Z"/></g>
<g><path style="opacity:1" fill="#d6dee3" d="M 612.5,273.5 C 612.5,269.833 612.5,266.167 612.5,262.5C 616.833,262.5 621.167,262.5 625.5,262.5C 625.5,258.5 625.5,254.5 625.5,250.5C 621.167,250.5 616.833,250.5 612.5,250.5C 612.5,247.167 612.5,243.833 612.5,240.5C 609.391,240.264 606.391,240.597 603.5,241.5C 606.337,239.598 609.671,238.931 613.5,239.5C 613.5,242.833 613.5,246.167 613.5,249.5C 617.833,249.5 622.167,249.5 626.5,249.5C 626.5,254.167 626.5,258.833 626.5,263.5C 622.692,263.163 619.026,263.663 615.5,265C 614.563,267.949 613.563,270.783 612.5,273.5 Z"/></g>
<g><path style="opacity:1" fill="#fcfcfc" d="M 563.5,272.5 C 565.299,277.336 564.466,281.67 561,285.5C 559.76,291.848 562.26,296.014 568.5,298C 587.34,301.796 606.34,302.629 625.5,300.5C 623.737,316.286 624.404,331.953 627.5,347.5C 621.907,347.601 616.407,346.934 611,345.5C 608.091,345.731 605.591,346.897 603.5,349C 601.527,349.495 599.527,349.662 597.5,349.5C 593.431,342.368 589.098,335.368 584.5,328.5C 585.237,326.695 586.237,325.029 587.5,323.5C 582.31,319.142 576.977,314.976 571.5,311C 570.5,310.333 569.5,310.333 568.5,311C 565.967,314.528 563.134,317.694 560,320.5C 553.528,319.351 547.028,318.351 540.5,317.5C 538.555,313.264 535.888,309.597 532.5,306.5C 526.577,310.711 520.744,315.045 515,319.5C 515.92,322.146 517.42,324.646 519.5,327C 518.552,327.483 517.552,327.649 516.5,327.5C 496.912,323.255 480.245,328.255 466.5,342.5C 465.5,342.5 464.5,342.5 463.5,342.5C 459.558,328.394 458.558,314.061 460.5,299.5C 483.263,302.643 505.929,302.143 528.5,298C 534.868,296.648 537.702,292.814 537,286.5C 530.892,277.188 533.058,270.355 543.5,266C 551.622,263.903 558.288,266.07 563.5,272.5 Z"/></g>
<g><path style="opacity:1" fill="#c5d3dd" d="M 305.5,267.5 C 305.62,268.586 306.287,269.253 307.5,269.5C 309.833,268.833 312.167,268.167 314.5,267.5C 319.944,270.865 325.944,272.699 332.5,273C 331.127,273.875 329.627,274.375 328,274.5C 323.09,272.856 318.09,271.522 313,270.5C 310.04,270.782 307.207,271.449 304.5,272.5C 304.216,270.585 304.549,268.919 305.5,267.5 Z"/></g>
<g><path style="opacity:1" fill="#c3ced8" d="M 351.5,267.5 C 352.8,270.024 352.8,272.691 351.5,275.5C 350.893,275.376 350.56,275.043 350.5,274.5C 351.738,274.19 351.738,273.69 350.5,273C 349.167,272.333 347.833,271.667 346.5,271C 342.039,270.594 337.706,270.928 333.5,272C 337.706,268.616 342.372,267.782 347.5,269.5C 349.333,269.415 350.666,268.748 351.5,267.5 Z"/></g>
<g><path style="opacity:1" fill="#5f7b86" d="M 144.5,290.5 C 146.18,285.39 146.847,280.057 146.5,274.5C 144.5,274.5 142.5,274.5 140.5,274.5C 140.759,270.932 142.759,269.599 146.5,270.5C 146.204,267.737 145.204,265.237 143.5,263C 142.5,262.333 141.5,262.333 140.5,263C 137.611,268.975 135.278,268.808 133.5,262.5C 129.793,262.998 127.459,265.164 126.5,269C 127.137,270.713 128.137,270.879 129.5,269.5C 131.333,270.052 133,270.885 134.5,272C 132.331,274.203 129.665,275.036 126.5,274.5C 126.335,277.85 126.502,281.183 127,284.5C 130.083,286.949 130.249,289.616 127.5,292.5C 124.167,293.167 122.167,291.833 121.5,288.5C 124.104,283.891 125.104,278.891 124.5,273.5C 120.92,272.923 117.92,273.923 115.5,276.5C 111.574,273.91 111.574,271.577 115.5,269.5C 117.029,269.529 118.196,270.196 119,271.5C 123.579,269.21 126.079,265.377 126.5,260C 126.231,258.393 125.397,257.226 124,256.5C 122.488,251.344 124.154,249.677 129,251.5C 129.044,254.475 128.877,257.475 128.5,260.5C 131.23,260.527 133.73,259.86 136,258.5C 139.166,259.422 142.333,259.922 145.5,260C 145.659,257.159 145.659,254.325 145.5,251.5C 148.481,249.737 150.481,250.403 151.5,253.5C 149.801,255.706 148.801,258.206 148.5,261C 148.891,263.953 149.725,266.787 151,269.5C 151.804,270.804 152.971,271.471 154.5,271.5C 156.577,270.063 158.91,269.396 161.5,269.5C 162.133,275.542 159.966,276.876 155,273.5C 153.234,274.233 151.401,274.567 149.5,274.5C 149.549,277.374 149.216,280.208 148.5,283C 149.047,285.217 150.047,287.217 151.5,289C 149.731,292.863 147.397,293.363 144.5,290.5 Z"/></g>
<g><path style="opacity:1" fill="#e2ebf0" d="M 144.5,290.5 C 143.566,289.432 143.232,288.099 143.5,286.5C 139.167,286.5 134.833,286.5 130.5,286.5C 130.808,288.924 130.474,291.257 129.5,293.5C 128.817,293.137 128.15,292.804 127.5,292.5C 130.249,289.616 130.083,286.949 127,284.5C 126.502,281.183 126.335,277.85 126.5,274.5C 129.665,275.036 132.331,274.203 134.5,272C 133,270.885 131.333,270.052 129.5,269.5C 128.137,270.879 127.137,270.713 126.5,269C 127.459,265.164 129.793,262.998 133.5,262.5C 135.278,268.808 137.611,268.975 140.5,263C 141.5,262.333 142.5,262.333 143.5,263C 145.204,265.237 146.204,267.737 146.5,270.5C 142.759,269.599 140.759,270.932 140.5,274.5C 142.5,274.5 144.5,274.5 146.5,274.5C 146.847,280.057 146.18,285.39 144.5,290.5 Z"/></g>
<g><path style="opacity:1" fill="#899ea7" d="M 351.5,267.5 C 350.666,268.748 349.333,269.415 347.5,269.5C 342.372,267.782 337.706,268.616 333.5,272C 337.706,270.928 342.039,270.594 346.5,271C 347.833,271.667 349.167,272.333 350.5,273C 351.738,273.69 351.738,274.19 350.5,274.5C 346.554,273.473 342.554,273.306 338.5,274C 331.561,278.492 324.561,278.492 317.5,274C 313.798,273.319 310.131,273.485 306.5,274.5C 305.287,274.253 304.62,273.586 304.5,272.5C 307.207,271.449 310.04,270.782 313,270.5C 318.09,271.522 323.09,272.856 328,274.5C 329.627,274.375 331.127,273.875 332.5,273C 325.944,272.699 319.944,270.865 314.5,267.5C 312.167,268.167 309.833,268.833 307.5,269.5C 306.287,269.253 305.62,268.586 305.5,267.5C 307.75,265.631 310.416,264.631 313.5,264.5C 317.941,266.373 322.608,267.707 327.5,268.5C 332.56,267.65 337.56,266.65 342.5,265.5C 345.785,265.447 348.785,266.114 351.5,267.5 Z"/></g>
<g><path style="opacity:1" fill="#bacbd4" d="M 687.5,243.5 C 688.495,255.655 688.829,267.989 688.5,280.5C 682.167,280.5 675.833,280.5 669.5,280.5C 675.31,279.51 681.31,279.177 687.5,279.5C 687.5,267.5 687.5,255.5 687.5,243.5 Z"/></g>
<g><path style="opacity:1" fill="#a5b7c3" d="M 637.5,243.5 C 637.5,255.5 637.5,267.5 637.5,279.5C 643.833,279.5 650.167,279.5 656.5,279.5C 656.5,283.5 656.5,287.5 656.5,291.5C 660.5,291.5 664.5,291.5 668.5,291.5C 668.185,287.629 668.518,283.962 669.5,280.5C 669.5,284.5 669.5,288.5 669.5,292.5C 664.833,292.5 660.167,292.5 655.5,292.5C 655.5,288.5 655.5,284.5 655.5,280.5C 649.167,280.5 642.833,280.5 636.5,280.5C 636.171,267.989 636.505,255.655 637.5,243.5 Z"/></g>
<g><path style="opacity:1" fill="#517486" d="M 687.5,243.5 C 687.5,255.5 687.5,267.5 687.5,279.5C 681.31,279.177 675.31,279.51 669.5,280.5C 668.518,283.962 668.185,287.629 668.5,291.5C 664.5,291.5 660.5,291.5 656.5,291.5C 656.5,287.5 656.5,283.5 656.5,279.5C 650.167,279.5 643.833,279.5 637.5,279.5C 637.5,267.5 637.5,255.5 637.5,243.5C 643.833,243.5 650.167,243.5 656.5,243.5C 656.5,239.5 656.5,235.5 656.5,231.5C 660.833,231.5 665.167,231.5 669.5,231.5C 669.5,235.5 669.5,239.5 669.5,243.5C 675.5,243.5 681.5,243.5 687.5,243.5 Z"/></g>
<g><path style="opacity:1" fill="#f9fcfd" d="M 649.5,251.5 C 658.173,251.334 666.84,251.5 675.5,252C 680.745,256.517 681.912,262.017 679,268.5C 677.786,270.049 676.286,271.215 674.5,272C 666.5,272.667 658.5,272.667 650.5,272C 642.919,265.516 642.585,258.683 649.5,251.5 Z"/></g>
<g><path style="opacity:1" fill="#67818c" d="M 135.5,275.5 C 139.707,275.694 141.04,277.694 139.5,281.5C 140.687,282.519 141.687,283.686 142.5,285C 139.167,285.667 135.833,285.667 132.5,285C 133.649,283.396 133.649,281.73 132.5,280C 133.315,278.357 134.315,276.857 135.5,275.5 Z"/></g>
<g><path style="opacity:1" fill="#9ca9ad" d="M 86.5,274.5 C 87.8734,274.343 89.2068,274.51 90.5,275C 87.9364,277.276 88.2697,279.276 91.5,281C 93.4727,281.495 95.4727,281.662 97.5,281.5C 97.5,283.167 97.5,284.833 97.5,286.5C 103.831,286.11 106.164,289.11 104.5,295.5C 102.181,294.833 99.8473,294.666 97.5,295C 94.7426,298.547 91.7426,301.88 88.5,305C 89.1667,305.667 89.8333,306.333 90.5,307C 88.7412,307.798 87.0745,307.631 85.5,306.5C 86.3094,304.929 86.6427,303.262 86.5,301.5C 83.6354,301.055 81.1354,301.722 79,303.5C 78.5,303 78,302.5 77.5,302C 80.8064,300.463 81.3064,298.296 79,295.5C 76.6194,294.565 74.1194,294.232 71.5,294.5C 71.5,291.833 71.5,289.167 71.5,286.5C 73.8333,286.5 76.1667,286.5 78.5,286.5C 78.5228,284.4 77.8561,282.567 76.5,281C 76.8333,280.5 77.1667,280 77.5,279.5C 78.6652,280.491 79.8319,281.491 81,282.5C 85.4101,281.592 87.2434,278.925 86.5,274.5 Z"/></g>
<g><path style="opacity:1" fill="#8a9ba7" d="M 351.5,282.5 C 348.31,282.441 345.143,282.107 342,281.5C 337.558,282.967 333.058,284.301 328.5,285.5C 324.675,284.836 321.008,283.669 317.5,282C 313.463,281.393 309.463,281.56 305.5,282.5C 305.5,281.5 305.5,280.5 305.5,279.5C 307.835,278.335 310.335,277.668 313,277.5C 317.891,278.7 322.724,280.033 327.5,281.5C 332.705,280.314 337.871,278.981 343,277.5C 345.881,278.028 348.715,278.694 351.5,279.5C 351.5,280.5 351.5,281.5 351.5,282.5 Z"/></g>
<g><path style="opacity:1" fill="#baccd7" d="M 305.5,279.5 C 305.5,280.5 305.5,281.5 305.5,282.5C 309.463,281.56 313.463,281.393 317.5,282C 321.008,283.669 324.675,284.836 328.5,285.5C 333.058,284.301 337.558,282.967 342,281.5C 345.143,282.107 348.31,282.441 351.5,282.5C 351.5,283.5 351.5,284.5 351.5,285.5C 348.22,284.631 344.887,283.964 341.5,283.5C 337.238,284.797 332.905,285.797 328.5,286.5C 323.585,285.804 318.752,284.804 314,283.5C 311.277,283.411 308.777,284.077 306.5,285.5C 306.624,286.107 306.957,286.44 307.5,286.5C 306.528,287.751 305.861,287.418 305.5,285.5C 304.418,283.327 304.418,281.327 305.5,279.5 Z"/></g>
<g><path style="opacity:1" fill="#839ca5" d="M 351.5,285.5 C 351.53,286.497 351.03,287.164 350,287.5C 345.876,286.428 341.71,286.262 337.5,287C 331.195,290.257 324.862,290.257 318.5,287C 314.848,286.501 311.182,286.335 307.5,286.5C 306.957,286.44 306.624,286.107 306.5,285.5C 308.777,284.077 311.277,283.411 314,283.5C 318.752,284.804 323.585,285.804 328.5,286.5C 332.905,285.797 337.238,284.797 341.5,283.5C 344.887,283.964 348.22,284.631 351.5,285.5 Z"/></g>
<g><path style="opacity:1" fill="#edf4f6" d="M 84.5,282.5 C 93.7113,281.542 97.5446,285.542 96,294.5C 90.0574,301.502 84.7241,301.169 80,293.5C 79.3333,291.5 79.3333,289.5 80,287.5C 81.3657,285.638 82.8657,283.972 84.5,282.5 Z"/></g>
<g><path style="opacity:1" fill="#95a2a3" d="M 87.5,288.5 C 88.5,288.5 89.5,288.5 90.5,288.5C 90.5,290.167 90.5,291.833 90.5,293.5C 89.5,293.5 88.5,293.5 87.5,293.5C 87.5,291.833 87.5,290.167 87.5,288.5 Z"/></g>
<g><path style="opacity:1" fill="#bdc0c3" d="M 563.5,272.5 C 558.288,266.07 551.622,263.903 543.5,266C 533.058,270.355 530.892,277.188 537,286.5C 537.702,292.814 534.868,296.648 528.5,298C 505.929,302.143 483.263,302.643 460.5,299.5C 458.558,314.061 459.558,328.394 463.5,342.5C 464.5,342.5 465.5,342.5 466.5,342.5C 464.154,345.871 461.821,349.204 459.5,352.5C 459.67,351.178 459.337,350.011 458.5,349C 452.847,347.845 447.18,346.678 441.5,345.5C 439.342,345.921 437.342,346.421 435.5,347C 437.297,344.768 439.63,343.602 442.5,343.5C 446.644,344.604 450.811,345.604 455,346.5C 457.255,346.39 458.922,345.39 460,343.5C 458.786,331.279 458.286,318.946 458.5,306.5C 438.18,307.566 417.847,307.732 397.5,307C 392.123,306.956 389.456,304.29 389.5,299C 391.286,293.977 391.786,288.81 391,283.5C 389.306,280.642 387.139,278.309 384.5,276.5C 388.362,277.524 391.195,279.857 393,283.5C 393.16,289.65 392.493,295.65 391,301.5C 392.214,303.049 393.714,304.215 395.5,305C 399.137,305.717 402.804,306.217 406.5,306.5C 408.64,306.444 410.306,305.777 411.5,304.5C 426.833,304.5 442.167,304.5 457.5,304.5C 457.948,294.727 457.448,285.061 456,275.5C 454.649,273.99 452.982,272.99 451,272.5C 443.085,277.477 436.252,276.477 430.5,269.5C 433.481,270.898 436.648,271.898 440,272.5C 451.274,267.306 458.274,270.639 461,282.5C 461.499,287.823 461.666,293.156 461.5,298.5C 483.234,300.297 504.901,299.797 526.5,297C 529.806,296.308 532.64,294.808 535,292.5C 535.667,290.833 535.667,289.167 535,287.5C 529.422,279.467 530.589,272.633 538.5,267C 548.734,260.994 557.067,262.828 563.5,272.5 Z"/></g>
<g><path style="opacity:1" fill="#b7b9ba" d="M 563.5,272.5 C 564.94,273.946 565.607,275.779 565.5,278C 564.5,281.667 563.5,285.333 562.5,289C 562.167,291.667 563.167,293.667 565.5,295C 571.4,296.761 577.4,298.095 583.5,299C 597.844,299.604 612.177,299.437 626.5,298.5C 626.101,314.89 626.768,331.223 628.5,347.5C 630.833,347.5 633.167,347.5 635.5,347.5C 635.672,348.492 635.338,349.158 634.5,349.5C 625.955,349.86 617.288,349.027 608.5,347C 607,348.5 605.5,350 604,351.5C 603.885,354.634 603.718,357.634 603.5,360.5C 601.262,357.028 599.262,353.362 597.5,349.5C 599.527,349.662 601.527,349.495 603.5,349C 605.591,346.897 608.091,345.731 611,345.5C 616.407,346.934 621.907,347.601 627.5,347.5C 624.404,331.953 623.737,316.286 625.5,300.5C 606.34,302.629 587.34,301.796 568.5,298C 562.26,296.014 559.76,291.848 561,285.5C 564.466,281.67 565.299,277.336 563.5,272.5 Z"/></g>
<g><path style="opacity:1" fill="#507184" d="M 659.5,301.5 C 661.048,301.821 661.715,302.821 661.5,304.5C 664.206,304.425 666.873,304.092 669.5,303.5C 668.972,307.21 669.972,310.377 672.5,313C 668.973,322.871 662.807,325.037 654,319.5C 649.766,311.638 651.599,305.638 659.5,301.5 Z"/></g>
<g><path style="opacity:1" fill="#8aa3af" d="M 584.5,328.5 C 579.833,328.5 575.167,328.5 570.5,328.5C 569.502,351.661 569.169,374.994 569.5,398.5C 565.436,400.801 561.103,401.968 556.5,402C 555.382,398.645 553.882,395.478 552,392.5C 550.275,391.536 548.441,390.869 546.5,390.5C 557.14,359.452 547.14,338.452 516.5,327.5C 517.552,327.649 518.552,327.483 519.5,327C 517.42,324.646 515.92,322.146 515,319.5C 520.744,315.045 526.577,310.711 532.5,306.5C 535.888,309.597 538.555,313.264 540.5,317.5C 547.028,318.351 553.528,319.351 560,320.5C 563.134,317.694 565.967,314.528 568.5,311C 569.5,310.333 570.5,310.333 571.5,311C 576.977,314.976 582.31,319.142 587.5,323.5C 586.237,325.029 585.237,326.695 584.5,328.5 Z"/></g>
<g><path style="opacity:1" fill="#8aa2ad" d="M 185.5,330.5 C 184.403,333.686 183.07,336.686 181.5,339.5C 176.36,338.512 171.026,338.179 165.5,338.5C 165.5,330.5 165.5,322.5 165.5,314.5C 188.833,314.5 212.167,314.5 235.5,314.5C 235.5,322.5 235.5,330.5 235.5,338.5C 226.475,338.832 217.475,338.498 208.5,337.5C 206.355,334.232 204.688,330.732 203.5,327C 197.5,326.333 191.5,326.333 185.5,327C 184.209,328.292 184.209,329.458 185.5,330.5 Z"/></g>
<g><path style="opacity:1" fill="#040404" d="M 516.5,327.5 C 547.14,338.452 557.14,359.452 546.5,390.5C 533.508,410.237 515.174,418.07 491.5,414C 461.264,403.838 450.597,383.338 459.5,352.5C 461.821,349.204 464.154,345.871 466.5,342.5C 480.245,328.255 496.912,323.255 516.5,327.5 Z"/></g>
<g><path style="opacity:1" fill="#020202" d="M 125.5,332.5 C 126.945,334.063 128.611,335.396 130.5,336.5C 140.086,347.8 140.92,359.8 133,372.5C 129.068,376.205 124.901,379.538 120.5,382.5C 127.51,392.529 134.51,402.529 141.5,412.5C 135.167,412.5 128.833,412.5 122.5,412.5C 116.387,403.214 110.054,394.047 103.5,385C 98.1771,384.501 92.8437,384.334 87.5,384.5C 87.5,393.833 87.5,403.167 87.5,412.5C 82.1667,412.5 76.8333,412.5 71.5,412.5C 71.5,384.5 71.5,356.5 71.5,328.5C 85.8372,328.333 100.171,328.5 114.5,329C 118.154,330.274 121.82,331.44 125.5,332.5 Z"/></g>
<g><path style="opacity:1" fill="#040404" d="M 216.5,360.5 C 217.99,364.813 219.99,368.813 222.5,372.5C 227.894,385.621 233.561,398.621 239.5,411.5C 234.025,412.489 228.358,412.822 222.5,412.5C 219.951,406.376 217.284,400.209 214.5,394C 201.154,393.167 187.821,393.334 174.5,394.5C 171.764,400.378 169.431,406.378 167.5,412.5C 161.642,412.822 155.975,412.489 150.5,411.5C 156.167,398.167 161.833,384.833 167.5,371.5C 169.406,368.017 171.072,364.35 172.5,360.5C 175.694,353.587 178.694,346.587 181.5,339.5C 183.07,336.686 184.403,333.686 185.5,330.5C 185.611,329.883 185.944,329.383 186.5,329C 191.833,328.333 197.167,328.333 202.5,329C 207.307,339.447 211.974,349.947 216.5,360.5 Z"/></g>
<g><path style="opacity:1" fill="#040404" d="M 317.5,350.5 C 317.5,349.5 317.5,348.5 317.5,347.5C 317.5,341.167 317.5,334.833 317.5,328.5C 322.833,328.5 328.167,328.5 333.5,328.5C 333.5,356.5 333.5,384.5 333.5,412.5C 328.821,412.666 324.155,412.499 319.5,412C 304.01,392.682 288.01,373.848 271.5,355.5C 270.507,364.318 270.173,373.318 270.5,382.5C 270.5,392.5 270.5,402.5 270.5,412.5C 265.167,412.5 259.833,412.5 254.5,412.5C 254.5,384.5 254.5,356.5 254.5,328.5C 259.844,328.334 265.177,328.501 270.5,329C 285.624,347.793 301.124,366.293 317,384.5C 317.5,373.172 317.667,361.838 317.5,350.5 Z"/></g>
<g><path style="opacity:1" fill="#020202" d="M 570.5,328.5 C 575.167,328.5 579.833,328.5 584.5,328.5C 589.098,335.368 593.431,342.368 597.5,349.5C 599.262,353.362 601.262,357.028 603.5,360.5C 607.445,367.77 611.778,374.77 616.5,381.5C 623.031,371.103 629.031,360.436 634.5,349.5C 635.338,349.158 635.672,348.492 635.5,347.5C 639.601,341.483 643.601,335.317 647.5,329C 652.489,328.501 657.489,328.334 662.5,328.5C 662.5,356.5 662.5,384.5 662.5,412.5C 657.5,412.5 652.5,412.5 647.5,412.5C 647.83,395.658 647.497,378.992 646.5,362.5C 645.671,361.668 644.838,362.001 644,363.5C 641.628,366.91 639.795,370.577 638.5,374.5C 636.478,376.531 634.811,378.865 633.5,381.5C 630.726,384.713 628.726,388.38 627.5,392.5C 626.5,392.833 625.833,393.5 625.5,394.5C 623.297,401.436 618.631,403.936 611.5,402C 603.279,388.384 594.946,374.884 586.5,361.5C 585.501,378.487 585.167,395.487 585.5,412.5C 580.5,412.5 575.5,412.5 570.5,412.5C 570.5,384.5 570.5,356.5 570.5,328.5 Z"/></g>
<g><path style="opacity:1" fill="#c7c7c8" d="M 130.5,336.5 C 128.611,335.396 126.945,334.063 125.5,332.5C 126.496,332.414 127.329,332.748 128,333.5C 128.602,321.821 128.435,310.154 127.5,298.5C 133.29,298.096 138.956,298.596 144.5,300C 139.511,300.499 134.511,300.666 129.5,300.5C 129.773,312.079 130.44,323.579 131.5,335C 130.944,335.383 130.611,335.883 130.5,336.5 Z"/></g>
<g><path style="opacity:1" fill="#b9bbbc" d="M 384.5,276.5 C 376.665,274.169 369.831,275.836 364,281.5C 360.788,286.133 360.788,290.8 364,295.5C 365.954,301.547 363.787,305.047 357.5,306C 336.154,309.181 314.821,309.014 293.5,305.5C 293.441,319.542 294.108,333.542 295.5,347.5C 300.755,347.531 305.922,346.864 311,345.5C 313.41,345.482 315.577,346.149 317.5,347.5C 317.5,348.5 317.5,349.5 317.5,350.5C 316.173,348.036 314.007,347.036 311,347.5C 303.936,349.302 296.769,349.802 289.5,349C 291.333,348.5 292.5,347.333 293,345.5C 293.234,339.167 293.068,332.834 292.5,326.5C 292.333,314.162 292.5,301.829 293,289.5C 293.499,294.489 293.666,299.489 293.5,304.5C 315.535,307.202 337.535,307.035 359.5,304C 361.736,303.266 363.069,301.766 363.5,299.5C 362.482,295.477 361.482,291.477 360.5,287.5C 360.295,284.771 361.128,282.438 363,280.5C 369.404,274.307 376.571,272.974 384.5,276.5 Z"/></g>
<g><path style="opacity:1" fill="#8497a1" d="M 306.5,289.5 C 310.182,289.335 313.848,289.501 317.5,290C 320.611,291.722 323.944,292.555 327.5,292.5C 332.415,291.804 337.248,290.804 342,289.5C 345.167,289.901 348.334,290.234 351.5,290.5C 351.5,291.5 351.5,292.5 351.5,293.5C 347.524,292.669 343.524,292.503 339.5,293C 335.702,294.877 331.702,296.044 327.5,296.5C 322.384,295.105 317.384,293.438 312.5,291.5C 310.311,291.594 308.311,292.261 306.5,293.5C 305.374,292.192 305.374,290.858 306.5,289.5 Z"/></g>
<g><path style="opacity:1" fill="#fbfbfc" d="M 111.5,343.5 C 120.837,346.845 123.67,353.178 120,362.5C 119.004,364.66 117.504,366.327 115.5,367.5C 114.21,366.942 113.377,365.942 113,364.5C 111.777,358.621 112.611,353.121 115.5,348C 115.167,347.833 114.833,347.667 114.5,347.5C 113.081,349.336 111.914,351.336 111,353.5C 110.685,358.838 110.852,364.172 111.5,369.5C 109.5,369.5 107.5,369.5 105.5,369.5C 99.8333,369.5 94.1667,369.5 88.5,369.5C 88.5,360.833 88.5,352.167 88.5,343.5C 96.1667,343.5 103.833,343.5 111.5,343.5 Z"/></g>
<g><path style="opacity:1" fill="#f8f9fa" d="M 514.5,342.5 C 509.025,343.489 503.358,343.822 497.5,343.5C 497.5,350.167 497.5,356.833 497.5,363.5C 502.5,363.5 507.5,363.5 512.5,363.5C 513.732,367.804 515.399,371.97 517.5,376C 515.419,379.491 513.085,382.825 510.5,386C 514.425,389.112 518.425,391.946 522.5,394.5C 506.407,404.062 491.907,402.062 479,388.5C 476.682,385.531 475.182,382.198 474.5,378.5C 474.5,377.167 474.5,375.833 474.5,374.5C 483.418,373.407 488.084,368.241 488.5,359C 488.438,354.83 487.438,350.997 485.5,347.5C 494.059,340.287 503.725,338.62 514.5,342.5 Z"/></g>
<g><path style="opacity:1" fill="#8aa3ad" d="M 514.5,342.5 C 532.016,350.544 537.849,363.878 532,382.5C 530.017,387.48 526.851,391.48 522.5,394.5C 518.425,391.946 514.425,389.112 510.5,386C 513.085,382.825 515.419,379.491 517.5,376C 515.399,371.97 513.732,367.804 512.5,363.5C 507.5,363.5 502.5,363.5 497.5,363.5C 497.5,356.833 497.5,350.167 497.5,343.5C 503.358,343.822 509.025,343.489 514.5,342.5 Z"/></g>
<g><path style="opacity:1" fill="#f8f8f8" d="M 634.5,349.5 C 629.031,360.436 623.031,371.103 616.5,381.5C 611.778,374.77 607.445,367.77 603.5,360.5C 603.718,357.634 603.885,354.634 604,351.5C 605.5,350 607,348.5 608.5,347C 617.288,349.027 625.955,349.86 634.5,349.5 Z"/></g>
<g><path style="opacity:1" fill="#b5b7b7" d="M 153.5,371.5 C 156.412,367.158 158.079,362.325 158.5,357C 157.63,353.261 155.964,349.928 153.5,347C 154.996,346.493 156.163,346.993 157,348.5C 159.907,354.339 160.24,360.339 158,366.5C 156.951,368.618 155.451,370.284 153.5,371.5 Z"/></g>
<g><path style="opacity:1" fill="#f7f7f8" d="M 483.5,349.5 C 483.75,350.922 484.583,351.922 486,352.5C 488.004,360.22 486.17,366.72 480.5,372C 478.19,372.497 475.857,372.663 473.5,372.5C 472.806,362.904 476.139,355.238 483.5,349.5 Z"/></g>
<g><path style="opacity:1" fill="#a6a5a4" d="M 111.5,343.5 C 103.833,343.5 96.1667,343.5 88.5,343.5C 88.5,352.167 88.5,360.833 88.5,369.5C 94.1667,369.5 99.8333,369.5 105.5,369.5C 99.69,370.49 93.69,370.823 87.5,370.5C 87.5,361.167 87.5,351.833 87.5,342.5C 95.6841,342.174 103.684,342.508 111.5,343.5 Z"/></g>
<g><path style="opacity:1" fill="#eceff0" d="M 199.5,360.5 C 195.959,359.584 192.626,359.25 189.5,359.5C 190.686,355.637 192.353,351.971 194.5,348.5C 196.72,352.273 198.386,356.273 199.5,360.5 Z"/></g>
<g><path style="opacity:1" fill="#bfc0c1" d="M 485.5,347.5 C 487.438,350.997 488.438,354.83 488.5,359C 488.084,368.241 483.418,373.407 474.5,374.5C 474.5,375.833 474.5,377.167 474.5,378.5C 473.539,376.735 473.205,374.735 473.5,372.5C 475.857,372.663 478.19,372.497 480.5,372C 486.17,366.72 488.004,360.22 486,352.5C 484.583,351.922 483.75,350.922 483.5,349.5C 483.833,348.5 484.5,347.833 485.5,347.5 Z"/></g>
<g><path style="opacity:1" fill="#8ea4ae" d="M 694.5,355.5 C 709.603,354.422 715.436,361.089 712,375.5C 709.629,378.206 706.963,380.539 704,382.5C 704.534,387.467 702.367,389.467 697.5,388.5C 697.335,385.482 697.502,382.482 698,379.5C 700.479,376.931 703.146,374.598 706,372.5C 707.5,364.667 704.333,361.5 696.5,363C 695,363.833 693.833,365 693,366.5C 692.747,369.2 692.747,371.867 693,374.5C 691,377.167 689,377.167 687,374.5C 685,370.5 685,366.5 687,362.5C 689.396,359.933 691.896,357.6 694.5,355.5 Z"/></g>
<g><path style="opacity:1" fill="#b8b9bb" d="M 115.5,367.5 C 114.486,368.674 113.153,369.34 111.5,369.5C 110.852,364.172 110.685,358.838 111,353.5C 111.914,351.336 113.081,349.336 114.5,347.5C 114.833,347.667 115.167,347.833 115.5,348C 112.611,353.121 111.777,358.621 113,364.5C 113.377,365.942 114.21,366.942 115.5,367.5 Z"/></g>
<g><path style="opacity:1" fill="#fafbfb" d="M 384.5,276.5 C 387.139,278.309 389.306,280.642 391,283.5C 391.786,288.81 391.286,293.977 389.5,299C 389.456,304.29 392.123,306.956 397.5,307C 417.847,307.732 438.18,307.566 458.5,306.5C 458.286,318.946 458.786,331.279 460,343.5C 458.922,345.39 457.255,346.39 455,346.5C 450.811,345.604 446.644,344.604 442.5,343.5C 439.63,343.602 437.297,344.768 435.5,347C 437.342,346.421 439.342,345.921 441.5,345.5C 447.18,346.678 452.847,347.845 458.5,349C 459.337,350.011 459.67,351.178 459.5,352.5C 450.597,383.338 461.264,403.838 491.5,414C 515.174,418.07 533.508,410.237 546.5,390.5C 548.441,390.869 550.275,391.536 552,392.5C 553.882,395.478 555.382,398.645 556.5,402C 561.103,401.968 565.436,400.801 569.5,398.5C 569.5,403.5 569.5,408.5 569.5,413.5C 575.026,413.821 580.36,413.488 585.5,412.5C 585.167,395.487 585.501,378.487 586.5,361.5C 594.946,374.884 603.279,388.384 611.5,402C 618.631,403.936 623.297,401.436 625.5,394.5C 626.097,394.735 626.43,395.235 626.5,396C 625.021,402.908 624.354,409.908 624.5,417C 624.793,427.915 625.793,438.748 627.5,449.5C 627.5,450.5 627.5,451.5 627.5,452.5C 625.313,452.983 623.313,452.983 621.5,452.5C 622.833,453.5 624.167,454.5 625.5,455.5C 626.498,463.807 626.831,472.14 626.5,480.5C 625.022,480.238 623.689,480.571 622.5,481.5C 623.325,482.386 624.325,482.719 625.5,482.5C 624.789,496.822 624.456,511.156 624.5,525.5C 604.962,527.62 585.628,526.62 566.5,522.5C 564.391,520.878 563.391,518.712 563.5,516C 564.353,512.46 565.353,508.96 566.5,505.5C 566.239,503.05 565.572,500.717 564.5,498.5C 564.624,497.893 564.957,497.56 565.5,497.5C 569.555,502.135 571.555,507.468 571.5,513.5C 583.655,514.495 595.989,514.829 608.5,514.5C 608.825,507.313 608.491,500.313 607.5,493.5C 606.432,492.566 605.099,492.232 603.5,492.5C 603.5,489.833 603.5,487.167 603.5,484.5C 608.083,485.657 610.75,483.99 611.5,479.5C 610.556,475.89 608.223,474.223 604.5,474.5C 604.5,471.5 604.5,468.5 604.5,465.5C 600.347,466.971 597.013,469.637 594.5,473.5C 596.388,478.938 597.054,484.605 596.5,490.5C 583.072,486.184 575.072,477.017 572.5,463C 575.465,455.567 578.298,448.067 581,440.5C 585.08,439.7 589.247,439.2 593.5,439C 597.339,435.991 601.006,432.824 604.5,429.5C 571.507,428.5 538.507,428.167 505.5,428.5C 505.5,432.167 505.5,435.833 505.5,439.5C 511.5,439.5 517.5,439.5 523.5,439.5C 520.966,447.576 518.133,455.576 515,463.5C 511.943,464.451 508.777,464.784 505.5,464.5C 504.504,477.656 504.171,490.99 504.5,504.5C 509.833,504.5 515.167,504.5 520.5,504.5C 520.5,490.5 520.5,476.5 520.5,462.5C 520.394,459.921 521.061,457.588 522.5,455.5C 526.391,451.367 528.391,446.367 528.5,440.5C 544.5,440.5 560.5,440.5 576.5,440.5C 573.232,448.303 570.566,456.303 568.5,464.5C 553.5,464.5 538.5,464.5 523.5,464.5C 523.333,477.504 523.5,490.504 524,503.5C 526.381,504.435 528.881,504.768 531.5,504.5C 534.131,509.458 535.298,514.791 535,520.5C 533.2,522.317 531.034,523.484 528.5,524C 517.591,525.919 506.591,526.752 495.5,526.5C 483.45,526.534 471.45,525.867 459.5,524.5C 460.019,512.628 461.019,500.795 462.5,489C 462.202,486.152 461.869,483.319 461.5,480.5C 467.278,480.311 472.945,480.978 478.5,482.5C 481.308,482.922 483.308,481.922 484.5,479.5C 490.149,474.828 491.982,468.828 490,461.5C 485.491,450.753 477.824,447.753 467,452.5C 465.5,452.167 464,451.833 462.5,451.5C 463.022,450.393 463.355,449.226 463.5,448C 459.451,433.391 458.451,418.558 460.5,403.5C 460.333,401.5 460.167,399.5 460,397.5C 459.667,397.833 459.333,398.167 459,398.5C 458.333,410.5 458.333,422.5 459,434.5C 460.168,440.151 460.835,445.818 461,451.5C 459.527,453.007 457.693,453.674 455.5,453.5C 451.265,452.811 447.098,451.811 443,450.5C 432.108,454.62 428.441,462.287 432,473.5C 433.906,478.747 437.573,481.747 443,482.5C 446.628,481.624 450.295,480.957 454,480.5C 456.352,480.305 458.352,480.972 460,482.5C 459.291,496.473 458.791,510.473 458.5,524.5C 448.667,525.463 438.833,526.463 429,527.5C 418.188,526.587 407.521,524.92 397,522.5C 395.175,522.943 393.342,523.277 391.5,523.5C 391.116,518.663 391.783,513.997 393.5,509.5C 399.988,508.833 406.321,508.167 412.5,507.5C 414.752,507.084 416.252,505.751 417,503.5C 417.499,497.843 417.666,492.176 417.5,486.5C 397.167,486.5 376.833,486.5 356.5,486.5C 356.5,484.167 356.5,481.833 356.5,479.5C 376.833,479.5 397.167,479.5 417.5,479.5C 417.5,474.833 417.5,470.167 417.5,465.5C 390.167,465.5 362.833,465.5 335.5,465.5C 335.5,470.167 335.5,474.833 335.5,479.5C 341.358,479.178 347.025,479.511 352.5,480.5C 346.902,482.967 341.569,485.967 336.5,489.5C 335.548,491.045 335.215,492.712 335.5,494.5C 335.335,498.182 335.501,501.848 336,505.5C 336.5,506 337,506.5 337.5,507C 344.05,508.42 350.716,508.92 357.5,508.5C 358.822,508.33 359.989,508.663 361,509.5C 363.104,513.922 363.937,518.588 363.5,523.5C 358.156,523.334 352.823,523.501 347.5,524C 339.065,525.735 330.565,526.902 322,527.5C 312.469,526.772 302.969,525.772 293.5,524.5C 294.331,516.859 294.998,509.192 295.5,501.5C 294.662,495.162 294.162,488.829 294,482.5C 296.93,480.934 300.097,480.1 303.5,480C 299.683,478.977 296.183,479.477 293,481.5C 292.329,480.748 291.496,480.414 290.5,480.5C 286.168,479.463 281.668,479.463 277,480.5C 274.879,480.302 273.046,479.636 271.5,478.5C 271.666,472.491 271.499,466.491 271,460.5C 270.148,459.429 269.315,458.429 268.5,457.5C 266.612,455.012 265.945,452.012 266.5,448.5C 267.29,449.609 267.79,450.942 268,452.5C 268.757,450.685 269.59,449.019 270.5,447.5C 273.124,449.198 273.124,451.031 270.5,453C 270.833,453.167 271.167,453.333 271.5,453.5C 278.6,454.35 285.767,454.35 293,453.5C 297.49,455.884 301.99,455.717 306.5,453C 302.861,453.278 299.194,453.278 295.5,453C 294.54,451.581 293.707,450.081 293,448.5C 294.048,436.05 294.882,423.55 295.5,411C 295.894,401.188 294.394,391.688 291,382.5C 288.934,380.03 286.267,378.696 283,378.5C 279.559,379.689 276.059,380.689 272.5,381.5C 271.502,372.859 271.169,364.192 271.5,355.5C 288.01,373.848 304.01,392.682 319.5,412C 324.155,412.499 328.821,412.666 333.5,412.5C 333.5,384.5 333.5,356.5 333.5,328.5C 328.167,328.5 322.833,328.5 317.5,328.5C 317.5,334.833 317.5,341.167 317.5,347.5C 315.577,346.149 313.41,345.482 311,345.5C 305.922,346.864 300.755,347.531 295.5,347.5C 294.108,333.542 293.441,319.542 293.5,305.5C 314.821,309.014 336.154,309.181 357.5,306C 363.787,305.047 365.954,301.547 364,295.5C 360.788,290.8 360.788,286.133 364,281.5C 369.831,275.836 376.665,274.169 384.5,276.5 Z"/></g>
<g><path style="opacity:1" fill="#030303" d="M 356.5,328.5 C 371.504,328.333 386.504,328.5 401.5,329C 427.841,335.012 440.008,351.512 438,378.5C 433.068,398.096 420.568,409.263 400.5,412C 385.837,412.5 371.17,412.667 356.5,412.5C 356.5,384.5 356.5,356.5 356.5,328.5 Z"/></g>
<g><path style="opacity:1" fill="#fbfbfb" d="M 373.5,342.5 C 382.173,342.334 390.84,342.5 399.5,343C 417.697,349.225 424.531,361.725 420,380.5C 416.662,389.251 410.495,394.918 401.5,397.5C 399.833,397.5 398.167,397.5 396.5,397.5C 395.167,397.5 393.833,397.5 392.5,397.5C 392.5,395.5 392.5,393.5 392.5,391.5C 395.522,391.196 398.522,390.696 401.5,390C 397.848,389.501 394.182,389.335 390.5,389.5C 390.5,392.5 390.5,395.5 390.5,398.5C 384.833,398.5 379.167,398.5 373.5,398.5C 373.5,379.833 373.5,361.167 373.5,342.5 Z"/></g>
<g><path style="opacity:1" fill="#a0acae" d="M 172.5,360.5 C 171.072,364.35 169.406,368.017 167.5,371.5C 167.19,370.262 166.69,370.262 166,371.5C 165.501,367.514 165.334,363.514 165.5,359.5C 167.95,359.298 170.283,359.631 172.5,360.5 Z"/></g>
<g><path style="opacity:1" fill="#91a4ae" d="M 189.5,359.5 C 192.626,359.25 195.959,359.584 199.5,360.5C 201.731,363.836 203.397,367.503 204.5,371.5C 197.588,372.462 190.588,372.795 183.5,372.5C 185.261,367.982 187.261,363.649 189.5,359.5 Z"/></g>
<g><path style="opacity:1" fill="#95a9b2" d="M 222.5,372.5 C 219.99,368.813 217.99,364.813 216.5,360.5C 222.744,359.542 229.077,359.209 235.5,359.5C 235.5,364.167 235.5,368.833 235.5,373.5C 231.102,373.706 226.768,373.373 222.5,372.5 Z"/></g>
<g><path style="opacity:1" fill="#5c6364" d="M 570.5,328.5 C 570.5,356.5 570.5,384.5 570.5,412.5C 575.5,412.5 580.5,412.5 585.5,412.5C 580.36,413.488 575.026,413.821 569.5,413.5C 569.5,408.5 569.5,403.5 569.5,398.5C 569.169,374.994 569.502,351.661 570.5,328.5 Z"/></g>
<g><path style="opacity:1" fill="#bcbdc1" d="M 153.5,371.5 C 151.9,373.939 149.567,375.272 146.5,375.5C 142.783,374.654 139.117,373.654 135.5,372.5C 136.167,372.167 136.833,371.833 137.5,371.5C 142.946,374.027 148.28,374.027 153.5,371.5 Z"/></g>
<g><path style="opacity:1" fill="#e7e7e8" d="M 204.5,371.5 C 205.693,374.052 207.027,376.552 208.5,379C 208.167,379.333 207.833,379.667 207.5,380C 198.482,380.832 189.482,380.665 180.5,379.5C 181.312,377.055 182.312,374.722 183.5,372.5C 190.588,372.795 197.588,372.462 204.5,371.5 Z"/></g>
<g><path style="opacity:1" fill="#cccbcb" d="M 638.5,374.5 C 638.414,375.496 638.748,376.329 639.5,377C 641.715,377.17 643.715,377.837 645.5,379C 641.248,379.075 637.248,379.908 633.5,381.5C 634.811,378.865 636.478,376.531 638.5,374.5 Z"/></g>
<g><path style="opacity:1" fill="#6d6d6b" d="M 646.5,362.5 C 647.497,378.992 647.83,395.658 647.5,412.5C 652.5,412.5 657.5,412.5 662.5,412.5C 657.36,413.488 652.026,413.821 646.5,413.5C 646.5,396.5 646.5,379.5 646.5,362.5 Z"/></g>
<g><path style="opacity:1" fill="#b3b2b3" d="M 396.5,397.5 C 394.735,398.461 392.735,398.795 390.5,398.5C 390.5,395.5 390.5,392.5 390.5,389.5C 394.182,389.335 397.848,389.501 401.5,390C 398.522,390.696 395.522,391.196 392.5,391.5C 392.5,393.5 392.5,395.5 392.5,397.5C 393.833,397.5 395.167,397.5 396.5,397.5 Z"/></g>
<g><path style="opacity:1" fill="#8fa2aa" d="M 698.5,391.5 C 702.935,391.752 704.268,393.919 702.5,398C 696.339,398.878 695.006,396.711 698.5,391.5 Z"/></g>
<g><path style="opacity:1" fill="#4a4a4d" d="M 373.5,342.5 C 373.5,361.167 373.5,379.833 373.5,398.5C 379.167,398.5 384.833,398.5 390.5,398.5C 392.735,398.795 394.735,398.461 396.5,397.5C 398.167,397.5 399.833,397.5 401.5,397.5C 400.737,398.268 399.737,398.768 398.5,399C 389.84,399.5 381.173,399.666 372.5,399.5C 372.17,380.326 372.503,361.326 373.5,342.5 Z"/></g>
<g><path style="opacity:1" fill="#898887" d="M 150.5,411.5 C 155.975,412.489 161.642,412.822 167.5,412.5C 161.654,413.817 155.654,413.817 149.5,412.5C 149.624,411.893 149.957,411.56 150.5,411.5 Z"/></g>
<g><path style="opacity:1" fill="#8c898a" d="M 239.5,411.5 C 240.043,411.56 240.376,411.893 240.5,412.5C 234.346,413.817 228.346,413.817 222.5,412.5C 228.358,412.822 234.025,412.489 239.5,411.5 Z"/></g>
<g><path style="opacity:1" fill="#aeb3b4" d="M 384.5,415.5 C 385.239,415.369 385.906,415.536 386.5,416C 382.398,419.241 377.731,420.241 372.5,419C 376.953,418.975 380.953,417.808 384.5,415.5 Z"/></g>
<g><path style="opacity:1" fill="#c0c2c4" d="M 627.5,392.5 C 626.467,406.484 626.301,420.484 627,434.5C 627.834,438.002 628.667,441.502 629.5,445C 629.836,446.03 630.503,446.53 631.5,446.5C 630.564,447.974 629.23,448.974 627.5,449.5C 625.793,438.748 624.793,427.915 624.5,417C 624.354,409.908 625.021,402.908 626.5,396C 626.43,395.235 626.097,394.735 625.5,394.5C 625.833,393.5 626.5,392.833 627.5,392.5 Z"/></g>
<g><path style="opacity:1" fill="#89979e" d="M 189.5,416.5 C 191.167,416.5 192.833,416.5 194.5,416.5C 194.337,421.547 194.671,426.547 195.5,431.5C 194.5,431.5 193.5,431.5 192.5,431.5C 192.5,427.167 192.5,422.833 192.5,418.5C 190.821,418.715 189.821,418.048 189.5,416.5 Z"/></g>
<g><path style="opacity:1" fill="#b2b7bb" d="M 122.5,412.5 C 128.833,412.5 135.167,412.5 141.5,412.5C 138.616,413.503 134.949,413.836 130.5,413.5C 130.5,418.833 130.5,424.167 130.5,429.5C 135.167,429.5 139.833,429.5 144.5,429.5C 139.695,430.487 134.695,430.821 129.5,430.5C 129.261,432.467 129.594,434.301 130.5,436C 135.351,436.174 140.018,436.674 144.5,437.5C 138.865,436.963 133.532,437.63 128.5,439.5C 128.5,438.833 128.167,438.5 127.5,438.5C 128.44,430.221 128.773,421.888 128.5,413.5C 126.265,413.795 124.265,413.461 122.5,412.5 Z"/></g>
<g><path style="opacity:1" fill="#517285" d="M 144.5,437.5 C 140.018,436.674 135.351,436.174 130.5,436C 129.594,434.301 129.261,432.467 129.5,430.5C 134.695,430.821 139.695,430.487 144.5,429.5C 144.5,428.167 144.5,426.833 144.5,425.5C 145.5,425.5 146.5,425.5 147.5,425.5C 147.5,426.833 147.5,428.167 147.5,429.5C 149.5,429.5 151.5,429.5 153.5,429.5C 153.5,427.833 153.5,426.167 153.5,424.5C 159.224,426.209 164.224,429.209 168.5,433.5C 164.21,436.985 159.543,439.985 154.5,442.5C 153.548,440.955 153.215,439.288 153.5,437.5C 151.801,437.34 150.134,437.506 148.5,438C 147.692,439.706 146.359,440.539 144.5,440.5C 144.5,439.5 144.5,438.5 144.5,437.5 Z"/></g>
<g><path style="opacity:1" fill="#869fab" d="M 665.5,427.5 C 680.724,425.684 690.557,432.018 695,446.5C 695.5,461.83 695.667,477.163 695.5,492.5C 696.5,492.5 697.5,492.5 698.5,492.5C 699.445,477.266 699.445,462.099 698.5,447C 699.094,446.536 699.761,446.369 700.5,446.5C 700.333,458.838 700.5,471.171 701,483.5C 704.004,487 707.337,487.333 711,484.5C 711.5,473.172 711.667,461.838 711.5,450.5C 712.661,464.661 712.827,478.994 712,493.5C 710.749,496.381 708.583,498.214 705.5,499C 696.833,499.333 688.167,499.667 679.5,500C 672.931,507.239 665.765,513.739 658,519.5C 658.053,512.85 658.22,506.184 658.5,499.5C 650.16,499.666 641.827,499.5 633.5,499C 631.638,497.634 629.972,496.134 628.5,494.5C 628.5,494.167 628.5,493.833 628.5,493.5C 627.617,488.897 627.283,484.23 627.5,479.5C 628.391,481.291 629.391,483.124 630.5,485C 634.608,486.335 637.608,485.168 639.5,481.5C 640.088,484.61 640.755,487.61 641.5,490.5C 641.5,491.833 642.167,492.5 643.5,492.5C 644.496,477.009 644.83,461.342 644.5,445.5C 647.086,441.213 650.086,437.046 653.5,433C 657.133,430.35 661.133,428.517 665.5,427.5 Z"/></g>
<g><path style="opacity:1" fill="#8ea2ab" d="M 121.5,442.5 C 120.842,443.398 120.176,444.398 119.5,445.5C 118.989,443.116 117.989,441.116 116.5,439.5C 101.83,439.333 87.1629,439.5 72.5,440C 65.364,446.135 58.5307,452.635 52,459.5C 51.5001,475.83 51.3334,492.163 51.5,508.5C 73.6703,509.167 96.0037,509.833 118.5,510.5C 117.807,511.518 117.141,512.518 116.5,513.5C 93.1667,513.5 69.8333,513.5 46.5,513.5C 46.3334,494.83 46.5001,476.164 47,457.5C 54.5,450 62,442.5 69.5,435C 86.8301,434.5 104.163,434.333 121.5,434.5C 121.5,437.167 121.5,439.833 121.5,442.5 Z"/></g>
<g><path style="opacity:1" fill="#89a2ae" d="M 417.5,449.5 C 413.413,447.268 409.413,444.768 405.5,442C 402.883,441.178 400.216,440.678 397.5,440.5C 397.923,442.781 397.256,444.448 395.5,445.5C 395.5,440.5 395.5,435.5 395.5,430.5C 401.842,430.334 408.175,430.5 414.5,431C 415.333,431.833 416.167,432.667 417,433.5C 417.499,438.823 417.666,444.156 417.5,449.5 Z"/></g>
<g><path style="opacity:1" fill="#fafcfc" d="M 116.5,439.5 C 116.5,462.5 116.5,485.5 116.5,508.5C 94.8333,508.5 73.1667,508.5 51.5,508.5C 51.3334,492.163 51.5001,475.83 52,459.5C 58.5307,452.635 65.364,446.135 72.5,440C 87.1629,439.5 101.83,439.333 116.5,439.5 Z"/></g>
<g><path style="opacity:1" fill="#6d8890" d="M 274.5,447.5 C 273.25,447.423 272.417,446.756 272,445.5C 271.283,446.044 270.783,446.711 270.5,447.5C 269.59,449.019 268.757,450.685 268,452.5C 267.79,450.942 267.29,449.609 266.5,448.5C 265.849,447.909 265.182,447.243 264.5,446.5C 263.264,447.246 261.93,447.579 260.5,447.5C 260.5,445.833 260.5,444.167 260.5,442.5C 257.227,442.529 256.56,441.196 258.5,438.5C 258.081,437.328 257.415,436.328 256.5,435.5C 258.104,433.821 258.771,431.821 258.5,429.5C 260.2,429.374 261.7,428.707 263,427.5C 263.772,427.645 264.439,427.978 265,428.5C 265.928,425.965 267.762,424.965 270.5,425.5C 270.649,429.123 271.816,429.457 274,426.5C 276.341,427.007 276.841,428.174 275.5,430C 276.793,430.49 278.127,430.657 279.5,430.5C 280.35,434.36 280.683,438.194 280.5,442C 278.994,444.338 276.994,446.172 274.5,447.5 Z"/></g>
<g><path style="opacity:1" fill="#f0f6f9" d="M 264.5,431.5 C 271.819,429.681 275.319,432.347 275,439.5C 271.916,443.847 268.249,444.513 264,441.5C 262.001,438.019 262.168,434.685 264.5,431.5 Z"/></g>
<g><path style="opacity:1" fill="#8fa1a7" d="M 209.5,415.5 C 211.977,415.051 213.977,415.717 215.5,417.5C 214.675,418.386 213.675,418.719 212.5,418.5C 212.5,420.5 212.5,422.5 212.5,424.5C 214.833,424.5 217.167,424.5 219.5,424.5C 219.666,431.508 219.5,438.508 219,445.5C 215.606,446.456 212.106,446.789 208.5,446.5C 208.321,448.954 208.987,451.121 210.5,453C 210.167,453.5 209.833,454 209.5,454.5C 206.644,452.478 204.311,449.978 202.5,447C 197.177,446.501 191.844,446.334 186.5,446.5C 186.5,439.167 186.5,431.833 186.5,424.5C 187.5,424.5 188.5,424.5 189.5,424.5C 189.5,430.833 189.5,437.167 189.5,443.5C 198.173,443.666 206.84,443.5 215.5,443C 216.473,437.593 216.807,432.093 216.5,426.5C 215.167,426.5 213.833,426.5 212.5,426.5C 213.101,430.909 211.434,432.242 207.5,430.5C 209.37,425.739 210.037,420.739 209.5,415.5 Z"/></g>
<g><path style="opacity:1" fill="#537486" d="M 417.5,449.5 C 418.987,452.212 418.321,454.379 415.5,456C 410.092,460.205 404.092,463.039 397.5,464.5C 397.5,462.5 397.5,460.5 397.5,458.5C 394.833,458.5 392.167,458.5 389.5,458.5C 388.791,457.596 387.791,457.263 386.5,457.5C 386.301,454.059 386.801,450.726 388,447.5C 390.277,446.883 392.444,446.216 394.5,445.5C 394.833,445.5 395.167,445.5 395.5,445.5C 397.256,444.448 397.923,442.781 397.5,440.5C 400.216,440.678 402.883,441.178 405.5,442C 409.413,444.768 413.413,447.268 417.5,449.5 Z"/></g>
<g><path style="opacity:1" fill="#819da9" d="M 394.5,445.5 C 392.444,446.216 390.277,446.883 388,447.5C 386.801,450.726 386.301,454.059 386.5,457.5C 387.791,457.263 388.791,457.596 389.5,458.5C 371.5,458.5 353.5,458.5 335.5,458.5C 335.334,450.16 335.5,441.827 336,433.5C 336.833,432.667 337.667,431.833 338.5,431C 344.825,430.5 351.158,430.334 357.5,430.5C 357.5,435.5 357.5,440.5 357.5,445.5C 369.833,445.5 382.167,445.5 394.5,445.5 Z"/></g>
<g><path style="opacity:1" fill="#537181" d="M 28.5,435.5 C 30.8333,435.5 33.1667,435.5 35.5,435.5C 35.5,438.167 35.5,440.833 35.5,443.5C 37.973,443.201 40.1397,442.201 42,440.5C 43.6486,441.786 44.8153,443.453 45.5,445.5C 43.6397,446.939 41.973,448.605 40.5,450.5C 44.3516,453.314 44.3516,455.981 40.5,458.5C 38.8273,456.914 36.8273,456.247 34.5,456.5C 34.5,458.833 34.5,461.167 34.5,463.5C 32.5,463.5 30.5,463.5 28.5,463.5C 29.7798,454.457 27.2798,453.124 21,459.5C 19.9542,457.91 18.7875,456.41 17.5,455C 19.8461,453.987 21.5128,452.321 22.5,450C 17.4845,446.992 17.3178,443.825 22,440.5C 23.8792,442.013 26.0459,442.679 28.5,442.5C 28.5,440.167 28.5,437.833 28.5,435.5 Z"/></g>
<g><path style="opacity:1" fill="#bebfbf" d="M 271.5,355.5 C 271.169,364.192 271.502,372.859 272.5,381.5C 276.059,380.689 279.559,379.689 283,378.5C 286.267,378.696 288.934,380.03 291,382.5C 294.394,391.688 295.894,401.188 295.5,411C 294.882,423.55 294.048,436.05 293,448.5C 293.707,450.081 294.54,451.581 295.5,453C 299.194,453.278 302.861,453.278 306.5,453C 301.99,455.717 297.49,455.884 293,453.5C 285.767,454.35 278.6,454.35 271.5,453.5C 271.167,453.333 270.833,453.167 270.5,453C 273.124,451.031 273.124,449.198 270.5,447.5C 270.783,446.711 271.283,446.044 272,445.5C 272.417,446.756 273.25,447.423 274.5,447.5C 274.586,448.496 274.252,449.329 273.5,450C 277.697,451.633 282.031,452.8 286.5,453.5C 287.894,453.379 289.228,453.046 290.5,452.5C 293.043,433.907 293.877,415.241 293,396.5C 292.25,391.401 290.75,386.567 288.5,382C 286.801,381.042 284.967,380.542 283,380.5C 278.98,381.956 274.813,382.622 270.5,382.5C 270.173,373.318 270.507,364.318 271.5,355.5 Z"/></g>
<g><path style="opacity:1" fill="#4f7183" d="M 631.5,446.5 C 634.167,446.5 636.833,446.5 639.5,446.5C 639.5,458.167 639.5,469.833 639.5,481.5C 637.608,485.168 634.608,486.335 630.5,485C 629.391,483.124 628.391,481.291 627.5,479.5C 627.5,470.5 627.5,461.5 627.5,452.5C 627.5,451.5 627.5,450.5 627.5,449.5C 629.23,448.974 630.564,447.974 631.5,446.5 Z"/></g>
<g><path style="opacity:1" fill="#c0ced4" d="M 631.5,446.5 C 635.634,445.515 639.968,445.182 644.5,445.5C 644.83,461.342 644.496,477.009 643.5,492.5C 643.667,477.163 643.5,461.83 643,446.5C 641.518,461.01 641.018,475.676 641.5,490.5C 640.755,487.61 640.088,484.61 639.5,481.5C 639.5,469.833 639.5,458.167 639.5,446.5C 636.833,446.5 634.167,446.5 631.5,446.5 Z"/></g>
<g><path style="opacity:1" fill="#708b94" d="M 268.5,457.5 C 269.315,458.429 270.148,459.429 271,460.5C 271.499,466.491 271.666,472.491 271.5,478.5C 271.565,478.938 271.399,479.272 271,479.5C 267.92,477.923 265.753,475.59 264.5,472.5C 263.473,468.554 263.306,464.554 264,460.5C 265.878,459.947 267.378,458.947 268.5,457.5 Z"/></g>
<g><path style="opacity:1" fill="#babcbc" d="M 307.5,452.5 C 310.44,451.17 313.44,451.337 316.5,453C 325.439,461.784 325.772,470.951 317.5,480.5C 317.167,480.333 316.833,480.167 316.5,480C 321.63,473.889 322.797,467.055 320,459.5C 317.188,454.679 313.021,452.345 307.5,452.5 Z"/></g>
<g><path style="opacity:1" fill="#859fab" d="M 356.5,486.5 C 355.835,484.302 355.168,481.969 354.5,479.5C 353.817,479.863 353.15,480.196 352.5,480.5C 347.025,479.511 341.358,479.178 335.5,479.5C 335.5,474.833 335.5,470.167 335.5,465.5C 362.833,465.5 390.167,465.5 417.5,465.5C 417.5,470.167 417.5,474.833 417.5,479.5C 397.167,479.5 376.833,479.5 356.5,479.5C 356.5,481.833 356.5,484.167 356.5,486.5 Z"/></g>
<g><path style="opacity:1" fill="#8aa2ad" d="M 191.5,468.5 C 192.166,471.358 192.833,474.358 193.5,477.5C 196.64,475.527 199.64,473.36 202.5,471C 212.828,470.5 223.161,470.334 233.5,470.5C 233.5,477.5 233.5,484.5 233.5,491.5C 228.489,491.666 223.489,491.499 218.5,491C 216.173,486.669 212.673,483.836 208,482.5C 205,484.5 202,486.5 199,488.5C 197.14,486.799 194.973,485.799 192.5,485.5C 192.5,487.5 192.5,489.5 192.5,491.5C 185.186,489.672 178.853,486.005 173.5,480.5C 179.185,475.994 185.185,471.994 191.5,468.5 Z"/></g>
<g><path style="opacity:1" fill="#f4fbfd" d="M 643.5,492.5 C 642.167,492.5 641.5,491.833 641.5,490.5C 641.018,475.676 641.518,461.01 643,446.5C 643.5,461.83 643.667,477.163 643.5,492.5 Z"/></g>
<g><path style="opacity:1" fill="#c3ccd1" d="M 264.5,472.5 C 265.753,475.59 267.92,477.923 271,479.5C 271.399,479.272 271.565,478.938 271.5,478.5C 273.046,479.636 274.879,480.302 277,480.5C 281.668,479.463 286.168,479.463 290.5,480.5C 284.771,480.746 279.104,481.412 273.5,482.5C 274.069,486.329 273.402,489.663 271.5,492.5C 272.58,489.257 272.747,485.924 272,482.5C 269.053,481.219 266.719,479.219 265,476.5C 264.501,481.489 264.334,486.489 264.5,491.5C 263.23,485.296 263.23,478.963 264.5,472.5 Z"/></g>
<g><path style="opacity:1" fill="#527586" d="M 271.5,492.5 C 268.764,495.371 266.431,495.038 264.5,491.5C 264.334,486.489 264.501,481.489 265,476.5C 266.719,479.219 269.053,481.219 272,482.5C 272.747,485.924 272.58,489.257 271.5,492.5 Z"/></g>
<g><path style="opacity:1" fill="#4e7084" d="M 607.5,493.5 C 607.5,500.167 607.5,506.833 607.5,513.5C 595.5,513.5 583.5,513.5 571.5,513.5C 571.555,507.468 569.555,502.135 565.5,497.5C 556.912,489.208 547.579,488.375 537.5,495C 534.853,497.801 532.853,500.968 531.5,504.5C 528.881,504.768 526.381,504.435 524,503.5C 523.5,490.504 523.333,477.504 523.5,464.5C 538.5,464.5 553.5,464.5 568.5,464.5C 570.566,456.303 573.232,448.303 576.5,440.5C 560.328,439.173 543.995,439.173 527.5,440.5C 526.027,445.586 524.36,450.586 522.5,455.5C 521.061,457.588 520.394,459.921 520.5,462.5C 519.504,475.99 519.171,489.656 519.5,503.5C 514.833,503.5 510.167,503.5 505.5,503.5C 505.5,490.5 505.5,477.5 505.5,464.5C 508.777,464.784 511.943,464.451 515,463.5C 518.133,455.576 520.966,447.576 523.5,439.5C 517.5,439.5 511.5,439.5 505.5,439.5C 505.5,435.833 505.5,432.167 505.5,428.5C 538.507,428.167 571.507,428.5 604.5,429.5C 601.006,432.824 597.339,435.991 593.5,439C 589.247,439.2 585.08,439.7 581,440.5C 578.298,448.067 575.465,455.567 572.5,463C 575.072,477.017 583.072,486.184 596.5,490.5C 597.054,484.605 596.388,478.938 594.5,473.5C 597.013,469.637 600.347,466.971 604.5,465.5C 604.5,468.5 604.5,471.5 604.5,474.5C 608.223,474.223 610.556,475.89 611.5,479.5C 610.75,483.99 608.083,485.657 603.5,484.5C 603.5,487.167 603.5,489.833 603.5,492.5C 605.099,492.232 606.432,492.566 607.5,493.5 Z"/></g>
<g><path style="opacity:1" fill="#d5e3e9" d="M 576.5,440.5 C 560.5,440.5 544.5,440.5 528.5,440.5C 528.391,446.367 526.391,451.367 522.5,455.5C 524.36,450.586 526.027,445.586 527.5,440.5C 543.995,439.173 560.328,439.173 576.5,440.5 Z"/></g>
<g><path style="opacity:1" fill="#899faa" d="M 104.5,446.5 C 105.833,446.5 107.167,446.5 108.5,446.5C 108.5,463.167 108.5,479.833 108.5,496.5C 92.5,496.5 76.5,496.5 60.5,496.5C 60.5,495.167 60.5,493.833 60.5,492.5C 75.1667,492.5 89.8333,492.5 104.5,492.5C 104.5,477.167 104.5,461.833 104.5,446.5 Z"/></g>
<g><path style="opacity:1" fill="#8aa0aa" d="M 520.5,462.5 C 520.5,476.5 520.5,490.5 520.5,504.5C 515.167,504.5 509.833,504.5 504.5,504.5C 504.171,490.99 504.504,477.656 505.5,464.5C 505.5,477.5 505.5,490.5 505.5,503.5C 510.167,503.5 514.833,503.5 519.5,503.5C 519.171,489.656 519.504,475.99 520.5,462.5 Z"/></g>
<g><path style="opacity:1" fill="#e3ecf3" d="M 510.5,466.5 C 512.833,466.5 515.167,466.5 517.5,466.5C 517.5,467.833 517.5,469.167 517.5,470.5C 515.167,470.5 512.833,470.5 510.5,470.5C 510.5,469.167 510.5,467.833 510.5,466.5 Z"/></g>
<g><path style="opacity:1" fill="#d8e3e8" d="M 104.5,446.5 C 104.5,461.833 104.5,477.167 104.5,492.5C 89.8333,492.5 75.1667,492.5 60.5,492.5C 60.5,493.833 60.5,495.167 60.5,496.5C 76.5,496.5 92.5,496.5 108.5,496.5C 92.3419,497.496 76.0085,497.83 59.5,497.5C 59.5,495.5 59.5,493.5 59.5,491.5C 74.1667,491.5 88.8333,491.5 103.5,491.5C 103.171,476.324 103.504,461.324 104.5,446.5 Z"/></g>
<g><path style="opacity:1" fill="#a9abaf" d="M 213.5,496.5 C 204.095,490.592 195.429,491.592 187.5,499.5C 189.206,495.621 192.206,493.121 196.5,492C 200.167,491.333 203.833,491.333 207.5,492C 210.106,492.792 212.106,494.292 213.5,496.5 Z"/></g>
<g><path style="opacity:1" fill="#eaf1f4" d="M 628.5,494.5 C 629.972,496.134 631.638,497.634 633.5,499C 641.827,499.5 650.16,499.666 658.5,499.5C 658.22,506.184 658.053,512.85 658,519.5C 665.765,513.739 672.931,507.239 679.5,500C 688.167,499.667 696.833,499.333 705.5,499C 708.583,498.214 710.749,496.381 712,493.5C 712.827,478.994 712.661,464.661 711.5,450.5C 708.859,446.846 705.192,445.512 700.5,446.5C 699.761,446.369 699.094,446.536 698.5,447C 699.445,462.099 699.445,477.266 698.5,492.5C 697.5,492.5 696.5,492.5 695.5,492.5C 695.667,477.163 695.5,461.83 695,446.5C 690.557,432.018 680.724,425.684 665.5,427.5C 670.306,425.158 675.306,424.991 680.5,427C 685.117,428.413 689.117,430.747 692.5,434C 692.167,434.333 691.833,434.667 691.5,435C 693.936,437.707 695.436,440.873 696,444.5C 697.561,444.347 699.395,444.014 701.5,443.5C 704.826,444.047 708.16,444.547 711.5,445C 712,445.5 712.5,446 713,446.5C 714.106,455.108 714.606,463.775 714.5,472.5C 714.636,480.599 714.136,488.599 713,496.5C 711.2,498.883 708.867,500.55 706,501.5C 697.912,500.352 689.746,500.185 681.5,501C 675.763,505.068 671.096,510.068 667.5,516C 664.803,518.708 661.637,520.541 658,521.5C 656.584,519.589 655.75,517.422 655.5,515C 656.029,511.459 656.696,507.959 657.5,504.5C 657.081,503.328 656.415,502.328 655.5,501.5C 649.527,500.258 643.527,500.258 637.5,501.5C 635.407,501.514 633.574,500.848 632,499.5C 631.667,499.833 631.333,500.167 631,500.5C 629.337,498.842 628.504,496.842 628.5,494.5 Z"/></g>
<g><path style="opacity:1" fill="#4f7285" d="M 700.5,446.5 C 705.192,445.512 708.859,446.846 711.5,450.5C 711.667,461.838 711.5,473.172 711,484.5C 707.337,487.333 704.004,487 701,483.5C 700.5,471.171 700.333,458.838 700.5,446.5 Z"/></g>
<g><path style="opacity:1" fill="#9ba9af" d="M 127.5,438.5 C 128.167,438.5 128.5,438.833 128.5,439.5C 128.086,444.285 125.919,447.952 122,450.5C 121.5,459.827 121.334,469.161 121.5,478.5C 121.5,478.833 121.5,479.167 121.5,479.5C 121.5,490.833 121.5,502.167 121.5,513.5C 119.833,513.5 118.167,513.5 116.5,513.5C 117.141,512.518 117.807,511.518 118.5,510.5C 96.0037,509.833 73.6703,509.167 51.5,508.5C 73.1667,508.5 94.8333,508.5 116.5,508.5C 116.5,485.5 116.5,462.5 116.5,439.5C 117.989,441.116 118.989,443.116 119.5,445.5C 120.176,444.398 120.842,443.398 121.5,442.5C 121.338,444.527 121.505,446.527 122,448.5C 124.857,445.791 126.691,442.457 127.5,438.5 Z"/></g>
<g><path style="opacity:1" fill="#bcbec0" d="M 121.5,479.5 C 121.5,479.167 121.5,478.833 121.5,478.5C 127.456,480.082 130.289,484.082 130,490.5C 130.664,502.218 130.164,513.885 128.5,525.5C 141.821,526.473 155.154,526.639 168.5,526C 173.552,525.256 178.552,524.256 183.5,523C 186.291,521.881 187.957,519.881 188.5,517C 187.312,512.789 185.978,508.622 184.5,504.5C 184.757,502.308 185.757,500.641 187.5,499.5C 187.062,501.126 186.728,502.793 186.5,504.5C 187.906,508.388 188.906,512.388 189.5,516.5C 189.664,520.177 187.997,522.677 184.5,524C 177.075,526.702 169.409,528.036 161.5,528C 149.822,528.566 138.156,528.4 126.5,527.5C 127.955,515.214 128.455,502.88 128,490.5C 128.351,485.184 126.185,481.518 121.5,479.5 Z"/></g>
<g><path style="opacity:1" fill="#7b8f97" d="M 65.5,501.5 C 66.8333,501.5 68.1667,501.5 69.5,501.5C 69.5,502.833 69.5,504.167 69.5,505.5C 67.8333,505.5 66.1667,505.5 64.5,505.5C 64.4326,504.041 64.7659,502.708 65.5,501.5 Z"/></g>
<g><path style="opacity:1" fill="#688083" d="M 57.5,501.5 C 60.5,501.167 61.8333,502.5 61.5,505.5C 60.1667,505.5 58.8333,505.5 57.5,505.5C 57.5,504.167 57.5,502.833 57.5,501.5 Z"/></g>
<g><path style="opacity:1" fill="#bfc0c3" d="M 627.5,452.5 C 627.5,461.5 627.5,470.5 627.5,479.5C 627.283,484.23 627.617,488.897 628.5,493.5C 626.522,504.451 625.856,515.784 626.5,527.5C 612.839,528.282 599.172,528.449 585.5,528C 580.124,527.215 574.791,526.215 569.5,525C 568.058,524.623 567.058,523.79 566.5,522.5C 585.628,526.62 604.962,527.62 624.5,525.5C 624.456,511.156 624.789,496.822 625.5,482.5C 624.325,482.719 623.325,482.386 622.5,481.5C 623.689,480.571 625.022,480.238 626.5,480.5C 626.831,472.14 626.498,463.807 625.5,455.5C 624.167,454.5 622.833,453.5 621.5,452.5C 623.313,452.983 625.313,452.983 627.5,452.5 Z"/></g>
<g><path style="opacity:1" fill="#d6e3ea" d="M 607.5,493.5 C 608.491,500.313 608.825,507.313 608.5,514.5C 595.989,514.829 583.655,514.495 571.5,513.5C 583.5,513.5 595.5,513.5 607.5,513.5C 607.5,506.833 607.5,500.167 607.5,493.5 Z"/></g>
<g><path style="opacity:1" fill="#bbbcbd" d="M 484.5,479.5 C 483.308,481.922 481.308,482.922 478.5,482.5C 472.945,480.978 467.278,480.311 461.5,480.5C 461.869,483.319 462.202,486.152 462.5,489C 461.019,500.795 460.019,512.628 459.5,524.5C 471.45,525.867 483.45,526.534 495.5,526.5C 506.591,526.752 517.591,525.919 528.5,524C 531.034,523.484 533.2,522.317 535,520.5C 535.298,514.791 534.131,509.458 531.5,504.5C 532.853,500.968 534.853,497.801 537.5,495C 547.579,488.375 556.912,489.208 565.5,497.5C 564.957,497.56 564.624,497.893 564.5,498.5C 565.572,500.717 566.239,503.05 566.5,505.5C 565.353,508.96 564.353,512.46 563.5,516C 563.391,518.712 564.391,520.878 566.5,522.5C 563.296,521.622 561.63,519.455 561.5,516C 561.909,513.679 562.743,511.513 564,509.5C 565.1,499.26 560.433,493.926 550,493.5C 543.554,493.555 538.554,496.222 535,501.5C 535.369,507.887 536.036,514.22 537,520.5C 535.269,522.617 533.102,524.117 530.5,525C 519.312,527.521 507.979,528.688 496.5,528.5C 484.152,528.032 471.819,527.365 459.5,526.5C 459.325,539.258 460.325,551.925 462.5,564.5C 461.637,576.236 455.97,579.736 445.5,575C 438.682,573.453 433.849,575.953 431,582.5C 428.648,590.894 430.815,597.728 437.5,603C 441.203,603.579 444.869,603.412 448.5,602.5C 438.743,607.339 432.243,604.339 429,593.5C 427.158,584.351 430.324,577.518 438.5,573C 440.5,572.333 442.5,572.333 444.5,573C 454.232,578.494 459.565,575.828 460.5,565C 459.288,552.292 458.288,539.625 457.5,527C 447.508,527.494 437.508,528.327 427.5,529.5C 418.75,528.529 410.083,527.029 401.5,525C 390.249,523.107 387.416,527.273 393,537.5C 393.667,539.833 393.667,542.167 393,544.5C 392.252,546.751 390.752,548.084 388.5,548.5C 385.753,551.944 382.086,553.278 377.5,552.5C 361.497,551.988 356.83,544.488 363.5,530C 363.385,528.105 362.718,526.438 361.5,525C 357.833,524.333 354.167,524.333 350.5,525C 340.932,527.15 331.265,528.65 321.5,529.5C 311.881,528.031 302.215,527.031 292.5,526.5C 292.786,542.219 292.786,557.886 292.5,573.5C 293.171,574.946 294.338,575.612 296,575.5C 301.681,573.378 307.515,572.545 313.5,573C 325.158,582.485 325.492,592.485 314.5,603C 312.801,603.958 310.967,604.458 309,604.5C 305.372,603.624 301.705,602.957 298,602.5C 296.236,602.544 294.569,602.878 293,603.5C 293.495,612.838 294.328,622.171 295.5,631.5C 295.513,636.889 295.013,642.222 294,647.5C 293.667,638.5 293.333,629.5 293,620.5C 291.274,614.963 290.274,609.296 290,603.5C 288.431,602.878 286.764,602.544 285,602.5C 270.685,607.7 262.518,602.7 260.5,587.5C 261.671,579.842 265.837,574.842 273,572.5C 274.167,572.667 275.333,572.833 276.5,573C 263.482,576.686 259.648,584.853 265,597.5C 269.399,603.913 274.899,605.08 281.5,601C 284.993,599.996 288.159,600.496 291,602.5C 292.907,601.07 295.074,600.404 297.5,600.5C 301.595,601.087 305.595,602.087 309.5,603.5C 318.779,599.543 322.279,592.543 320,582.5C 316.078,574.481 309.911,572.314 301.5,576C 294.833,576.667 288.167,576.667 281.5,576C 279.956,575.71 278.623,575.044 277.5,574C 281.397,574.953 285.397,575.287 289.5,575C 290.717,573.352 291.55,571.519 292,569.5C 291.435,562.043 290.935,554.543 290.5,547C 290.818,540.162 291.151,533.328 291.5,526.5C 272.536,528.215 253.536,528.715 234.5,528C 227.109,527.65 220.609,525.15 215,520.5C 214.333,517.833 214.333,515.167 215,512.5C 218.546,506.781 218.046,501.448 213.5,496.5C 217.957,498.747 219.791,502.414 219,507.5C 217.83,510.505 216.664,513.505 215.5,516.5C 215.856,519.688 217.523,521.855 220.5,523C 231.817,525.839 243.317,527.005 255,526.5C 267.531,526.311 280.031,525.644 292.5,524.5C 294.26,509.659 293.593,494.992 290.5,480.5C 291.496,480.414 292.329,480.748 293,481.5C 296.183,479.477 299.683,478.977 303.5,480C 300.097,480.1 296.93,480.934 294,482.5C 294.162,488.829 294.662,495.162 295.5,501.5C 294.998,509.192 294.331,516.859 293.5,524.5C 302.969,525.772 312.469,526.772 322,527.5C 330.565,526.902 339.065,525.735 347.5,524C 352.823,523.501 358.156,523.334 363.5,523.5C 363.937,518.588 363.104,513.922 361,509.5C 359.989,508.663 358.822,508.33 357.5,508.5C 357.371,506.784 357.038,505.117 356.5,503.5C 356.5,501.5 356.5,499.5 356.5,497.5C 359.187,497.664 361.854,497.497 364.5,497C 375.443,487.752 385.276,488.918 394,500.5C 394.497,502.81 394.663,505.143 394.5,507.5C 400.5,507.5 406.5,507.5 412.5,507.5C 406.321,508.167 399.988,508.833 393.5,509.5C 391.783,513.997 391.116,518.663 391.5,523.5C 393.342,523.277 395.175,522.943 397,522.5C 407.521,524.92 418.188,526.587 429,527.5C 438.833,526.463 448.667,525.463 458.5,524.5C 458.791,510.473 459.291,496.473 460,482.5C 458.352,480.972 456.352,480.305 454,480.5C 450.295,480.957 446.628,481.624 443,482.5C 437.573,481.747 433.906,478.747 432,473.5C 428.441,462.287 432.108,454.62 443,450.5C 447.098,451.811 451.265,452.811 455.5,453.5C 457.693,453.674 459.527,453.007 461,451.5C 460.835,445.818 460.168,440.151 459,434.5C 458.333,422.5 458.333,410.5 459,398.5C 459.333,398.167 459.667,397.833 460,397.5C 460.167,399.5 460.333,401.5 460.5,403.5C 458.451,418.558 459.451,433.391 463.5,448C 463.355,449.226 463.022,450.393 462.5,451.5C 464,451.833 465.5,452.167 467,452.5C 477.824,447.753 485.491,450.753 490,461.5C 491.982,468.828 490.149,474.828 484.5,479.5 Z"/></g>
<g><path style="opacity:1" fill="#89a3af" d="M 335.5,494.5 C 339.948,496.227 343.948,498.727 347.5,502C 350.393,503.149 353.393,503.649 356.5,503.5C 357.038,505.117 357.371,506.784 357.5,508.5C 350.716,508.92 344.05,508.42 337.5,507C 337,506.5 336.5,506 336,505.5C 335.501,501.848 335.335,498.182 335.5,494.5 Z"/></g>
<g><path style="opacity:1" fill="#fcfdfc" d="M 388.5,548.5 C 378.278,553.734 369.445,552.067 362,543.5C 363.656,536.66 364.823,529.66 365.5,522.5C 365.333,519.833 365.167,517.167 365,514.5C 359.602,507.728 360.435,501.895 367.5,497C 374.527,493.718 381.527,493.718 388.5,497C 390.041,498.579 391.208,500.413 392,502.5C 390.872,509.721 390.039,517.055 389.5,524.5C 389.667,527.5 389.833,530.5 390,533.5C 393.726,539.008 393.226,544.008 388.5,548.5 Z"/></g>
<g><path style="opacity:1" fill="#4e7285" d="M 356.5,486.5 C 357.343,488.173 358.676,489.34 360.5,490C 359.786,491.343 360.12,492.676 361.5,494C 360.113,495.683 358.447,496.85 356.5,497.5C 356.5,499.5 356.5,501.5 356.5,503.5C 353.393,503.649 350.393,503.149 347.5,502C 343.948,498.727 339.948,496.227 335.5,494.5C 335.215,492.712 335.548,491.045 336.5,489.5C 341.569,485.967 346.902,482.967 352.5,480.5C 353.15,480.196 353.817,479.863 354.5,479.5C 355.168,481.969 355.835,484.302 356.5,486.5 Z"/></g>
<g><path style="opacity:1" fill="#859faa" d="M 356.5,486.5 C 376.833,486.5 397.167,486.5 417.5,486.5C 417.666,492.176 417.499,497.843 417,503.5C 416.252,505.751 414.752,507.084 412.5,507.5C 406.5,507.5 400.5,507.5 394.5,507.5C 394.663,505.143 394.497,502.81 394,500.5C 385.276,488.918 375.443,487.752 364.5,497C 361.854,497.497 359.187,497.664 356.5,497.5C 358.447,496.85 360.113,495.683 361.5,494C 360.12,492.676 359.786,491.343 360.5,490C 358.676,489.34 357.343,488.173 356.5,486.5 Z"/></g>
<g><path style="opacity:1" fill="#fcfcfc" d="M 484.5,479.5 C 482.693,480.615 480.693,481.281 478.5,481.5C 474.356,480.396 470.189,479.396 466,478.5C 461.829,479.779 457.662,479.779 453.5,478.5C 444.306,484.102 437.473,482.102 433,472.5C 430.301,462.505 433.635,455.838 443,452.5C 448.557,453.956 454.223,454.623 460,454.5C 467.232,454.187 474.399,453.687 481.5,453C 487.896,457.509 490.396,463.676 489,471.5C 487.644,474.329 486.144,476.996 484.5,479.5 Z"/></g>
<g><path style="opacity:1" fill="#4b6e82" d="M 181.5,536.5 C 185.5,536.5 189.5,536.5 193.5,536.5C 193.195,541.762 193.529,546.928 194.5,552C 196.879,552.614 199.212,552.947 201.5,553C 204.373,548.962 207.039,544.795 209.5,540.5C 213.004,542.418 216.337,544.584 219.5,547C 216.01,551.105 213.51,555.605 212,560.5C 213.389,562.227 215.056,563.561 217,564.5C 221.333,562.5 225.667,560.5 230,558.5C 232.07,560.963 233.903,563.629 235.5,566.5C 231.496,569.662 227.33,572.662 223,575.5C 222.83,577.845 223.163,580.179 224,582.5C 229.072,583.471 234.238,583.805 239.5,583.5C 239.5,587.5 239.5,591.5 239.5,595.5C 234.156,595.334 228.823,595.501 223.5,596C 221.579,599.018 221.246,602.185 222.5,605.5C 225.533,607.698 228.7,609.698 232,611.5C 232.52,613.289 232.187,614.956 231,616.5C 229.987,618.846 228.321,620.513 226,621.5C 221.98,620.141 218.48,617.975 215.5,615C 214.5,614.333 213.5,614.333 212.5,615C 210.957,616.878 209.124,618.378 207,619.5C 207.319,624.018 208.152,628.518 209.5,633C 205.884,636.373 201.551,637.873 196.5,637.5C 196.201,633.47 195.201,629.637 193.5,626C 188.845,625.501 184.179,625.334 179.5,625.5C 178.5,629.5 177.5,633.5 176.5,637.5C 172.024,637.181 167.857,635.848 164,633.5C 164.81,629.504 165.977,625.504 167.5,621.5C 165.873,618.375 163.706,615.709 161,613.5C 157.423,616.373 153.589,618.873 149.5,621C 148.056,621.781 146.723,621.614 145.5,620.5C 144.167,617.833 142.833,615.167 141.5,612.5C 144.872,609.723 148.372,607.057 152,604.5C 152.301,601.493 152.135,598.493 151.5,595.5C 146.167,595.5 140.833,595.5 135.5,595.5C 135.5,591.5 135.5,587.5 135.5,583.5C 140.5,583.5 145.5,583.5 150.5,583.5C 151.509,580.473 151.509,577.473 150.5,574.5C 147.498,571.997 144.165,569.997 140.5,568.5C 139.774,564.249 141.107,560.583 144.5,557.5C 149.116,560.814 154.116,562.981 159.5,564C 161.124,562.883 162.124,561.383 162.5,559.5C 160.438,555.044 158.105,550.711 155.5,546.5C 158.213,544.618 161.047,542.951 164,541.5C 167.414,544.794 170.247,548.627 172.5,553C 175.502,552.842 178.502,552.342 181.5,551.5C 181.5,546.5 181.5,541.5 181.5,536.5 Z"/></g>
<g><path style="opacity:1" fill="#97a7ad" d="M 591.5,552.5 C 593.766,552.141 595.599,552.808 597,554.5C 597.71,553.027 598.876,552.36 600.5,552.5C 600.227,555.756 599.894,558.756 599.5,561.5C 597.007,561.4 594.507,561.067 592,560.5C 591.503,557.854 591.336,555.187 591.5,552.5 Z"/></g>
<g><path style="opacity:1" fill="#8ca2a7" d="M 506.5,552.5 C 509.598,552.413 509.932,552.913 507.5,554C 508.167,554.167 508.833,554.333 509.5,554.5C 511.334,553.246 513.334,552.579 515.5,552.5C 515.33,553.822 515.663,554.989 516.5,556C 515.552,556.483 514.552,556.649 513.5,556.5C 513.5,558.167 513.5,559.833 513.5,561.5C 511.167,561.5 508.833,561.5 506.5,561.5C 506.5,558.5 506.5,555.5 506.5,552.5 Z"/></g>
<g><path style="opacity:1" fill="#8fa1a7" d="M 596.5,568.5 C 595.673,573.985 595.173,579.652 595,585.5C 594.827,579.652 594.327,573.985 593.5,568.5C 590.167,568.5 586.833,568.5 583.5,568.5C 583.5,564.833 583.5,561.167 583.5,557.5C 576.159,557.334 568.826,557.5 561.5,558C 576.972,562.62 585.638,572.787 587.5,588.5C 586.343,592.216 586.343,595.883 587.5,599.5C 585.841,607.35 581.841,613.85 575.5,619C 573.612,620.394 571.612,621.56 569.5,622.5C 566.327,623.368 563.327,623.368 560.5,622.5C 583.066,612.941 589.232,596.941 579,574.5C 569.728,563.186 557.894,559.02 543.5,562C 525.055,571.039 518.888,585.206 525,604.5C 530.957,616.733 540.79,622.733 554.5,622.5C 556.167,623.833 557.833,625.167 559.5,626.5C 558.193,628.223 558.193,630.057 559.5,632C 578.155,633.164 578.155,633.997 559.5,634.5C 559.5,637.167 559.5,639.833 559.5,642.5C 555.167,642.5 550.833,642.5 546.5,642.5C 546.5,640.167 546.5,637.833 546.5,635.5C 542.5,635.5 538.5,635.5 534.5,635.5C 534.5,634.5 534.5,633.5 534.5,632.5C 538.833,632.5 543.167,632.5 547.5,632.5C 547.5,630.833 547.5,629.167 547.5,627.5C 539.5,627.5 531.5,627.5 523.5,627.5C 523.5,628.5 523.5,629.5 523.5,630.5C 521.535,629.871 519.535,629.204 517.5,628.5C 514.068,630.088 510.401,630.755 506.5,630.5C 506.5,627.5 506.5,624.5 506.5,621.5C 509.167,621.5 511.833,621.5 514.5,621.5C 514.5,623.167 514.5,624.833 514.5,626.5C 516.167,626.5 517.833,626.5 519.5,626.5C 519.5,623.833 519.5,621.167 519.5,618.5C 514.833,618.5 510.167,618.5 505.5,618.5C 505.5,617.5 505.5,616.5 505.5,615.5C 507.167,615.5 508.833,615.5 510.5,615.5C 510.666,610.156 510.499,604.823 510,599.5C 507.281,598.556 504.448,598.223 501.5,598.5C 501.5,594.167 501.5,589.833 501.5,585.5C 504.833,585.5 508.167,585.5 511.5,585.5C 511.5,579.833 511.5,574.167 511.5,568.5C 509.833,568.5 508.167,568.5 506.5,568.5C 506.5,567.5 506.5,566.5 506.5,565.5C 511.167,565.5 515.833,565.5 520.5,565.5C 520.173,560.786 520.507,556.12 521.5,551.5C 522.415,552.328 523.081,553.328 523.5,554.5C 531.472,555.498 539.472,555.831 547.5,555.5C 547.5,553.5 547.5,551.5 547.5,549.5C 544.167,549.5 540.833,549.5 537.5,549.5C 537.5,548.5 537.5,547.5 537.5,546.5C 540.5,546.5 543.5,546.5 546.5,546.5C 546.5,544.5 546.5,542.5 546.5,540.5C 550.833,540.5 555.167,540.5 559.5,540.5C 559.5,542.5 559.5,544.5 559.5,546.5C 562.898,546.18 566.232,546.513 569.5,547.5C 565.893,548.489 562.226,548.823 558.5,548.5C 558.244,550.792 558.577,552.959 559.5,555C 567.493,555.5 575.493,555.666 583.5,555.5C 583.5,554.167 583.5,552.833 583.5,551.5C 584.5,551.5 585.5,551.5 586.5,551.5C 586.5,556.167 586.5,560.833 586.5,565.5C 591.167,565.5 595.833,565.5 600.5,565.5C 600.5,566.5 600.5,567.5 600.5,568.5C 599.167,568.5 597.833,568.5 596.5,568.5 Z"/></g>
<g><path style="opacity:1" fill="#eef7f8" d="M 551.5,547.5 C 553.167,547.5 554.833,547.5 556.5,547.5C 556.5,550.833 556.5,554.167 556.5,557.5C 554.5,557.5 552.5,557.5 550.5,557.5C 550.46,554.119 550.793,550.786 551.5,547.5 Z"/></g>
<g><path style="opacity:1" fill="#f3f7f8" d="M 593.5,568.5 C 593.205,575.226 593.538,581.892 594.5,588.5C 592.141,589.714 589.808,589.714 587.5,588.5C 585.638,572.787 576.972,562.62 561.5,558C 568.826,557.5 576.159,557.334 583.5,557.5C 583.5,561.167 583.5,564.833 583.5,568.5C 586.833,568.5 590.167,568.5 593.5,568.5 Z"/></g>
<g><path style="opacity:1" fill="#4c7083" d="M 324.5,561.5 C 336.322,560.505 348.322,560.172 360.5,560.5C 360.5,564.833 360.5,569.167 360.5,573.5C 350.828,573.666 341.161,573.5 331.5,573C 329.016,569.186 326.682,565.353 324.5,561.5 Z"/></g>
<g><path style="opacity:1" fill="#4e7083" d="M 388.5,560.5 C 400.518,560.168 412.518,560.501 424.5,561.5C 422.365,565.465 420.032,569.298 417.5,573C 407.839,573.5 398.172,573.666 388.5,573.5C 388.5,569.167 388.5,564.833 388.5,560.5 Z"/></g>
<g><path style="opacity:1" fill="#f8fbfc" d="M 560.5,622.5 C 558.5,622.5 556.5,622.5 554.5,622.5C 540.79,622.733 530.957,616.733 525,604.5C 518.888,585.206 525.055,571.039 543.5,562C 557.894,559.02 569.728,563.186 579,574.5C 589.232,596.941 583.066,612.941 560.5,622.5 Z"/></g>
<g><path style="opacity:1" fill="#4b6f83" d="M 384.5,554.5 C 384.5,562.167 384.5,569.833 384.5,577.5C 389.844,577.334 395.177,577.501 400.5,578C 405.267,580.365 410.1,582.531 415,584.5C 415.054,588.063 413.721,591.063 411,593.5C 406.947,591.538 402.781,589.872 398.5,588.5C 397.558,588.608 396.725,588.941 396,589.5C 395.506,591.134 395.34,592.801 395.5,594.5C 394.566,595.568 394.232,596.901 394.5,598.5C 398.5,598.5 402.5,598.5 406.5,598.5C 406.5,605.167 406.5,611.833 406.5,618.5C 403.833,618.5 401.167,618.5 398.5,618.5C 398.5,614.833 398.5,611.167 398.5,607.5C 393.833,607.5 389.167,607.5 384.5,607.5C 384.111,619.168 383.611,630.835 383,642.5C 378.144,648.76 372.81,649.093 367,643.5C 366.415,631.465 365.581,619.465 364.5,607.5C 359.833,607.5 355.167,607.5 350.5,607.5C 350.5,611.167 350.5,614.833 350.5,618.5C 347.833,618.5 345.167,618.5 342.5,618.5C 342.5,611.5 342.5,604.5 342.5,597.5C 346.5,597.5 350.5,597.5 354.5,597.5C 354.777,594.552 354.444,591.719 353.5,589C 352.167,588.333 350.833,588.333 349.5,589C 345.892,590.652 342.226,592.152 338.5,593.5C 336.173,590.863 335.007,587.863 335,584.5C 339.546,582.478 344.046,580.311 348.5,578C 354.016,577.827 359.349,577.327 364.5,576.5C 365.492,569.352 365.825,562.019 365.5,554.5C 371.833,554.5 378.167,554.5 384.5,554.5 Z"/></g>
<g><path style="opacity:1" fill="#889fac" d="M 384.5,554.5 C 378.167,554.5 371.833,554.5 365.5,554.5C 365.825,562.019 365.492,569.352 364.5,576.5C 364.5,568.833 364.5,561.167 364.5,553.5C 371.354,553.176 378.021,553.509 384.5,554.5 Z"/></g>
<g><path style="opacity:1" fill="#f9fbfc" d="M 181.5,572.5 C 196.223,570.58 203.723,576.913 204,591.5C 199.263,604.785 190.43,608.618 177.5,603C 170.146,596.315 168.646,588.482 173,579.5C 175.441,576.546 178.275,574.213 181.5,572.5 Z"/></g>
<g><path style="opacity:1" fill="#ebf1f4" d="M 523.5,557.5 C 530.175,557.334 536.842,557.5 543.5,558C 533.474,562.025 525.974,568.858 521,578.5C 520.103,581.49 519.269,584.49 518.5,587.5C 516.955,588.452 515.288,588.785 513.5,588.5C 513.5,581.833 513.5,575.167 513.5,568.5C 516.833,568.5 520.167,568.5 523.5,568.5C 523.5,564.833 523.5,561.167 523.5,557.5 Z"/></g>
<g><path style="opacity:1" fill="#99aaaf" d="M 593.5,568.5 C 594.327,573.985 594.827,579.652 595,585.5C 595.173,579.652 595.673,573.985 596.5,568.5C 596.334,574.176 596.501,579.843 597,585.5C 599.719,586.444 602.552,586.777 605.5,586.5C 605.5,590.5 605.5,594.5 605.5,598.5C 602.5,598.5 599.5,598.5 596.5,598.5C 596.5,604.167 596.5,609.833 596.5,615.5C 598.167,615.5 599.833,615.5 601.5,615.5C 601.5,616.5 601.5,617.5 601.5,618.5C 596.5,618.5 591.5,618.5 586.5,618.5C 586.5,622.5 586.5,626.5 586.5,630.5C 584.641,630.539 583.308,629.706 582.5,628C 574.83,627.478 567.163,626.978 559.5,626.5C 557.833,625.167 556.167,623.833 554.5,622.5C 556.5,622.5 558.5,622.5 560.5,622.5C 563.327,623.368 566.327,623.368 569.5,622.5C 569.389,623.117 569.056,623.617 568.5,624C 573.489,624.499 578.489,624.666 583.5,624.5C 583.5,621.5 583.5,618.5 583.5,615.5C 586.833,615.5 590.167,615.5 593.5,615.5C 593.5,609.833 593.5,604.167 593.5,598.5C 591.379,598.325 589.379,598.659 587.5,599.5C 586.343,595.883 586.343,592.216 587.5,588.5C 589.808,589.714 592.141,589.714 594.5,588.5C 593.538,581.892 593.205,575.226 593.5,568.5 Z"/></g>
<g><path style="opacity:1" fill="#f3fafb" d="M 588.5,591.5 C 592.167,591.5 595.833,591.5 599.5,591.5C 599.5,592.833 599.5,594.167 599.5,595.5C 596.111,595.632 592.777,595.799 589.5,596C 588.62,594.644 588.286,593.144 588.5,591.5 Z"/></g>
<g><path style="opacity:1" fill="#f4f8f9" d="M 506.5,590.5 C 510.434,591.36 514.434,591.693 518.5,591.5C 519.141,605.987 525.808,616.821 538.5,624C 533.511,624.499 528.511,624.666 523.5,624.5C 523.665,621.482 523.498,618.482 523,615.5C 519.943,614.549 516.777,614.216 513.5,614.5C 513.5,608.5 513.5,602.5 513.5,596.5C 511.167,596.5 508.833,596.5 506.5,596.5C 506.5,594.5 506.5,592.5 506.5,590.5 Z"/></g>
<g><path style="opacity:1" fill="#8ca1ab" d="M 561.5,569.5 C 566.087,569.289 566.754,570.789 563.5,574C 563.667,574.833 563.833,575.667 564,576.5C 573.736,586.137 573.903,595.97 564.5,606C 560.685,608.86 556.352,610.193 551.5,610C 549.612,612.19 547.445,614.023 545,615.5C 545.155,613.189 545.155,610.856 545,608.5C 534.908,600.969 532.908,591.636 539,580.5C 544.072,573.974 550.572,571.807 558.5,574C 559.883,572.729 560.883,571.229 561.5,569.5 Z"/></g>
<g><path style="opacity:1" fill="#f1f6f9" d="M 548.5,579.5 C 556.051,578.026 561.551,580.693 565,587.5C 565.833,598.667 560.667,603.833 549.5,603C 542.872,599.909 540.372,594.743 542,587.5C 543.305,584.039 545.471,581.372 548.5,579.5 Z"/></g>
<g><path style="opacity:1" fill="#8da6af" d="M 550.5,584.5 C 557.825,583.992 560.658,587.326 559,594.5C 555.049,599.818 551.049,599.818 547,594.5C 545.756,590.191 546.923,586.858 550.5,584.5 Z"/></g>
<g><path style="opacity:1" fill="#809aa5" d="M 395.5,594.5 C 395.5,595.5 395.5,596.5 395.5,597.5C 399.5,597.5 403.5,597.5 407.5,597.5C 407.825,604.687 407.491,611.687 406.5,618.5C 406.5,611.833 406.5,605.167 406.5,598.5C 402.5,598.5 398.5,598.5 394.5,598.5C 394.232,596.901 394.566,595.568 395.5,594.5 Z"/></g>
<g><path style="opacity:1" fill="#c1c4c4" d="M 448.5,602.5 C 449.134,601.053 450.301,600.387 452,600.5C 457.975,601.141 461.308,604.475 462,610.5C 461.503,622.815 461.003,635.149 460.5,647.5C 459.5,647.5 458.5,647.5 457.5,647.5C 459.328,634.555 460.161,621.555 460,608.5C 457.989,603.243 454.156,601.243 448.5,602.5 Z"/></g>
<g><path style="opacity:1" fill="#f4f9fb" d="M 569.5,622.5 C 571.612,621.56 573.612,620.394 575.5,619C 581.841,613.85 585.841,607.35 587.5,599.5C 589.379,598.659 591.379,598.325 593.5,598.5C 593.5,604.167 593.5,609.833 593.5,615.5C 590.167,615.5 586.833,615.5 583.5,615.5C 583.5,618.5 583.5,621.5 583.5,624.5C 578.489,624.666 573.489,624.499 568.5,624C 569.056,623.617 569.389,623.117 569.5,622.5 Z"/></g>
<g><path style="opacity:1" fill="#87999c" d="M 592.5,621.5 C 600.415,620.238 602.582,623.238 599,630.5C 598.085,629.672 597.419,628.672 597,627.5C 596.517,628.448 596.351,629.448 596.5,630.5C 595.167,630.5 593.833,630.5 592.5,630.5C 592.5,629.5 592.5,628.5 592.5,627.5C 587.461,627.549 587.295,626.882 592,625.5C 592.49,624.207 592.657,622.873 592.5,621.5 Z"/></g>
<g><path style="opacity:1" fill="#e8f0f3" d="M 550.5,625.5 C 552.5,625.5 554.5,625.5 556.5,625.5C 556.5,629.167 556.5,632.833 556.5,636.5C 554.5,636.5 552.5,636.5 550.5,636.5C 550.5,632.833 550.5,629.167 550.5,625.5 Z"/></g>
</svg>
